SplineFontDB: 1.0
FontName: Lohit-Hindi
FullName: Lohit Hindi
FamilyName: Lohit Hindi
Weight: Book
Copyright: Copyright (c) 2003, Automatic Control Equipments, Pune, INDIA. - under General Public License
Version: 1.00
ItalicAngle: 0
UnderlinePosition: -300
UnderlineWidth: 20
Ascent: 615
Descent: 154
Order2: 1
XUID: [1021 648 100124046 15405904]
FSType: 0
OS2Version: 0
OS2_WeightWidthSlopeOnly: 0
OS2_UseTypoMetrics: 1
CreationTime: 1159459513
ModificationTime: 1159459513
PfmFamily: 17
TTFWeight: 400
TTFWidth: 5
LineGap: 200
VLineGap: 0
Panose: 2 0 6 0 0 0 0 0 0 0
OS2TypoAscent: 135
OS2TypoAOffset: 1
OS2TypoDescent: -120
OS2TypoDOffset: 1
OS2TypoLinegap: 0
OS2WinAscent: 0
OS2WinAOffset: 1
OS2WinDescent: 0
OS2WinDOffset: 1
HheadAscent: 0
HheadAOffset: 1
HheadDescent: 0
HheadDOffset: 1
OS2SubXSize: 700
OS2SubYSize: 650
OS2SubXOff: 0
OS2SubYOff: 200
OS2SupXSize: 700
OS2SupYSize: 650
OS2SupXOff: 0
OS2SupYOff: 500
OS2StrikeYSize: 50
OS2StrikeYPos: 250
OS2Vendor: 'ACE '
ScriptLang: 2
 1 deva 1 dflt 
 0 
ChainSub: coverage 0 0 'psts' 0 0 0 1
 1 1 0
  Coverage: 89 u0940 u0940_u0902.abvs u0940_u0930_u094D.rphf.abvs u0940_u0930_u094D.rphf.abvs_u0902.abvs
  BCoverage: 27 u0915_u0930_u094D.blwf.vatu
 1
  SeqLookup: 0 'L000'
EndFPST
ChainSub: coverage 0 0 'psts' 0 0 0 1
 1 1 0
  Coverage: 89 u0940 u0940_u0902.abvs u0940_u0930_u094D.rphf.abvs u0940_u0930_u094D.rphf.abvs_u0902.abvs
  BCoverage: 5 u0958
 1
  SeqLookup: 0 'L000'
EndFPST
ChainSub: coverage 0 0 'psts' 0 0 0 1
 1 1 0
  Coverage: 89 u0940 u0940_u0902.abvs u0940_u0930_u094D.rphf.abvs u0940_u0930_u094D.rphf.abvs_u0902.abvs
  BCoverage: 5 u0915
 1
  SeqLookup: 0 'L000'
EndFPST
ChainSub: coverage 0 0 'psts' 0 0 0 1
 1 1 0
  Coverage: 89 u0940 u0940_u0902.abvs u0940_u0930_u094D.rphf.abvs u0940_u0930_u094D.rphf.abvs_u0902.abvs
  BCoverage: 5 u0960
 1
  SeqLookup: 0 'L000'
EndFPST
ChainSub: coverage 0 0 'psts' 0 0 0 1
 1 1 0
  Coverage: 89 u0940 u0940_u0902.abvs u0940_u0930_u094D.rphf.abvs u0940_u0930_u094D.rphf.abvs_u0902.abvs

StartChar: .notdef
Encoding: 65536 -1 0
Width: 800
GlyphClass: 2
Flags: W
Fore
100 0 m 1,0,-1
 100 700 l 1,1,-1
 700 700 l 1,2,-1
 700 0 l 1,3,-1
 100 0 l 1,4,-1
 100 0 l 1,0,-1
150 50 m 1,5,-1
 650 50 l 1,6,-1
 650 650 l 1,7,-1
 150 650 l 1,8,-1
 150 50 l 1,9,-1
 150 50 l 1,5,-1
EndSplineSet
EndChar
StartChar: exclam
Encoding: 33 33 4
Width: 255
GlyphClass: 2
Flags: W
Fore
80 0 m 1,0,-1
 80 90 l 1,1,-1
 175 90 l 1,2,-1
 175 0 l 1,3,-1
 80 0 l 1,4,-1
 80 0 l 1,0,-1
110 175 m 1,5,-1
 75 555 l 1,6,-1
 180 555 l 1,7,-1
 145 175 l 1,8,-1
 110 175 l 1,9,-1
 110 175 l 1,5,-1
EndSplineSet
EndChar
StartChar: quotedbl
Encoding: 34 34 5
Width: 346
GlyphClass: 2
Flags: W
Fore
141 499 m 1,0,-1
 104 499 l 1,1,-1
 75 657 l 1,2,-1
 135 657 l 1,3,-1
 141 499 l 1,4,-1
 141 499 l 1,0,-1
271 499 m 1,5,-1
 234 499 l 1,6,-1
 205 657 l 1,7,-1
 265 657 l 1,8,-1
 271 499 l 1,9,-1
 271 499 l 1,5,-1
EndSplineSet
EndChar
StartChar: quotesingle
Encoding: 39 39 6
Width: 216
GlyphClass: 2
Flags: W
Fore
141 499 m 1,0,-1
 104 499 l 1,1,-1
 75 657 l 1,2,-1
 135 657 l 1,3,-1
 141 499 l 1,4,-1
 141 499 l 1,0,-1
EndSplineSet
EndChar
StartChar: parenleft
Encoding: 40 40 7
Width: 365
GlyphClass: 2
Flags: W
Fore
230 -165 m 1,0,1
 155 -76 155 -76 115 37.5 c 128,-1,2
 75 151 75 151 75 275 c 0,3,4
 75 379 75 379 115 482.5 c 128,-1,5
 155 586 155 586 230 675 c 1,6,-1
 290 675 l 1,7,8
 210 580 210 580 167.5 477 c 128,-1,9
 125 374 125 374 125 275 c 0,10,11
 125 157 125 157 167.5 43.5 c 128,-1,12
 210 -70 210 -70 290 -165 c 1,13,-1
 230 -165 l 1,14,-1
 230 -165 l 1,0,1
EndSplineSet
EndChar
StartChar: parenright
Encoding: 41 41 8
Width: 350
GlyphClass: 2
Flags: W
Fore
75 -165 m 1,0,1
 148 -78 148 -78 186.5 30 c 128,-1,2
 225 138 225 138 225 255 c 256,3,4
 225 372 225 372 186.5 480 c 128,-1,5
 148 588 148 588 75 675 c 1,6,-1
 125 675 l 1,7,8
 198 588 198 588 236.5 480 c 128,-1,9
 275 372 275 372 275 255 c 256,10,11
 275 138 275 138 236.5 30 c 128,-1,12
 198 -78 198 -78 125 -165 c 1,13,-1
 75 -165 l 1,14,-1
 75 -165 l 1,0,1
EndSplineSet
EndChar
StartChar: comma
Encoding: 44 44 9
Width: 270
GlyphClass: 2
Flags: W
Fore
75 -100 m 1,0,-1
 115 75 l 1,1,-1
 195 75 l 1,2,-1
 120 -100 l 1,3,-1
 75 -100 l 1,4,-1
 75 -100 l 1,0,-1
EndSplineSet
EndChar
StartChar: hyphen
Encoding: 45 45 10
Width: 520
GlyphClass: 2
Flags: W
Fore
75 220 m 1,0,-1
 75 275 l 1,1,-1
 445 275 l 1,2,-1
 445 220 l 1,3,-1
 75 220 l 1,4,-1
 75 220 l 1,0,-1
EndSplineSet
EndChar
StartChar: period
Encoding: 46 46 11
Width: 210
GlyphClass: 2
Flags: W
Fore
75 0 m 1,0,-1
 75 75 l 1,1,-1
 135 75 l 1,2,-1
 135 0 l 1,3,-1
 75 0 l 1,4,-1
 75 0 l 1,0,-1
EndSplineSet
EndChar
StartChar: colon
Encoding: 58 58 12
Width: 210
GlyphClass: 2
Flags: W
Fore
75 0 m 1,0,-1
 75 75 l 1,1,-1
 135 75 l 1,2,-1
 135 0 l 1,3,-1
 75 0 l 1,4,-1
 75 0 l 1,0,-1
75 290 m 1,5,-1
 75 365 l 1,6,-1
 135 365 l 1,7,-1
 135 290 l 1,8,-1
 75 290 l 1,9,-1
 75 290 l 1,5,-1
EndSplineSet
EndChar
StartChar: semicolon
Encoding: 59 59 13
Width: 275
GlyphClass: 2
Flags: W
Fore
75 -100 m 1,0,-1
 120 75 l 1,1,-1
 200 75 l 1,2,-1
 120 -100 l 1,3,-1
 75 -100 l 1,4,-1
 75 -100 l 1,0,-1
120 265 m 1,5,-1
 120 320 l 1,6,-1
 190 320 l 1,7,-1
 190 265 l 1,8,-1
 120 265 l 1,9,-1
 120 265 l 1,5,-1
EndSplineSet
EndChar
StartChar: question
Encoding: 63 63 14
Width: 500
GlyphClass: 2
Flags: W
Fore
175 0 m 1,0,-1
 175 65 l 1,1,-1
 245 65 l 1,2,-1
 245 0 l 1,3,-1
 175 0 l 1,4,-1
 175 0 l 1,0,-1
185 125 m 1,5,-1
 185 280 l 1,6,7
 269 303 269 303 322 347.5 c 128,-1,8
 375 392 375 392 375 440 c 0,9,10
 375 483 375 483 335.5 514 c 128,-1,11
 296 545 296 545 240 545 c 0,12,13
 206 545 206 545 171 528 c 128,-1,14
 136 511 136 511 105 480 c 1,15,-1
 75 520 l 1,16,17
 111 556 111 556 154 575.5 c 128,-1,18
 197 595 197 595 240 595 c 0,19,20
 317 595 317 595 371 549.5 c 128,-1,21
 425 504 425 504 425 440 c 0,22,23
 425 383 425 383 373 329.5 c 128,-1,24
 321 276 321 276 235 245 c 1,25,-1
 235 125 l 1,26,-1
 185 125 l 1,27,-1
 185 125 l 1,5,-1
EndSplineSet
EndChar
StartChar: underscore
Encoding: 95 95 15
Width: 685
GlyphClass: 2
Flags: W
Fore
75 -248 m 1,0,-1
 75 -197 l 1,1,-1
 610 -197 l 1,2,-1
 610 -248 l 1,3,-1
 75 -248 l 1,4,-1
 75 -248 l 1,0,-1
EndSplineSet
EndChar
StartChar: grave
Encoding: 96 96 16
Width: 0
GlyphClass: 2
Flags: W
Fore
106 499 m 1,0,-1
 69 499 l 1,1,-1
 0 657 l 1,2,-1
 65 657 l 1,3,-1
 106 499 l 1,4,-1
 106 499 l 1,0,-1
EndSplineSet
EndChar
StartChar: u0901
Encoding: 2305 2305 17
Width: 0
GlyphClass: 4
Flags: W
AnchorPoint: "Anchor-2" -96 12 mark 0
AnchorPoint: "Anchor-1" -96 12 mark 0
AnchorPoint: "Anchor-0" -90 508 mark 0
Fore
-99 570 m 1,0,1
 -158 570 -158 570 -203 609.5 c 128,-1,2
 -248 649 -248 649 -259 710 c 1,3,-1
 -204 710 l 1,4,5
 -197 669 -197 669 -167 642 c 128,-1,6
 -137 615 -137 615 -99 615 c 256,7,8
 -61 615 -61 615 -31 642 c 128,-1,9
 -1 669 -1 669 6 710 c 1,10,-1
 61 710 l 1,11,12
 50 649 50 649 5 609.5 c 128,-1,13
 -40 570 -40 570 -99 570 c 1,14,-1
 -99 570 l 1,0,1
-134 680 m 1,15,-1
 -134 745 l 1,16,-1
 -69 745 l 1,17,-1
 -69 680 l 1,18,-1
 -134 680 l 1,19,-1
 -134 680 l 1,15,-1
EndSplineSet
EndChar
StartChar: u0902
Encoding: 2306 2306 18
Width: 0
GlyphClass: 4
Flags: W
AnchorPoint: "Anchor-0" -96 538 mark 0
Fore
-133 625 m 1,0,-1
 -133 695 l 1,1,-1
 -58 695 l 1,2,-1
 -58 625 l 1,3,-1
 -133 625 l 1,4,-1
 -133 625 l 1,0,-1
EndSplineSet
EndChar
StartChar: u0903
Encoding: 2307 2307 19
Width: 255
GlyphClass: 2
Flags: W
Fore
125 80 m 1,0,1
 104 80 104 80 89.5 96 c 128,-1,2
 75 112 75 112 75 135 c 256,3,4
 75 158 75 158 89.5 174 c 128,-1,5
 104 190 104 190 125 190 c 0,6,7
 148 190 148 190 164 174 c 128,-1,8
 180 158 180 158 180 135 c 256,9,10
 180 112 180 112 164 96 c 128,-1,11
 148 80 148 80 125 80 c 1,12,-1
 125 80 l 1,0,1
125 300 m 1,13,14
 104 300 104 300 89.5 316 c 128,-1,15
 75 332 75 332 75 355 c 256,16,17
 75 378 75 378 89.5 394 c 128,-1,18
 104 410 104 410 125 410 c 0,19,20
 148 410 148 410 164 394 c 128,-1,21
 180 378 180 378 180 355 c 256,22,23
 180 332 180 332 164 316 c 128,-1,24
 148 300 148 300 125 300 c 1,25,-1
 125 300 l 1,13,14
EndSplineSet
EndChar
StartChar: u0905
Encoding: 2309 2309 20
Width: 577
GlyphClass: 2
Flags: W
Fore
232 35 m 1,0,1
 172 35 172 35 115.5 85 c 128,-1,2
 59 135 59 135 17 225 c 1,3,-1
 54 246 l 1,4,5
 90 170 90 170 136.5 127.5 c 128,-1,6
 183 85 183 85 232 85 c 0,7,8
 263 85 263 85 285 108 c 128,-1,9
 307 131 307 131 307 164 c 0,10,11
 307 204 307 204 282 232 c 128,-1,12
 257 260 257 260 222 260 c 0,13,14
 211 260 211 260 198.5 257.5 c 128,-1,15
 186 255 186 255 172 250 c 1,16,-1
 152 295 l 1,17,18
 197 299 197 299 231.5 326.5 c 128,-1,19
 266 354 266 354 266 385 c 0,20,21
 266 414 266 414 248.5 434.5 c 128,-1,22
 231 455 231 455 207 455 c 0,23,24
 178 455 178 455 146.5 436.5 c 128,-1,25
 115 418 115 418 87 385 c 1,26,-1
 52 420 l 1,27,28
 78 458 78 458 119 479 c 128,-1,29
 160 500 160 500 207 500 c 0,30,31
 253 500 253 500 285 466.5 c 128,-1,32
 317 433 317 433 317 385 c 0,33,34
 317 360 317 360 305 336.5 c 128,-1,35
 293 313 293 313 272 295 c 1,36,37
 310 273 310 273 339.5 261.5 c 128,-1,38
 369 250 369 250 387 250 c 0,39,40
 398 250 398 250 414.5 256.5 c 128,-1,41
 431 263 431 263 452 275 c 1,42,-1
 452 455 l 1,43,-1
 362 455 l 1,44,-1
 362 500 l 1,45,-1
 587 500 l 1,46,-1
 587 455 l 1,47,-1
 502 455 l 1,48,-1
 502 0 l 1,49,-1
 452 0 l 1,50,-1
 452 225 l 1,51,52
 440 215 440 215 427.5 210 c 128,-1,53
 415 205 415 205 402 205 c 0,54,55
 381 205 381 205 364 209 c 128,-1,56
 347 213 347 213 337 220 c 1,57,58
 347 212 347 212 352 197.5 c 128,-1,59
 357 183 357 183 357 165 c 0,60,61
 357 111 357 111 320.5 73 c 128,-1,62
 284 35 284 35 232 35 c 1,63,-1
 232 35 l 1,0,1
EndSplineSet
EndChar
StartChar: u0906
Encoding: 2310 2310 21
Width: 783
GlyphClass: 2
Flags: W
Fore
233 35 m 1,0,1
 173 35 173 35 116.5 85 c 128,-1,2
 60 135 60 135 18 225 c 1,3,-1
 53 255 l 1,4,5
 91 174 91 174 138 129.5 c 128,-1,6
 185 85 185 85 233 85 c 0,7,8
 264 85 264 85 286 111.5 c 128,-1,9
 308 138 308 138 308 175 c 0,10,11
 308 210 308 210 283 235 c 128,-1,12
 258 260 258 260 223 260 c 0,13,14
 212 260 212 260 199.5 257.5 c 128,-1,15
 187 255 187 255 173 250 c 1,16,-1
 153 295 l 1,17,18
 198 299 198 299 233 328 c 128,-1,19
 268 357 268 357 268 390 c 0,20,21
 268 417 268 417 247.5 436 c 128,-1,22
 227 455 227 455 198 455 c 0,23,24
 174 455 174 455 145 436.5 c 128,-1,25
 116 418 116 418 88 385 c 1,26,-1
 53 420 l 1,27,28
 79 458 79 458 117.5 479 c 128,-1,29
 156 500 156 500 198 500 c 0,30,31
 248 500 248 500 283 468 c 128,-1,32
 318 436 318 436 318 390 c 0,33,34
 318 363 318 363 306 338 c 128,-1,35
 294 313 294 313 273 295 c 1,36,37
 307 275 307 275 340 265 c 128,-1,38
 373 255 373 255 403 255 c 0,39,40
 411 255 411 255 423.5 260 c 128,-1,41
 436 265 436 265 453 275 c 1,42,-1
 453 455 l 1,43,-1
 363 455 l 1,44,-1
 363 500 l 1,45,-1
 793 500 l 1,46,-1
 793 455 l 1,47,-1
 708 455 l 1,48,-1
 708 0 l 1,49,-1
 658 0 l 1,50,-1
 658 455 l 1,51,-1
 503 455 l 1,52,-1
 503 0 l 1,53,-1
 453 0 l 1,54,-1
 453 225 l 1,55,56
 441 215 441 215 428.5 210 c 128,-1,57
 416 205 416 205 403 205 c 0,58,59
 382 205 382 205 365 209 c 128,-1,60
 348 213 348 213 338 220 c 1,61,62
 348 212 348 212 353 197.5 c 128,-1,63
 358 183 358 183 358 165 c 0,64,65
 358 111 358 111 321.5 73 c 128,-1,66
 285 35 285 35 233 35 c 1,67,-1
 233 35 l 1,0,1
EndSplineSet
EndChar
StartChar: u0907
Encoding: 2311 2311 22
Width: 378
GlyphClass: 2
Flags: W
Fore
-10 455 m 1,0,-1
 -10 500 l 1,1,-1
 388 500 l 1,2,-1
 388 455 l 1,3,-1
 301 455 l 1,4,-1
 301 325 l 1,5,-1
 121 325 l 2,6,7
 109 325 109 325 100 319 c 128,-1,8
 91 313 91 313 91 305 c 0,9,10
 91 289 91 289 123 257 c 128,-1,11
 155 225 155 225 171 225 c 0,12,13
 188 225 188 225 221 237.5 c 128,-1,14
 254 250 254 250 271 250 c 0,15,16
 300 250 300 250 320.5 225 c 128,-1,17
 341 200 341 200 341 165 c 0,18,19
 341 103 341 103 303 59 c 128,-1,20
 265 15 265 15 211 15 c 1,21,22
 230 -12 230 -12 261.5 -36 c 128,-1,23
 293 -60 293 -60 336 -80 c 1,24,-1
 311 -120 l 1,25,26
 257 -89 257 -89 216.5 -54.5 c 128,-1,27
 176 -20 176 -20 151 15 c 1,28,29
 101 15 101 15 66 34 c 128,-1,30
 31 53 31 53 31 80 c 0,31,32
 31 101 31 101 45.5 115.5 c 128,-1,33
 60 130 60 130 81 130 c 0,34,35
 110 130 110 130 138 110 c 128,-1,36
 166 90 166 90 186 55 c 1,37,38
 229 55 229 55 260 87.5 c 128,-1,39
 291 120 291 120 291 165 c 0,40,41
 291 179 291 179 285 189.5 c 128,-1,42
 279 200 279 200 271 200 c 0,43,44
 254 200 254 200 221 187.5 c 128,-1,45
 188 175 188 175 171 175 c 0,46,47
 139 175 139 175 89.5 224 c 128,-1,48
 40 273 40 273 40 305 c 0,49,50
 40 334 40 334 64 354.5 c 128,-1,51
 88 375 88 375 122 375 c 2,52,-1
 246 375 l 1,53,-1
 246 455 l 1,54,-1
 -10 455 l 1,55,-1
 -10 455 l 1,0,-1
EndSplineSet
EndChar
StartChar: u0908
Encoding: 2312 2312 23
Width: 383
GlyphClass: 2
Flags: W
AnchorPoint: "Anchor-0" 322 476 basechar 0
Fore
312 -120 m 1,0,1
 258 -89 258 -89 217.5 -54.5 c 128,-1,2
 177 -20 177 -20 152 15 c 1,3,4
 102 15 102 15 67 34 c 128,-1,5
 32 53 32 53 32 80 c 0,6,7
 32 101 32 101 46.5 115.5 c 128,-1,8
 61 130 61 130 82 130 c 0,9,10
 111 130 111 130 139 110 c 128,-1,11
 167 90 167 90 187 55 c 1,12,13
 232 55 232 55 264.5 87.5 c 128,-1,14
 297 120 297 120 297 165 c 0,15,16
 297 179 297 179 289.5 189.5 c 128,-1,17
 282 200 282 200 272 200 c 0,18,19
 260 200 260 200 249 197.5 c 128,-1,20
 238 195 238 195 227 190 c 0,21,22
 211 183 211 183 197 179 c 128,-1,23
 183 175 183 175 172 175 c 0,24,25
 139 175 139 175 88 224 c 128,-1,26
 37 273 37 273 37 305 c 0,27,28
 37 334 37 334 62 354.5 c 128,-1,29
 87 375 87 375 122 375 c 2,30,-1
 252 375 l 1,31,-1
 252 455 l 1,32,-1
 -10 455 l 1,33,-1
 -10 500 l 1,34,-1
 241 500 l 1,35,36
 215 523 215 523 201 549 c 128,-1,37
 187 575 187 575 187 600 c 0,38,39
 187 646 187 646 222 678 c 128,-1,40
 257 710 257 710 307 710 c 0,41,42
 321 710 321 710 334.5 707.5 c 128,-1,43
 348 705 348 705 362 700 c 1,44,-1
 362 655 l 1,45,46
 341 663 341 663 327.5 666.5 c 128,-1,47
 314 670 314 670 307 670 c 0,48,49
 278 670 278 670 257.5 649.5 c 128,-1,50
 237 629 237 629 237 600 c 0,51,52
 237 572 237 572 253.5 545.5 c 128,-1,53
 270 519 270 519 299 500 c 1,54,-1
 393 500 l 1,55,-1
 393 455 l 1,56,-1
 302 455 l 1,57,-1
 302 325 l 1,58,-1
 122 325 l 2,59,60
 110 325 110 325 101 319 c 128,-1,61
 92 313 92 313 92 305 c 0,62,63
 92 289 92 289 124 257 c 128,-1,64
 156 225 156 225 172 225 c 0,65,66
 180 225 180 225 192.5 228.5 c 128,-1,67
 205 232 205 232 222 238 c 0,68,69
 237 244 237 244 250 247 c 128,-1,70
 263 250 263 250 272 250 c 0,71,72
 303 250 303 250 325 225 c 128,-1,73
 347 200 347 200 347 165 c 0,74,75
 347 103 347 103 310.5 59 c 128,-1,76
 274 15 274 15 222 15 c 1,77,78
 234 -12 234 -12 265.5 -35.5 c 128,-1,79
 297 -59 297 -59 342 -75 c 1,80,-1
 312 -120 l 1,81,-1
 312 -120 l 1,0,1
EndSplineSet
EndChar
StartChar: u0909
Encoding: 2313 2313 24
Width: 474
GlyphClass: 2
Flags: W
Fore
-10 455 m 1,0,-1
 -10 500 l 1,1,-1
 484 500 l 1,2,-1
 484 455 l 1,3,-1
 377 455 l 1,4,5
 392 438 392 438 399.5 417 c 128,-1,6
 407 396 407 396 407 375 c 0,7,8
 407 342 407 342 393.5 315 c 128,-1,9
 380 288 380 288 357 275 c 1,10,11
 389 264 389 264 408 231 c 128,-1,12
 427 198 427 198 427 155 c 0,13,14
 427 97 427 97 387.5 56 c 128,-1,15
 348 15 348 15 292 15 c 0,16,17
 215 15 215 15 143 96.5 c 128,-1,18
 71 178 71 178 17 325 c 1,19,-1
 58 343 l 1,20,21
 106 211 106 211 167.5 138 c 128,-1,22
 229 65 229 65 292 65 c 0,23,24
 327 65 327 65 352 91.5 c 128,-1,25
 377 118 377 118 377 155 c 0,26,27
 377 196 377 196 353.5 225.5 c 128,-1,28
 330 255 330 255 297 255 c 2,29,-1
 197 255 l 1,30,-1
 177 300 l 1,31,-1
 287 300 l 2,32,33
 316 300 316 300 336.5 322 c 128,-1,34
 357 344 357 344 357 375 c 0,35,36
 357 396 357 396 345 417 c 128,-1,37
 333 438 333 438 312 455 c 1,38,-1
 -10 455 l 1,39,-1
 -10 455 l 1,0,-1
EndSplineSet
EndChar
StartChar: u090A
Encoding: 2314 2314 25
Width: 692
GlyphClass: 2
Flags: W
AnchorPoint: "Anchor-0" 328 476 basechar 0
Fore
-10 455 m 1,0,-1
 -10 500 l 1,1,-1
 702 500 l 1,2,-1
 702 455 l 1,3,-1
 372 455 l 1,4,5
 388 436 388 436 396.5 415.5 c 128,-1,6
 405 395 405 395 405 375 c 0,7,8
 405 341 405 341 390 315 c 128,-1,9
 375 289 375 289 350 280 c 1,10,11
 374 269 374 269 389 254 c 128,-1,12
 404 239 404 239 407 224 c 1,13,14
 424 265 424 265 457.5 290 c 128,-1,15
 491 315 491 315 530 315 c 0,16,17
 584 315 584 315 622 280 c 128,-1,18
 660 245 660 245 660 195 c 256,19,20
 660 145 660 145 637.5 101.5 c 128,-1,21
 615 58 615 58 575 30 c 1,22,-1
 542 67 l 1,23,24
 574 85 574 85 592 119.5 c 128,-1,25
 610 154 610 154 610 195 c 0,26,27
 610 226 610 226 586.5 248 c 128,-1,28
 563 270 563 270 530 270 c 0,29,30
 493 270 493 270 462 229 c 128,-1,31
 431 188 431 188 420 125 c 0,32,33
 412 77 412 77 373.5 46 c 128,-1,34
 335 15 335 15 285 15 c 0,35,36
 206 15 206 15 132 104 c 128,-1,37
 58 193 58 193 20 335 c 1,38,-1
 65 355 l 1,39,40
 99 227 99 227 160.5 146 c 128,-1,41
 222 65 222 65 285 65 c 0,42,43
 322 65 322 65 348.5 94.5 c 128,-1,44
 375 124 375 124 375 165 c 0,45,46
 375 202 375 202 348.5 228.5 c 128,-1,47
 322 255 322 255 285 255 c 2,48,-1
 195 255 l 1,49,-1
 175 300 l 1,50,-1
 275 300 l 2,51,52
 308 300 308 300 331 322 c 128,-1,53
 354 344 354 344 354 375 c 0,54,55
 354 393 354 393 341 414 c 128,-1,56
 328 435 328 435 305 455 c 1,57,-1
 -10 455 l 1,58,-1
 -10 455 l 1,0,-1
EndSplineSet
EndChar
StartChar: u090B
Encoding: 2315 2315 26
Width: 649
GlyphClass: 2
Flags: W
AnchorPoint: "Anchor-3" 354 20 basechar 0
AnchorPoint: "Anchor-0" 348 476 basechar 0
Fore
154 370 m 1,0,1
 176 370 176 370 199 358.5 c 128,-1,2
 222 347 222 347 244 325 c 2,3,-1
 324 245 l 1,4,-1
 324 455 l 1,5,-1
 -10 455 l 1,6,-1
 -10 500 l 1,7,-1
 659 500 l 1,8,-1
 659 455 l 1,9,-1
 374 455 l 1,10,-1
 374 275 l 1,11,12
 385 270 385 270 398.5 267.5 c 128,-1,13
 412 265 412 265 429 265 c 0,14,15
 442 265 442 265 451 266.5 c 128,-1,16
 460 268 460 268 464 270 c 1,17,18
 457 280 457 280 453 291.5 c 128,-1,19
 449 303 449 303 449 315 c 0,20,21
 449 332 449 332 465 343.5 c 128,-1,22
 481 355 481 355 504 355 c 256,23,24
 527 355 527 355 543 340.5 c 128,-1,25
 559 326 559 326 559 305 c 0,26,27
 559 286 559 286 551 271 c 128,-1,28
 543 256 543 256 529 250 c 1,29,30
 572 207 572 207 595.5 164 c 128,-1,31
 619 121 619 121 619 85 c 0,32,33
 619 46 619 46 591 18 c 128,-1,34
 563 -10 563 -10 524 -10 c 0,35,36
 493 -10 493 -10 468 11 c 128,-1,37
 443 32 443 32 434 65 c 1,38,-1
 479 85 l 1,39,40
 482 65 482 65 495 52.5 c 128,-1,41
 508 40 508 40 524 40 c 0,42,43
 543 40 543 40 556 53 c 128,-1,44
 569 66 569 66 569 85 c 0,45,46
 569 118 569 118 545.5 156 c 128,-1,47
 522 194 522 194 479 230 c 1,48,49
 468 225 468 225 455.5 222.5 c 128,-1,50
 443 220 443 220 429 220 c 0,51,52
 410 220 410 220 396.5 222.5 c 128,-1,53
 383 225 383 225 374 230 c 1,54,-1
 374 0 l 1,55,-1
 324 0 l 1,56,-1
 324 190 l 1,57,-1
 119 95 l 1,58,-1
 89 135 l 1,59,-1
 284 225 l 1,60,-1
 229 280 l 2,61,62
 206 302 206 302 186.5 313.5 c 128,-1,63
 167 325 167 325 154 325 c 0,64,65
 133 325 133 325 103.5 312 c 128,-1,66
 74 299 74 299 39 275 c 1,67,-1
 9 310 l 1,68,69
 51 339 51 339 88 354.5 c 128,-1,70
 125 370 125 370 154 370 c 1,71,-1
 154 370 l 1,0,1
EndSplineSet
EndChar
StartChar: u090C
Encoding: 2316 2316 27
Width: 528
GlyphClass: 2
Flags: W
Fore
188 0 m 1,0,1
 118 30 118 30 75.5 84.5 c 128,-1,2
 33 139 33 139 33 200 c 0,3,4
 33 260 33 260 69.5 302.5 c 128,-1,5
 106 345 106 345 158 345 c 0,6,7
 185 345 185 345 211.5 329 c 128,-1,8
 238 313 238 313 258 285 c 1,9,10
 273 308 273 308 295 323.5 c 128,-1,11
 317 339 317 339 343 345 c 1,12,-1
 343 455 l 1,13,-1
 -10 455 l 1,14,-1
 -10 500 l 1,15,-1
 538 500 l 1,16,-1
 538 455 l 1,17,-1
 393 455 l 1,18,-1
 393 345 l 1,19,20
 438 331 438 331 465.5 285.5 c 128,-1,21
 493 240 493 240 493 180 c 0,22,23
 493 126 493 126 462 84 c 128,-1,24
 431 42 431 42 383 30 c 0,25,26
 350 22 350 22 329 -0.5 c 128,-1,27
 308 -23 308 -23 308 -50 c 256,28,29
 308 -77 308 -77 330 -96 c 128,-1,30
 352 -115 352 -115 383 -115 c 0,31,32
 412 -115 412 -115 436.5 -108.5 c 128,-1,33
 461 -102 461 -102 478 -90 c 1,34,-1
 493 -135 l 1,35,36
 472 -150 472 -150 444 -157.5 c 128,-1,37
 416 -165 416 -165 383 -165 c 0,38,39
 331 -165 331 -165 294.5 -131.5 c 128,-1,40
 258 -98 258 -98 258 -50 c 0,41,42
 258 -6 258 -6 288 28 c 128,-1,43
 318 62 318 62 364 70 c 0,44,45
 398 76 398 76 420.5 107 c 128,-1,46
 443 138 443 138 443 180 c 0,47,48
 443 228 443 228 418 261.5 c 128,-1,49
 393 295 393 295 358 295 c 0,50,51
 330 295 330 295 303.5 257 c 128,-1,52
 277 219 277 219 263 160 c 1,53,-1
 213 175 l 1,54,55
 217 193 217 193 223.5 210.5 c 128,-1,56
 230 228 230 228 238 245 c 1,57,58
 224 268 224 268 202.5 281.5 c 128,-1,59
 181 295 181 295 158 295 c 0,60,61
 127 295 127 295 105 267 c 128,-1,62
 83 239 83 239 83 200 c 0,63,64
 83 151 83 151 117 107.5 c 128,-1,65
 151 64 151 64 208 40 c 1,66,-1
 188 0 l 1,67,-1
 188 0 l 1,0,1
EndSplineSet
EndChar
StartChar: u090D
Encoding: 2317 2317 28
Width: 368
GlyphClass: 2
Flags: W
Fore
276 -95 m 1,0,-1
 236 -60 l 1,1,2
 256 -57 256 -57 268.5 -47 c 128,-1,3
 281 -37 281 -37 281 -25 c 0,4,5
 281 -18 281 -18 276 -9 c 128,-1,6
 271 0 271 0 261 10 c 2,7,-1
 76 180 l 2,8,9
 62 194 62 194 54 208.5 c 128,-1,10
 46 223 46 223 46 235 c 2,11,-1
 46 455 l 1,12,-1
 -10 455 l 1,13,-1
 -10 500 l 1,14,-1
 378 500 l 1,15,-1
 378 455 l 1,16,-1
 321 455 l 1,17,-1
 321 305 l 2,18,19
 321 266 321 266 303 237 c 128,-1,20
 285 208 285 208 256 200 c 1,21,-1
 226 235 l 1,22,23
 244 240 244 240 255 261 c 128,-1,24
 266 282 266 282 266 310 c 2,25,-1
 266 455 l 1,26,-1
 101 455 l 1,27,-1
 101 265 l 2,28,29
 101 243 101 243 106 226.5 c 128,-1,30
 111 210 111 210 121 200 c 2,31,-1
 296 35 l 2,32,33
 315 19 315 19 325.5 3.5 c 128,-1,34
 336 -12 336 -12 336 -25 c 0,35,36
 336 -47 336 -47 319.5 -66 c 128,-1,37
 303 -85 303 -85 276 -95 c 1,38,-1
 276 -95 l 1,0,-1
186 565 m 1,39,40
 131 565 131 565 88.5 603 c 128,-1,41
 46 641 46 641 36 700 c 1,42,-1
 86 700 l 1,43,44
 93 659 93 659 121.5 632 c 128,-1,45
 150 605 150 605 186 605 c 256,46,47
 222 605 222 605 250.5 632 c 128,-1,48
 279 659 279 659 286 700 c 1,49,-1
 336 700 l 1,50,51
 326 641 326 641 283.5 603 c 128,-1,52
 241 565 241 565 186 565 c 1,53,-1
 186 565 l 1,39,40
EndSplineSet
EndChar
StartChar: u090E
Encoding: 2318 2318 29
Width: 368
GlyphClass: 2
Flags: W
Fore
276 -95 m 1,0,-1
 236 -60 l 1,1,2
 256 -57 256 -57 268.5 -47 c 128,-1,3
 281 -37 281 -37 281 -25 c 0,4,5
 281 -18 281 -18 276 -9 c 128,-1,6
 271 0 271 0 261 10 c 2,7,-1
 76 180 l 2,8,9
 62 194 62 194 54 208.5 c 128,-1,10
 46 223 46 223 46 235 c 2,11,-1
 46 455 l 1,12,-1
 -10 455 l 1,13,-1
 -10 500 l 1,14,-1
 378 500 l 1,15,-1
 378 455 l 1,16,-1
 321 455 l 1,17,-1
 321 300 l 2,18,19
 321 263 321 263 303 235.5 c 128,-1,20
 285 208 285 208 256 200 c 1,21,-1
 226 235 l 1,22,23
 244 240 244 240 255 261 c 128,-1,24
 266 282 266 282 266 310 c 2,25,-1
 266 455 l 1,26,-1
 101 455 l 1,27,-1
 101 265 l 2,28,29
 101 243 101 243 106 226.5 c 128,-1,30
 111 210 111 210 121 200 c 2,31,-1
 296 35 l 2,32,33
 315 19 315 19 325.5 3.5 c 128,-1,34
 336 -12 336 -12 336 -25 c 0,35,36
 336 -47 336 -47 319.5 -66 c 128,-1,37
 303 -85 303 -85 276 -95 c 1,38,-1
 276 -95 l 1,0,-1
166 615 m 1,39,40
 111 615 111 615 68.5 653 c 128,-1,41
 26 691 26 691 16 750 c 1,42,-1
 66 750 l 1,43,44
 73 709 73 709 101.5 682 c 128,-1,45
 130 655 130 655 166 655 c 0,46,47
 228 655 228 655 272 612.5 c 128,-1,48
 316 570 316 570 316 510 c 1,49,-1
 266 510 l 1,50,51
 266 553 266 553 236.5 584 c 128,-1,52
 207 615 207 615 166 615 c 1,53,-1
 166 615 l 1,39,40
EndSplineSet
EndChar
StartChar: u090F
Encoding: 2319 2319 30
Width: 365
GlyphClass: 2
Flags: W
Fore
-10 455 m 1,0,-1
 -10 500 l 1,1,-1
 375 500 l 1,2,-1
 375 455 l 1,3,-1
 315 455 l 1,4,-1
 315 309 l 2,5,6
 315 268 315 268 298.5 237.5 c 128,-1,7
 282 207 282 207 255 200 c 1,8,-1
 225 235 l 1,9,10
 243 240 243 240 254 261 c 128,-1,11
 265 282 265 282 265 310 c 2,12,-1
 265 455 l 1,13,-1
 95 455 l 1,14,-1
 95 265 l 2,15,16
 95 246 95 246 101.5 229 c 128,-1,17
 108 212 108 212 120 200 c 2,18,-1
 295 35 l 2,19,20
 314 19 314 19 324.5 3.5 c 128,-1,21
 335 -12 335 -12 335 -25 c 0,22,23
 335 -47 335 -47 318.5 -66 c 128,-1,24
 302 -85 302 -85 275 -95 c 1,25,-1
 235 -60 l 1,26,27
 255 -57 255 -57 267.5 -47 c 128,-1,28
 280 -37 280 -37 280 -25 c 0,29,30
 280 -18 280 -18 275 -9 c 128,-1,31
 270 0 270 0 260 10 c 2,32,-1
 75 180 l 2,33,34
 61 194 61 194 53 216 c 128,-1,35
 45 238 45 238 45 263 c 2,36,-1
 45 455 l 1,37,-1
 -10 455 l 1,38,-1
 -10 455 l 1,0,-1
EndSplineSet
EndChar
StartChar: u0910
Encoding: 2320 2320 31
Width: 369
GlyphClass: 2
Flags: W
Fore
-10 455 m 1,0,-1
 -10 500 l 1,1,-1
 264 500 l 1,2,-1
 114 670 l 1,3,-1
 159 710 l 1,4,-1
 320 500 l 1,5,-1
 379 500 l 1,6,-1
 379 455 l 1,7,-1
 324 455 l 1,8,-1
 324 310 l 2,9,10
 324 277 324 277 307 246.5 c 128,-1,11
 290 216 290 216 259 195 c 1,12,-1
 229 235 l 1,13,14
 250 253 250 253 262 273 c 128,-1,15
 274 293 274 293 274 312 c 2,16,-1
 274 455 l 1,17,-1
 94 455 l 1,18,-1
 94 255 l 2,19,20
 94 243 94 243 104.5 226 c 128,-1,21
 115 209 115 209 134 190 c 2,22,-1
 299 35 l 2,23,24
 316 18 316 18 325 2.5 c 128,-1,25
 334 -13 334 -13 334 -25 c 0,26,27
 334 -47 334 -47 317.5 -66 c 128,-1,28
 301 -85 301 -85 274 -95 c 1,29,-1
 234 -60 l 1,30,31
 255 -56 255 -56 268.5 -46.5 c 128,-1,32
 282 -37 282 -37 282 -25 c 0,33,34
 282 -17 282 -17 274.5 -5 c 128,-1,35
 267 7 267 7 254 20 c 2,36,-1
 89 175 l 2,37,38
 68 193 68 193 56 214 c 128,-1,39
 44 235 44 235 44 256 c 2,40,-1
 44 455 l 1,41,-1
 -10 455 l 1,42,-1
 -10 455 l 1,0,-1
EndSplineSet
EndChar
StartChar: u0911
Encoding: 2321 2321 32
Width: 783
GlyphClass: 2
Flags: W
Fore
233 35 m 1,0,1
 173 35 173 35 116.5 85 c 128,-1,2
 60 135 60 135 18 225 c 1,3,-1
 53 255 l 1,4,5
 91 174 91 174 138 129.5 c 128,-1,6
 185 85 185 85 233 85 c 0,7,8
 264 85 264 85 286 111.5 c 128,-1,9
 308 138 308 138 308 175 c 0,10,11
 308 210 308 210 283 235 c 128,-1,12
 258 260 258 260 223 260 c 0,13,14
 212 260 212 260 199.5 257.5 c 128,-1,15
 187 255 187 255 173 250 c 1,16,-1
 153 295 l 1,17,18
 198 299 198 299 233 326.5 c 128,-1,19
 268 354 268 354 268 385 c 0,20,21
 268 412 268 412 247.5 431 c 128,-1,22
 227 450 227 450 198 450 c 0,23,24
 172 450 172 450 143 433 c 128,-1,25
 114 416 114 416 88 385 c 1,26,-1
 53 420 l 1,27,28
 79 458 79 458 117.5 479 c 128,-1,29
 156 500 156 500 198 500 c 0,30,31
 248 500 248 500 283 466.5 c 128,-1,32
 318 433 318 433 318 385 c 0,33,34
 318 360 318 360 306 336.5 c 128,-1,35
 294 313 294 313 273 295 c 1,36,37
 307 275 307 275 339 265 c 128,-1,38
 371 255 371 255 398 255 c 0,39,40
 408 255 408 255 422 260 c 128,-1,41
 436 265 436 265 453 275 c 1,42,-1
 453 455 l 1,43,-1
 363 455 l 1,44,-1
 363 500 l 1,45,-1
 793 500 l 1,46,-1
 793 455 l 1,47,-1
 708 455 l 1,48,-1
 708 0 l 1,49,-1
 658 0 l 1,50,-1
 658 455 l 1,51,-1
 503 455 l 1,52,-1
 503 0 l 1,53,-1
 453 0 l 1,54,-1
 453 225 l 1,55,56
 441 215 441 215 427 210 c 128,-1,57
 413 205 413 205 398 205 c 0,58,59
 379 205 379 205 363.5 209 c 128,-1,60
 348 213 348 213 338 220 c 1,61,62
 348 210 348 210 353 197 c 128,-1,63
 358 184 358 184 358 170 c 0,64,65
 358 114 358 114 321.5 74.5 c 128,-1,66
 285 35 285 35 233 35 c 1,67,-1
 233 35 l 1,0,1
543 560 m 1,68,69
 489 560 489 560 446.5 599.5 c 128,-1,70
 404 639 404 639 393 700 c 1,71,-1
 443 700 l 1,72,73
 450 659 450 659 478.5 632 c 128,-1,74
 507 605 507 605 543 605 c 256,75,76
 579 605 579 605 607.5 632 c 128,-1,77
 636 659 636 659 643 700 c 1,78,-1
 693 700 l 1,79,80
 682 639 682 639 639.5 599.5 c 128,-1,81
 597 560 597 560 543 560 c 1,82,-1
 543 560 l 1,68,69
EndSplineSet
EndChar
StartChar: u0912
Encoding: 2322 2322 33
Width: 783
GlyphClass: 2
Flags: W
Fore
233 35 m 1,0,1
 173 35 173 35 116.5 85 c 128,-1,2
 60 135 60 135 18 225 c 1,3,-1
 53 255 l 1,4,5
 91 174 91 174 138 129.5 c 128,-1,6
 185 85 185 85 233 85 c 0,7,8
 264 85 264 85 286 111.5 c 128,-1,9
 308 138 308 138 308 175 c 0,10,11
 308 210 308 210 283 235 c 128,-1,12
 258 260 258 260 223 260 c 0,13,14
 212 260 212 260 199.5 257.5 c 128,-1,15
 187 255 187 255 173 250 c 1,16,-1
 153 295 l 1,17,18
 198 299 198 299 233 328 c 128,-1,19
 268 357 268 357 268 390 c 0,20,21
 268 417 268 417 247.5 436 c 128,-1,22
 227 455 227 455 198 455 c 0,23,24
 174 455 174 455 145 436.5 c 128,-1,25
 116 418 116 418 88 385 c 1,26,-1
 53 420 l 1,27,28
 81 460 81 460 119.5 482.5 c 128,-1,29
 158 505 158 505 198 505 c 0,30,31
 248 505 248 505 283 471.5 c 128,-1,32
 318 438 318 438 318 390 c 0,33,34
 318 363 318 363 306 338 c 128,-1,35
 294 313 294 313 273 295 c 1,36,37
 311 273 311 273 343 261.5 c 128,-1,38
 375 250 375 250 398 250 c 0,39,40
 405 250 405 250 417.5 256 c 128,-1,41
 430 262 430 262 453 275 c 1,42,-1
 453 455 l 1,43,-1
 363 455 l 1,44,-1
 363 500 l 1,45,-1
 793 500 l 1,46,-1
 793 455 l 1,47,-1
 708 455 l 1,48,-1
 708 0 l 1,49,-1
 658 0 l 1,50,-1
 658 455 l 1,51,-1
 503 455 l 1,52,-1
 503 0 l 1,53,-1
 453 0 l 1,54,-1
 453 225 l 1,55,56
 441 215 441 215 428.5 210 c 128,-1,57
 416 205 416 205 403 205 c 0,58,59
 382 205 382 205 365 209 c 128,-1,60
 348 213 348 213 338 220 c 1,61,62
 348 212 348 212 353 197.5 c 128,-1,63
 358 183 358 183 358 165 c 0,64,65
 358 111 358 111 321.5 73 c 128,-1,66
 285 35 285 35 233 35 c 1,67,-1
 233 35 l 1,0,1
558 615 m 1,68,69
 503 615 503 615 460.5 653 c 128,-1,70
 418 691 418 691 408 750 c 1,71,-1
 458 750 l 1,72,73
 465 709 465 709 493.5 682 c 128,-1,74
 522 655 522 655 558 655 c 0,75,76
 620 655 620 655 664 612.5 c 128,-1,77
 708 570 708 570 708 510 c 1,78,-1
 658 510 l 1,79,80
 658 553 658 553 628.5 584 c 128,-1,81
 599 615 599 615 558 615 c 1,82,-1
 558 615 l 1,68,69
EndSplineSet
EndChar
StartChar: u0913
Encoding: 2323 2323 34
Width: 783
GlyphClass: 2
Flags: W
Fore
233 35 m 1,0,1
 173 35 173 35 116.5 85 c 128,-1,2
 60 135 60 135 18 225 c 1,3,-1
 53 255 l 1,4,5
 91 174 91 174 138 129.5 c 128,-1,6
 185 85 185 85 233 85 c 0,7,8
 264 85 264 85 286 108.5 c 128,-1,9
 308 132 308 132 308 165 c 0,10,11
 308 204 308 204 283 232 c 128,-1,12
 258 260 258 260 223 260 c 0,13,14
 212 260 212 260 199.5 257.5 c 128,-1,15
 187 255 187 255 173 250 c 1,16,-1
 153 295 l 1,17,18
 198 299 198 299 233 328 c 128,-1,19
 268 357 268 357 268 390 c 0,20,21
 268 417 268 417 247.5 436 c 128,-1,22
 227 455 227 455 198 455 c 0,23,24
 174 455 174 455 145 436.5 c 128,-1,25
 116 418 116 418 88 385 c 1,26,-1
 53 420 l 1,27,28
 81 460 81 460 119.5 482.5 c 128,-1,29
 158 505 158 505 198 505 c 0,30,31
 248 505 248 505 283 471.5 c 128,-1,32
 318 438 318 438 318 390 c 0,33,34
 318 363 318 363 306 338 c 128,-1,35
 294 313 294 313 273 295 c 1,36,37
 311 273 311 273 341.5 261.5 c 128,-1,38
 372 250 372 250 393 250 c 0,39,40
 405 250 405 250 420.5 256.5 c 128,-1,41
 436 263 436 263 453 275 c 1,42,-1
 453 455 l 1,43,-1
 363 455 l 1,44,-1
 363 500 l 1,45,-1
 654 500 l 1,46,-1
 473 720 l 1,47,-1
 508 750 l 1,48,-1
 704 500 l 1,49,-1
 793 500 l 1,50,-1
 793 455 l 1,51,-1
 708 455 l 1,52,-1
 708 0 l 1,53,-1
 658 0 l 1,54,-1
 658 455 l 1,55,-1
 503 455 l 1,56,-1
 503 0 l 1,57,-1
 453 0 l 1,58,-1
 453 225 l 1,59,60
 441 215 441 215 428.5 210 c 128,-1,61
 416 205 416 205 403 205 c 0,62,63
 382 205 382 205 365 209 c 128,-1,64
 348 213 348 213 338 220 c 1,65,66
 348 212 348 212 353 197.5 c 128,-1,67
 358 183 358 183 358 165 c 0,68,69
 358 111 358 111 321.5 73 c 128,-1,70
 285 35 285 35 233 35 c 1,71,-1
 233 35 l 1,0,1
EndSplineSet
EndChar
StartChar: u0914
Encoding: 2324 2324 35
Width: 783
GlyphClass: 2
Flags: W
Fore
233 35 m 1,0,1
 173 35 173 35 116.5 85 c 128,-1,2
 60 135 60 135 18 225 c 1,3,-1
 53 255 l 1,4,5
 91 174 91 174 138 129.5 c 128,-1,6
 185 85 185 85 233 85 c 0,7,8
 264 85 264 85 286 108.5 c 128,-1,9
 308 132 308 132 308 165 c 0,10,11
 308 204 308 204 283 232 c 128,-1,12
 258 260 258 260 223 260 c 0,13,14
 212 260 212 260 199.5 257.5 c 128,-1,15
 187 255 187 255 173 250 c 1,16,-1
 153 295 l 1,17,18
 198 299 198 299 233 326.5 c 128,-1,19
 268 354 268 354 268 385 c 0,20,21
 268 414 268 414 244.5 434.5 c 128,-1,22
 221 455 221 455 188 455 c 0,23,24
 165 455 165 455 139.5 438 c 128,-1,25
 114 421 114 421 93 390 c 1,26,-1
 53 420 l 1,27,28
 81 460 81 460 117 482.5 c 128,-1,29
 153 505 153 505 188 505 c 0,30,31
 242 505 242 505 280 470 c 128,-1,32
 318 435 318 435 318 385 c 0,33,34
 318 360 318 360 306 336.5 c 128,-1,35
 294 313 294 313 273 295 c 1,36,37
 311 273 311 273 343 261.5 c 128,-1,38
 375 250 375 250 398 250 c 0,39,40
 405 250 405 250 417.5 256 c 128,-1,41
 430 262 430 262 453 275 c 1,42,-1
 453 455 l 1,43,-1
 363 455 l 1,44,-1
 363 500 l 1,45,-1
 635 500 l 1,46,-1
 428 635 l 1,47,-1
 458 680 l 1,48,-1
 678 505 l 1,49,-1
 573 720 l 1,50,-1
 623 750 l 1,51,-1
 706 500 l 1,52,-1
 793 500 l 1,53,-1
 793 455 l 1,54,-1
 708 455 l 1,55,-1
 708 0 l 1,56,-1
 658 0 l 1,57,-1
 658 455 l 1,58,-1
 503 455 l 1,59,-1
 503 0 l 1,60,-1
 453 0 l 1,61,-1
 453 225 l 1,62,63
 441 215 441 215 428.5 210 c 128,-1,64
 416 205 416 205 403 205 c 0,65,66
 382 205 382 205 365 209 c 128,-1,67
 348 213 348 213 338 220 c 1,68,69
 348 212 348 212 353 197.5 c 128,-1,70
 358 183 358 183 358 165 c 0,71,72
 358 111 358 111 321.5 73 c 128,-1,73
 285 35 285 35 233 35 c 1,74,-1
 233 35 l 1,0,1
EndSplineSet
EndChar
StartChar: u0915
Encoding: 2325 2325 36
Width: 563
GlyphClass: 2
Flags: W
AnchorPoint: "Anchor-3" 286 18 basechar 0
AnchorPoint: "Anchor-0" 290 476 basechar 0
Fore
-10 455 m 1,0,-1
 -10 500 l 1,1,-1
 573 500 l 1,2,-1
 573 455 l 1,3,-1
 309 455 l 1,4,-1
 309 320 l 1,5,6
 325 348 325 348 353 364 c 128,-1,7
 381 380 381 380 414 380 c 0,8,9
 462 380 462 380 495.5 340.5 c 128,-1,10
 529 301 529 301 529 245 c 0,11,12
 529 197 529 197 504 150 c 128,-1,13
 479 103 479 103 434 65 c 1,14,-1
 389 95 l 1,15,16
 431 125 431 125 455 164.5 c 128,-1,17
 479 204 479 204 479 245 c 0,18,19
 479 280 479 280 460 305 c 128,-1,20
 441 330 441 330 414 330 c 0,21,22
 379 330 379 330 349.5 303.5 c 128,-1,23
 320 277 320 277 309 235 c 1,24,-1
 309 0 l 1,25,-1
 259 0 l 1,26,-1
 259 150 l 1,27,28
 241 129 241 129 215 117 c 128,-1,29
 189 105 189 105 159 105 c 0,30,31
 105 105 105 105 67 143 c 128,-1,32
 29 181 29 181 29 235 c 0,33,34
 29 295 29 295 73 337.5 c 128,-1,35
 117 380 117 380 179 380 c 0,36,37
 197 380 197 380 210 377.5 c 128,-1,38
 223 375 223 375 229 370 c 1,39,-1
 219 320 l 1,40,41
 210 325 210 325 200 327.5 c 128,-1,42
 190 330 190 330 179 330 c 0,43,44
 138 330 138 330 108.5 302 c 128,-1,45
 79 274 79 274 79 235 c 0,46,47
 79 202 79 202 102.5 178.5 c 128,-1,48
 126 155 126 155 159 155 c 0,49,50
 188 155 188 155 215 172.5 c 128,-1,51
 242 190 242 190 259 220 c 1,52,-1
 259 455 l 1,53,-1
 -10 455 l 1,54,-1
 -10 455 l 1,0,-1
EndSplineSet
EndChar
StartChar: u0916
Encoding: 2326 2326 37
Width: 620
GlyphClass: 2
Flags: W
AnchorPoint: "Anchor-3" 522 22 basechar 0
AnchorPoint: "Anchor-0" 526 476 basechar 0
Fore
-10 455 m 1,0,-1
 -10 500 l 1,1,-1
 630 500 l 1,2,-1
 630 455 l 1,3,-1
 545 455 l 1,4,-1
 545 0 l 1,5,-1
 495 0 l 1,6,-1
 495 100 l 1,7,8
 462 53 462 53 411.5 26.5 c 128,-1,9
 361 0 361 0 305 0 c 0,10,11
 218 0 218 0 138.5 92 c 128,-1,12
 59 184 59 184 20 330 c 1,13,-1
 60 350 l 1,14,15
 71 318 71 318 90.5 299 c 128,-1,16
 110 280 110 280 130 280 c 0,17,18
 147 280 147 280 158.5 299 c 128,-1,19
 170 318 170 318 170 345 c 2,20,-1
 170 455 l 1,21,-1
 -10 455 l 1,22,-1
 -10 455 l 1,0,-1
305 45 m 1,23,24
 361 45 361 45 412 77 c 128,-1,25
 463 109 463 109 495 165 c 1,26,-1
 495 205 l 1,27,28
 475 188 475 188 454.5 179 c 128,-1,29
 434 170 434 170 415 170 c 0,30,31
 365 170 365 170 330 201.5 c 128,-1,32
 295 233 295 233 295 277 c 0,33,34
 295 322 295 322 330 353.5 c 128,-1,35
 365 385 365 385 415 385 c 0,36,37
 434 385 434 385 450.5 381 c 128,-1,38
 467 377 467 377 480 370 c 1,39,-1
 480 320 l 1,40,41
 460 327 460 327 443.5 331 c 128,-1,42
 427 335 427 335 415 335 c 0,43,44
 386 335 386 335 365.5 318 c 128,-1,45
 345 301 345 301 345 277 c 256,46,47
 345 253 345 253 365.5 236.5 c 128,-1,48
 386 220 386 220 415 220 c 0,49,50
 431 220 431 220 451.5 230.5 c 128,-1,51
 472 241 472 241 495 260 c 1,52,-1
 495 455 l 1,53,-1
 220 455 l 1,54,-1
 220 345 l 2,55,56
 220 297 220 297 193.5 263.5 c 128,-1,57
 167 230 167 230 130 230 c 0,58,59
 123 230 123 230 116.5 231.5 c 128,-1,60
 110 233 110 233 105 235 c 1,61,62
 136 149 136 149 191 97 c 128,-1,63
 246 45 246 45 305 45 c 1,64,-1
 305 45 l 1,23,24
EndSplineSet
EndChar
StartChar: u0917
Encoding: 2327 2327 38
Width: 389
GlyphClass: 2
Flags: W
Fore
-10 455 m 1,0,-1
 -10 500 l 1,1,-1
 399 500 l 1,2,-1
 399 455 l 1,3,-1
 314 455 l 1,4,-1
 314 0 l 1,5,-1
 264 0 l 1,6,-1
 264 455 l 1,7,-1
 139 455 l 1,8,-1
 139 210 l 2,9,10
 139 198 139 198 131.5 189 c 128,-1,11
 124 180 124 180 114 180 c 0,12,13
 95 180 95 180 54.5 227 c 128,-1,14
 14 274 14 274 14 295 c 0,15,16
 14 303 14 303 20 309 c 128,-1,17
 26 315 26 315 34 315 c 2,18,-1
 69 315 l 2,19,20
 77 315 77 315 83 322.5 c 128,-1,21
 89 330 89 330 89 340 c 2,22,-1
 89 455 l 1,23,-1
 -10 455 l 1,24,-1
 -10 455 l 1,0,-1
EndSplineSet
EndChar
StartChar: u0918
Encoding: 2328 2328 39
Width: 478
GlyphClass: 2
Flags: W
Fore
-10 455 m 1,0,-1
 -10 500 l 1,1,-1
 488 500 l 1,2,-1
 488 455 l 1,3,-1
 403 455 l 1,4,-1
 403 0 l 1,5,-1
 353 0 l 1,6,-1
 353 160 l 1,7,8
 317 124 317 124 276.5 104.5 c 128,-1,9
 236 85 236 85 198 85 c 0,10,11
 138 85 138 85 95.5 121.5 c 128,-1,12
 53 158 53 158 53 210 c 0,13,14
 53 237 53 237 67.5 261 c 128,-1,15
 82 285 82 285 108 300 c 1,16,17
 76 311 76 311 57 337.5 c 128,-1,18
 38 364 38 364 38 395 c 0,19,20
 38 410 38 410 44.5 425.5 c 128,-1,21
 51 441 51 441 63 455 c 1,22,-1
 -10 455 l 1,23,-1
 -10 455 l 1,0,-1
198 135 m 1,24,25
 236 135 236 135 276.5 158.5 c 128,-1,26
 317 182 317 182 353 225 c 1,27,-1
 353 455 l 1,28,-1
 123 455 l 1,29,30
 107 446 107 446 97.5 429.5 c 128,-1,31
 88 413 88 413 88 395 c 0,32,33
 88 368 88 368 113 349 c 128,-1,34
 138 330 138 330 173 330 c 2,35,-1
 238 330 l 1,36,-1
 253 285 l 1,37,-1
 208 285 l 2,38,39
 165 285 165 285 134 263 c 128,-1,40
 103 241 103 241 103 210 c 256,41,42
 103 179 103 179 131 157 c 128,-1,43
 159 135 159 135 198 135 c 1,44,-1
 198 135 l 1,24,25
EndSplineSet
PairPos: 0 0 'blwm' u093C dx=0 dy=0 dh=0 dv=0 dx=106 dy=32 dh=0 dv=0
EndChar
StartChar: u0919
Encoding: 2329 2329 40
Width: 539
GlyphClass: 2
Flags: W
AnchorPoint: "Anchor-3" 296 38 basechar 0
AnchorPoint: "Anchor-0" 376 476 basechar 0
Fore
-10 455 m 1,0,-1
 -10 500 l 1,1,-1
 549 500 l 1,2,-1
 549 455 l 1,3,-1
 398 455 l 1,4,-1
 398 330 l 1,5,-1
 228 330 l 2,6,7
 218 330 218 330 210.5 324 c 128,-1,8
 203 318 203 318 203 310 c 0,9,10
 203 289 203 289 231 257 c 128,-1,11
 259 225 259 225 278 225 c 0,12,13
 295 225 295 225 325.5 237.5 c 128,-1,14
 356 250 356 250 373 250 c 0,15,16
 404 250 404 250 426 226.5 c 128,-1,17
 448 203 448 203 448 170 c 0,18,19
 448 104 448 104 404 57 c 128,-1,20
 360 10 360 10 298 10 c 0,21,22
 226 10 226 10 149.5 70.5 c 128,-1,23
 73 131 73 131 13 235 c 1,24,-1
 53 265 l 1,25,26
 108 170 108 170 173.5 115 c 128,-1,27
 239 60 239 60 298 60 c 0,28,29
 339 60 339 60 368.5 92 c 128,-1,30
 398 124 398 124 398 170 c 0,31,32
 398 182 398 182 390.5 191 c 128,-1,33
 383 200 383 200 373 200 c 0,34,35
 356 200 356 200 325.5 187.5 c 128,-1,36
 295 175 295 175 278 175 c 0,37,38
 247 175 247 175 200 226 c 128,-1,39
 153 277 153 277 153 310 c 0,40,41
 153 337 153 337 175 356 c 128,-1,42
 197 375 197 375 228 375 c 2,43,-1
 348 375 l 1,44,-1
 348 455 l 1,45,-1
 -10 455 l 1,46,-1
 -10 455 l 1,0,-1
490 250 m 1,47,48
 475 250 475 250 464 260.5 c 128,-1,49
 453 271 453 271 453 285 c 256,50,51
 453 299 453 299 464 309.5 c 128,-1,52
 475 320 475 320 490 320 c 0,53,54
 506 320 506 320 517 309.5 c 128,-1,55
 528 299 528 299 528 285 c 256,56,57
 528 271 528 271 517 260.5 c 128,-1,58
 506 250 506 250 490 250 c 1,59,-1
 490 250 l 1,47,48
EndSplineSet
PairPos: 0 0 'blwm' u093C dx=0 dy=0 dh=0 dv=0 dx=152 dy=-38 dh=0 dv=0
EndChar
StartChar: u091A
Encoding: 2330 2330 41
Width: 479
GlyphClass: 2
Flags: W
Fore
-10 455 m 1,0,-1
 -10 500 l 1,1,-1
 489 500 l 1,2,-1
 489 455 l 1,3,-1
 404 455 l 1,4,-1
 404 0 l 1,5,-1
 354 0 l 1,6,-1
 354 180 l 1,7,8
 324 138 324 138 288.5 114 c 128,-1,9
 253 90 253 90 219 90 c 0,10,11
 169 90 169 90 134 125 c 128,-1,12
 99 160 99 160 99 210 c 0,13,14
 99 246 99 246 113.5 275.5 c 128,-1,15
 128 305 128 305 154 320 c 1,16,-1
 9 320 l 1,17,-1
 9 370 l 1,18,-1
 304 370 l 1,19,-1
 304 320 l 1,20,-1
 234 320 l 1,21,22
 196 306 196 306 172.5 276 c 128,-1,23
 149 246 149 246 149 210 c 0,24,25
 149 181 149 181 169.5 160.5 c 128,-1,26
 190 140 190 140 219 140 c 0,27,28
 251 140 251 140 287 171 c 128,-1,29
 323 202 323 202 354 255 c 1,30,-1
 354 455 l 1,31,-1
 -10 455 l 1,32,-1
 -10 455 l 1,0,-1
EndSplineSet
PairPos: 0 0 'blwm' u093C dx=0 dy=0 dh=0 dv=0 dx=38 dy=64 dh=0 dv=0
EndChar
StartChar: u091B
Encoding: 2331 2331 42
Width: 533
GlyphClass: 2
Flags: W
AnchorPoint: "Anchor-3" 242 46 basechar 0
Fore
233 25 m 1,0,1
 163 25 163 25 113 66 c 128,-1,2
 63 107 63 107 63 165 c 0,3,4
 63 201 63 201 77.5 231.5 c 128,-1,5
 92 262 92 262 118 280 c 1,6,7
 81 297 81 297 59.5 324 c 128,-1,8
 38 351 38 351 38 380 c 0,9,10
 38 405 38 405 46 425 c 128,-1,11
 54 445 54 445 68 455 c 1,12,-1
 -10 455 l 1,13,-1
 -10 500 l 1,14,-1
 543 500 l 1,15,-1
 543 455 l 1,16,-1
 418 455 l 1,17,-1
 418 380 l 1,18,19
 455 373 455 373 479 343.5 c 128,-1,20
 503 314 503 314 503 275 c 0,21,22
 503 187 503 187 415.5 106 c 128,-1,23
 328 25 328 25 233 25 c 1,24,-1
 233 25 l 1,0,1
233 75 m 1,25,26
 265 75 265 75 297 88 c 128,-1,27
 329 101 329 101 358 125 c 1,28,29
 324 159 324 159 306 196.5 c 128,-1,30
 288 234 288 234 288 270 c 0,31,32
 288 312 288 312 310.5 343 c 128,-1,33
 333 374 333 374 368 380 c 1,34,-1
 368 455 l 1,35,-1
 128 455 l 1,36,37
 109 439 109 439 98.5 419.5 c 128,-1,38
 88 400 88 400 88 380 c 0,39,40
 88 351 88 351 114.5 330.5 c 128,-1,41
 141 310 141 310 178 310 c 2,42,-1
 233 310 l 1,43,-1
 233 260 l 1,44,-1
 193 260 l 2,45,46
 160 260 160 260 136.5 232 c 128,-1,47
 113 204 113 204 113 165 c 0,48,49
 113 128 113 128 148 101.5 c 128,-1,50
 183 75 183 75 233 75 c 1,51,-1
 233 75 l 1,25,26
393 165 m 1,52,53
 421 185 421 185 437 214 c 128,-1,54
 453 243 453 243 453 275 c 0,55,56
 453 298 453 298 435.5 314 c 128,-1,57
 418 330 418 330 393 330 c 0,58,59
 370 330 370 330 354 312.5 c 128,-1,60
 338 295 338 295 338 270 c 0,61,62
 338 239 338 239 352.5 211 c 128,-1,63
 367 183 367 183 393 165 c 1,64,-1
 393 165 l 1,52,53
EndSplineSet
PairPos: 0 0 'blwm' u093C dx=0 dy=0 dh=0 dv=0 dx=108 dy=-16 dh=0 dv=0
EndChar
StartChar: u091C
Encoding: 2332 2332 43
Width: 547
GlyphClass: 2
Flags: W
Fore
232 60 m 1,0,1
 178 60 178 60 119.5 132.5 c 128,-1,2
 61 205 61 205 17 325 c 1,3,-1
 62 345 l 1,4,5
 101 238 101 238 147.5 174 c 128,-1,6
 194 110 194 110 232 110 c 0,7,8
 257 110 257 110 274.5 129 c 128,-1,9
 292 148 292 148 292 175 c 0,10,11
 292 218 292 218 270 263.5 c 128,-1,12
 248 309 248 309 207 350 c 1,13,-1
 422 350 l 1,14,-1
 422 455 l 1,15,-1
 -10 455 l 1,16,-1
 -10 500 l 1,17,-1
 557 500 l 1,18,-1
 557 455 l 1,19,-1
 472 455 l 1,20,-1
 472 0 l 1,21,-1
 422 0 l 1,22,-1
 422 300 l 1,23,-1
 302 300 l 1,24,25
 322 272 322 272 332 240 c 128,-1,26
 342 208 342 208 342 175 c 0,27,28
 342 127 342 127 310 93.5 c 128,-1,29
 278 60 278 60 232 60 c 1,30,-1
 232 60 l 1,0,1
EndSplineSet
EndChar
StartChar: u091D
Encoding: 2333 2333 44
Width: 549
GlyphClass: 2
Flags: W
Fore
239 -35 m 1,0,1
 206 -20 206 -20 178.5 -1 c 128,-1,2
 151 18 151 18 129 40 c 1,3,4
 90 40 90 40 62 57.5 c 128,-1,5
 34 75 34 75 34 100 c 0,6,7
 34 117 34 117 45.5 128.5 c 128,-1,8
 57 140 57 140 74 140 c 0,9,10
 95 140 95 140 116.5 127 c 128,-1,11
 138 114 138 114 154 90 c 1,12,13
 197 98 197 98 225.5 124.5 c 128,-1,14
 254 151 254 151 254 185 c 0,15,16
 254 197 254 197 246.5 206 c 128,-1,17
 239 215 239 215 229 215 c 0,18,19
 214 215 214 215 186.5 205 c 128,-1,20
 159 195 159 195 144 195 c 0,21,22
 117 195 117 195 75.5 242 c 128,-1,23
 34 289 34 289 34 320 c 0,24,25
 34 347 34 347 56 366 c 128,-1,26
 78 385 78 385 109 385 c 2,27,-1
 234 385 l 1,28,-1
 234 455 l 1,29,-1
 -10 455 l 1,30,-1
 -10 500 l 1,31,-1
 559 500 l 1,32,-1
 559 455 l 1,33,-1
 474 455 l 1,34,-1
 474 0 l 1,35,-1
 424 0 l 1,36,-1
 424 200 l 1,37,38
 408 193 408 193 391.5 189 c 128,-1,39
 375 185 375 185 359 185 c 0,40,41
 345 185 345 185 331.5 187.5 c 128,-1,42
 318 190 318 190 304 195 c 1,43,44
 304 139 304 139 271 102 c 128,-1,45
 238 65 238 65 179 55 c 1,46,47
 204 34 204 34 225.5 20 c 128,-1,48
 247 6 247 6 264 0 c 1,49,-1
 239 -35 l 1,50,-1
 239 -35 l 1,0,1
359 230 m 1,51,52
 370 230 370 230 386.5 235 c 128,-1,53
 403 240 403 240 424 250 c 1,54,-1
 424 455 l 1,55,-1
 284 455 l 1,56,-1
 284 335 l 1,57,-1
 109 335 l 2,58,59
 99 335 99 335 91.5 330.5 c 128,-1,60
 84 326 84 326 84 320 c 0,61,62
 84 301 84 301 106.5 273 c 128,-1,63
 129 245 129 245 144 245 c 256,64,65
 159 245 159 245 186.5 255 c 128,-1,66
 214 265 214 265 229 265 c 0,67,68
 243 265 243 265 256 261 c 128,-1,69
 269 257 269 257 279 250 c 0,70,71
 293 240 293 240 313.5 235 c 128,-1,72
 334 230 334 230 359 230 c 1,73,-1
 359 230 l 1,51,52
EndSplineSet
PairPos: 0 0 'blwm' u093C dx=0 dy=0 dh=0 dv=0 dx=-64 dy=-12 dh=0 dv=0
EndChar
StartChar: u091E
Encoding: 2334 2334 45
Width: 554
GlyphClass: 2
Flags: W
Fore
164 90 m 1,0,1
 125 90 125 90 85 115 c 128,-1,2
 45 140 45 140 14 185 c 1,3,-1
 49 220 l 1,4,5
 70 183 70 183 101 161.5 c 128,-1,6
 132 140 132 140 164 140 c 0,7,8
 203 140 203 140 231 169.5 c 128,-1,9
 259 199 259 199 259 240 c 0,10,11
 259 275 259 275 235.5 300 c 128,-1,12
 212 325 212 325 179 325 c 0,13,14
 155 325 155 325 132.5 314.5 c 128,-1,15
 110 304 110 304 94 285 c 1,16,-1
 59 325 l 1,17,18
 83 349 83 349 114 362 c 128,-1,19
 145 375 145 375 179 375 c 0,20,21
 224 375 224 375 260.5 345.5 c 128,-1,22
 297 316 297 316 309 270 c 1,23,24
 315 263 315 263 328 259 c 128,-1,25
 341 255 341 255 359 255 c 0,26,27
 381 255 381 255 399 260 c 128,-1,28
 417 265 417 265 429 275 c 1,29,-1
 429 455 l 1,30,-1
 -10 455 l 1,31,-1
 -10 500 l 1,32,-1
 564 500 l 1,33,-1
 564 455 l 1,34,-1
 479 455 l 1,35,-1
 479 0 l 1,36,-1
 429 0 l 1,37,-1
 429 220 l 1,38,39
 409 213 409 213 391 209 c 128,-1,40
 373 205 373 205 359 205 c 0,41,42
 347 205 347 205 334.5 209 c 128,-1,43
 322 213 322 213 309 220 c 1,44,45
 299 164 299 164 258 127 c 128,-1,46
 217 90 217 90 164 90 c 1,47,-1
 164 90 l 1,0,1
EndSplineSet
PairPos: 0 0 'blwm' u093C dx=0 dy=0 dh=0 dv=0 dx=18 dy=32 dh=0 dv=0
EndChar
StartChar: u091F
Encoding: 2335 2335 46
Width: 425
GlyphClass: 2
Flags: W
AnchorPoint: "Anchor-3" 244 34 basechar 0
Fore
244 10 m 1,0,1
 157 10 157 10 95.5 71.5 c 128,-1,2
 34 133 34 133 34 220 c 0,3,4
 34 276 34 276 69 315.5 c 128,-1,5
 104 355 104 355 154 355 c 2,6,-1
 289 355 l 1,7,-1
 289 455 l 1,8,-1
 -10 455 l 1,9,-1
 -10 500 l 1,10,-1
 435 500 l 1,11,-1
 435 455 l 1,12,-1
 339 455 l 1,13,-1
 339 305 l 1,14,-1
 154 305 l 2,15,16
 125 305 125 305 104.5 280 c 128,-1,17
 84 255 84 255 84 220 c 0,18,19
 84 154 84 154 131 107 c 128,-1,20
 178 60 178 60 244 60 c 0,21,22
 286 60 286 60 320.5 79 c 128,-1,23
 355 98 355 98 374 130 c 1,24,-1
 414 95 l 1,25,26
 391 56 391 56 345.5 33 c 128,-1,27
 300 10 300 10 244 10 c 1,28,-1
 244 10 l 1,0,1
EndSplineSet
PairPos: 0 0 'blwm' u093C dx=0 dy=0 dh=0 dv=0 dx=210 dy=-44 dh=0 dv=0
EndChar
StartChar: u0920
Encoding: 2336 2336 47
Width: 436
GlyphClass: 2
Flags: W
AnchorPoint: "Anchor-3" 238 30 basechar 0
Fore
243 5 m 1,0,1
 165 5 165 5 99 72.5 c 128,-1,2
 33 140 33 140 33 220 c 0,3,4
 33 278 33 278 71 319 c 128,-1,5
 109 360 109 360 163 360 c 2,6,-1
 288 360 l 1,7,-1
 288 455 l 1,8,-1
 -10 455 l 1,9,-1
 -10 500 l 1,10,-1
 446 500 l 1,11,-1
 446 455 l 1,12,-1
 338 455 l 1,13,-1
 338 310 l 1,14,-1
 163 310 l 2,15,16
 130 310 130 310 106.5 283.5 c 128,-1,17
 83 257 83 257 83 220 c 0,18,19
 83 159 83 159 133.5 107 c 128,-1,20
 184 55 184 55 243 55 c 0,21,22
 286 55 286 55 317 87 c 128,-1,23
 348 119 348 119 348 165 c 0,24,25
 348 193 348 193 332.5 222 c 128,-1,26
 317 251 317 251 288 275 c 1,27,-1
 328 305 l 1,28,29
 361 277 361 277 379.5 240.5 c 128,-1,30
 398 204 398 204 398 165 c 0,31,32
 398 99 398 99 352.5 52 c 128,-1,33
 307 5 307 5 243 5 c 1,34,-1
 243 5 l 1,0,1
EndSplineSet
PairPos: 0 0 'blwm' u093C dx=0 dy=0 dh=0 dv=0 dx=186 dy=-30 dh=0 dv=0
EndChar
StartChar: u0921
Encoding: 2337 2337 48
Width: 474
GlyphClass: 2
Flags: W
AnchorPoint: "Anchor-3" 284 34 basechar 0
Fore
289 10 m 1,0,1
 210 10 210 10 135.5 69.5 c 128,-1,2
 61 129 61 129 14 230 c 1,3,-1
 54 255 l 1,4,5
 96 166 96 166 159.5 113 c 128,-1,6
 223 60 223 60 289 60 c 0,7,8
 330 60 330 60 359.5 91 c 128,-1,9
 389 122 389 122 389 165 c 0,10,11
 389 177 389 177 381.5 186 c 128,-1,12
 374 195 374 195 364 195 c 0,13,14
 348 195 348 195 319 185 c 128,-1,15
 290 175 290 175 274 175 c 0,16,17
 236 175 236 175 190 223 c 128,-1,18
 144 271 144 271 144 310 c 0,19,20
 144 337 144 337 163 356 c 128,-1,21
 182 375 182 375 209 375 c 2,22,-1
 344 375 l 1,23,-1
 344 455 l 1,24,-1
 -10 455 l 1,25,-1
 -10 500 l 1,26,-1
 484 500 l 1,27,-1
 484 455 l 1,28,-1
 394 455 l 1,29,-1
 394 325 l 1,30,-1
 209 325 l 2,31,32
 203 325 203 325 198.5 320.5 c 128,-1,33
 194 316 194 316 194 310 c 0,34,35
 194 289 194 289 224 257 c 128,-1,36
 254 225 254 225 274 225 c 0,37,38
 290 225 290 225 319 235 c 128,-1,39
 348 245 348 245 364 245 c 0,40,41
 395 245 395 245 417 221.5 c 128,-1,42
 439 198 439 198 439 165 c 0,43,44
 439 101 439 101 395 55.5 c 128,-1,45
 351 10 351 10 289 10 c 1,46,-1
 289 10 l 1,0,1
EndSplineSet
EndChar
StartChar: u0922
Encoding: 2338 2338 49
Width: 435
GlyphClass: 2
Flags: W
AnchorPoint: "Anchor-3" 250 36 basechar 0
Fore
-10 455 m 1,0,-1
 -10 500 l 1,1,-1
 445 500 l 1,2,-1
 445 455 l 1,3,-1
 342 455 l 1,4,-1
 342 305 l 1,5,-1
 147 305 l 2,6,7
 120 305 120 305 101 281.5 c 128,-1,8
 82 258 82 258 82 225 c 0,9,10
 82 167 82 167 134 113.5 c 128,-1,11
 186 60 186 60 247 55 c 1,12,13
 230 69 230 69 221 91.5 c 128,-1,14
 212 114 212 114 212 140 c 0,15,16
 212 179 212 179 240 207 c 128,-1,17
 268 235 268 235 307 235 c 0,18,19
 348 235 348 235 377.5 205.5 c 128,-1,20
 407 176 407 176 407 135 c 0,21,22
 407 83 407 83 360 46.5 c 128,-1,23
 313 10 313 10 247 10 c 0,24,25
 167 10 167 10 99.5 77.5 c 128,-1,26
 32 145 32 145 32 225 c 0,27,28
 32 279 32 279 65.5 317 c 128,-1,29
 99 355 99 355 147 355 c 2,30,-1
 292 355 l 1,31,-1
 292 455 l 1,32,-1
 -10 455 l 1,33,-1
 -10 455 l 1,0,-1
297 60 m 1,34,35
 323 65 323 65 340 86 c 128,-1,36
 357 107 357 107 357 135 c 0,37,38
 357 156 357 156 342.5 170.5 c 128,-1,39
 328 185 328 185 307 185 c 0,40,41
 288 185 288 185 275 172 c 128,-1,42
 262 159 262 159 262 140 c 0,43,44
 262 116 262 116 271 95 c 128,-1,45
 280 74 280 74 297 60 c 1,46,-1
 297 60 l 1,34,35
EndSplineSet
EndChar
StartChar: u0923
Encoding: 2339 2339 50
Width: 503
GlyphClass: 2
Flags: W
AnchorPoint: "Anchor-3" 398 22 basechar 0
Fore
168 120 m 1,0,1
 118 120 118 120 83 156.5 c 128,-1,2
 48 193 48 193 48 245 c 2,3,-1
 48 455 l 1,4,-1
 -10 455 l 1,5,-1
 -10 500 l 1,6,-1
 513 500 l 1,7,-1
 513 455 l 1,8,-1
 428 455 l 1,9,-1
 428 0 l 1,10,-1
 378 0 l 1,11,-1
 378 455 l 1,12,-1
 283 455 l 1,13,-1
 283 245 l 2,14,15
 283 193 283 193 249 156.5 c 128,-1,16
 215 120 215 120 168 120 c 1,17,-1
 168 120 l 1,0,1
168 170 m 1,18,19
 195 170 195 170 214 192 c 128,-1,20
 233 214 233 214 233 245 c 2,21,-1
 233 455 l 1,22,-1
 98 455 l 1,23,-1
 98 245 l 2,24,25
 98 214 98 214 118.5 192 c 128,-1,26
 139 170 139 170 168 170 c 1,27,-1
 168 170 l 1,18,19
EndSplineSet
PairPos: 0 0 'blwm' u093C dx=0 dy=0 dh=0 dv=0 dx=42 dy=70 dh=0 dv=0
EndChar
StartChar: u0924
Encoding: 2340 2340 51
Width: 457
GlyphClass: 2
Flags: W
Fore
32 245 m 1,0,1
 32 293 32 293 63 326.5 c 128,-1,2
 94 360 94 360 137 360 c 2,3,-1
 332 360 l 1,4,-1
 332 455 l 1,5,-1
 -10 455 l 1,6,-1
 -10 500 l 1,7,-1
 467 500 l 1,8,-1
 467 455 l 1,9,-1
 382 455 l 1,10,-1
 382 0 l 1,11,-1
 332 0 l 1,12,-1
 332 310 l 1,13,-1
 137 310 l 2,14,15
 114 310 114 310 98 291 c 128,-1,16
 82 272 82 272 82 245 c 0,17,18
 82 197 82 197 116 142 c 128,-1,19
 150 87 150 87 212 35 c 1,20,-1
 182 0 l 1,21,22
 111 60 111 60 71.5 124 c 128,-1,23
 32 188 32 188 32 245 c 1,24,-1
 32 245 l 1,0,1
EndSplineSet
PairPos: 0 0 'blwm' u093C dx=0 dy=0 dh=0 dv=0 dx=-18 dy=70 dh=0 dv=0
EndChar
StartChar: u0925
Encoding: 2341 2341 52
Width: 515
GlyphClass: 2
Flags: W
Fore
225 100 m 1,0,1
 154 100 154 100 98.5 149.5 c 128,-1,2
 43 199 43 199 30 275 c 1,3,4
 38 272 38 272 55 271 c 128,-1,5
 72 270 72 270 105 270 c 0,6,7
 159 270 159 270 197 301 c 128,-1,8
 235 332 235 332 235 375 c 0,9,10
 235 412 235 412 211.5 438.5 c 128,-1,11
 188 465 188 465 155 465 c 0,12,13
 126 465 126 465 105.5 449 c 128,-1,14
 85 433 85 433 85 410 c 0,15,16
 85 391 85 391 102.5 378 c 128,-1,17
 120 365 120 365 145 365 c 1,18,-1
 145 315 l 1,19,20
 95 315 95 315 65 341 c 128,-1,21
 35 367 35 367 35 410 c 256,22,23
 35 453 35 453 70 484 c 128,-1,24
 105 515 105 515 155 515 c 0,25,26
 209 515 209 515 247 474 c 128,-1,27
 285 433 285 433 285 375 c 0,28,29
 285 311 285 311 231 265.5 c 128,-1,30
 177 220 177 220 100 220 c 1,31,32
 115 188 115 188 149 169 c 128,-1,33
 183 150 183 150 225 150 c 0,34,35
 266 150 266 150 309 175 c 128,-1,36
 352 200 352 200 390 245 c 1,37,-1
 390 455 l 1,38,-1
 340 455 l 1,39,-1
 340 500 l 1,40,-1
 525 500 l 1,41,-1
 525 455 l 1,42,-1
 440 455 l 1,43,-1
 440 0 l 1,44,-1
 390 0 l 1,45,-1
 390 180 l 1,46,47
 352 142 352 142 309 121 c 128,-1,48
 266 100 266 100 225 100 c 1,49,-1
 225 100 l 1,0,1
EndSplineSet
PairPos: 0 0 'blwm' u093C dx=0 dy=0 dh=0 dv=0 dx=-20 dy=78 dh=0 dv=0
EndChar
StartChar: u0926
Encoding: 2342 2342 53
Width: 413
GlyphClass: 2
Flags: W
AnchorPoint: "Anchor-3" 350 6 basechar 0
Fore
-10 455 m 1,0,-1
 -10 500 l 1,1,-1
 423 500 l 1,2,-1
 423 455 l 1,3,-1
 343 455 l 1,4,-1
 343 325 l 1,5,-1
 148 325 l 2,6,7
 119 325 119 325 98.5 304.5 c 128,-1,8
 78 284 78 284 78 255 c 0,9,10
 78 201 78 201 135 163 c 128,-1,11
 192 125 192 125 273 125 c 1,12,13
 273 160 273 160 289 185 c 128,-1,14
 305 210 305 210 328 210 c 0,15,16
 345 210 345 210 356.5 198.5 c 128,-1,17
 368 187 368 187 368 170 c 0,18,19
 368 150 368 150 356 130 c 128,-1,20
 344 110 344 110 323 95 c 1,21,-1
 378 0 l 1,22,-1
 333 -20 l 1,23,-1
 278 80 l 1,24,25
 174 80 174 80 101 131.5 c 128,-1,26
 28 183 28 183 28 255 c 0,27,28
 28 305 28 305 63 340 c 128,-1,29
 98 375 98 375 148 375 c 2,30,-1
 293 375 l 1,31,-1
 293 455 l 1,32,-1
 -10 455 l 1,33,-1
 -10 455 l 1,0,-1
EndSplineSet
PairPos: 0 0 'blwm' u093C dx=0 dy=0 dh=0 dv=0 dx=46 dy=72 dh=0 dv=0
EndChar
StartChar: u0927
Encoding: 2343 2343 54
Width: 487
GlyphClass: 2
Flags: W
Fore
207 85 m 1,0,1
 151 85 151 85 111.5 116 c 128,-1,2
 72 147 72 147 72 190 c 0,3,4
 72 217 72 217 82.5 239.5 c 128,-1,5
 93 262 93 262 112 275 c 1,6,7
 72 303 72 303 49.5 339 c 128,-1,8
 27 375 27 375 27 410 c 0,9,10
 27 453 27 453 56.5 484 c 128,-1,11
 86 515 86 515 127 515 c 0,12,13
 170 515 170 515 196 492 c 128,-1,14
 222 469 222 469 222 430 c 0,15,16
 222 397 222 397 195.5 373.5 c 128,-1,17
 169 350 169 350 132 350 c 1,18,-1
 132 400 l 1,19,20
 149 400 149 400 160.5 409 c 128,-1,21
 172 418 172 418 172 430 c 0,22,23
 172 444 172 444 159 454.5 c 128,-1,24
 146 465 146 465 127 465 c 0,25,26
 106 465 106 465 91.5 449 c 128,-1,27
 77 433 77 433 77 410 c 0,28,29
 77 381 77 381 97 353 c 128,-1,30
 117 325 117 325 152 305 c 1,31,32
 168 312 168 312 187 316 c 128,-1,33
 206 320 206 320 227 320 c 2,34,-1
 257 320 l 1,35,-1
 287 270 l 1,36,-1
 232 270 l 2,37,38
 186 270 186 270 154 246.5 c 128,-1,39
 122 223 122 223 122 190 c 0,40,41
 122 167 122 167 147 151 c 128,-1,42
 172 135 172 135 207 135 c 0,43,44
 247 135 247 135 288 161.5 c 128,-1,45
 329 188 329 188 362 235 c 1,46,-1
 362 455 l 1,47,-1
 252 455 l 1,48,-1
 252 500 l 1,49,-1
 497 500 l 1,50,-1
 497 455 l 1,51,-1
 412 455 l 1,52,-1
 412 0 l 1,53,-1
 362 0 l 1,54,-1
 362 165 l 1,55,56
 330 127 330 127 289.5 106 c 128,-1,57
 249 85 249 85 207 85 c 1,58,-1
 207 85 l 1,0,1
EndSplineSet
PairPos: 0 0 'blwm' u093C dx=0 dy=0 dh=0 dv=0 dx=-28 dy=68 dh=0 dv=0
EndChar
StartChar: u0928
Encoding: 2344 2344 55
Width: 440
GlyphClass: 2
Flags: W
Fore
15 300 m 1,0,1
 15 310 15 310 25.5 317.5 c 128,-1,2
 36 325 36 325 50 325 c 2,3,-1
 315 325 l 1,4,-1
 315 455 l 1,5,-1
 -10 455 l 1,6,-1
 -10 500 l 1,7,-1
 450 500 l 1,8,-1
 450 455 l 1,9,-1
 365 455 l 1,10,-1
 365 0 l 1,11,-1
 315 0 l 1,12,-1
 315 275 l 1,13,-1
 170 275 l 2,14,15
 158 275 158 275 149 269 c 128,-1,16
 140 263 140 263 140 255 c 2,17,-1
 140 205 l 2,18,19
 140 193 140 193 132.5 184 c 128,-1,20
 125 175 125 175 115 175 c 0,21,22
 98 175 98 175 56.5 227 c 128,-1,23
 15 279 15 279 15 300 c 1,24,-1
 15 300 l 1,0,1
EndSplineSet
EndChar
StartChar: u0929
Encoding: 2345 2345 56
Width: 440
GlyphClass: 2
Flags: W
Fore
15 300 m 1,0,1
 15 310 15 310 25.5 317.5 c 128,-1,2
 36 325 36 325 50 325 c 2,3,-1
 315 325 l 1,4,-1
 315 455 l 1,5,-1
 -10 455 l 1,6,-1
 -10 500 l 1,7,-1
 450 500 l 1,8,-1
 450 455 l 1,9,-1
 365 455 l 1,10,-1
 365 0 l 1,11,-1
 315 0 l 1,12,-1
 315 275 l 1,13,-1
 170 275 l 2,14,15
 158 275 158 275 149 269 c 128,-1,16
 140 263 140 263 140 255 c 2,17,-1
 140 205 l 2,18,19
 140 193 140 193 132.5 184 c 128,-1,20
 125 175 125 175 115 175 c 0,21,22
 98 175 98 175 56.5 227 c 128,-1,23
 15 279 15 279 15 300 c 1,24,-1
 15 300 l 1,0,1
170 -5 m 1,25,-1
 130 30 l 1,26,-1
 170 70 l 1,27,-1
 210 30 l 1,28,-1
 170 -5 l 1,29,-1
 170 -5 l 1,25,-1
EndSplineSet
Ligature: 0 0 'nukt' u0928 u093C
EndChar
StartChar: u092A
Encoding: 2346 2346 57
Width: 403
GlyphClass: 2
Flags: W
Fore
43 275 m 1,0,-1
 43 455 l 1,1,-1
 -10 455 l 1,2,-1
 -10 500 l 1,3,-1
 413 500 l 1,4,-1
 413 455 l 1,5,-1
 328 455 l 1,6,-1
 328 0 l 1,7,-1
 278 0 l 1,8,-1
 278 190 l 1,9,10
 256 168 256 168 230 156.5 c 128,-1,11
 204 145 204 145 178 145 c 0,12,13
 122 145 122 145 82.5 183 c 128,-1,14
 43 221 43 221 43 275 c 1,15,-1
 43 275 l 1,0,-1
178 195 m 1,16,17
 209 195 209 195 236 214 c 128,-1,18
 263 233 263 233 278 265 c 1,19,-1
 278 455 l 1,20,-1
 93 455 l 1,21,-1
 93 275 l 2,22,23
 93 242 93 242 118 218.5 c 128,-1,24
 143 195 143 195 178 195 c 1,25,-1
 178 195 l 1,16,17
EndSplineSet
PairPos: 0 0 'blwm' u093C dx=0 dy=0 dh=0 dv=0 dx=116 dy=84 dh=0 dv=0
EndChar
StartChar: u092B
Encoding: 2347 2347 58
Width: 582
GlyphClass: 2
Flags: W
AnchorPoint: "Anchor-3" 294 18 basechar 0
AnchorPoint: "Anchor-0" 290 474 basechar 0
Fore
41 280 m 1,0,-1
 41 455 l 1,1,-1
 -10 455 l 1,2,-1
 -10 500 l 1,3,-1
 592 500 l 1,4,-1
 592 455 l 1,5,-1
 316 455 l 1,6,-1
 316 315 l 1,7,8
 336 339 336 339 363.5 352 c 128,-1,9
 391 365 391 365 421 365 c 0,10,11
 473 365 473 365 509.5 324 c 128,-1,12
 546 283 546 283 546 225 c 0,13,14
 546 180 546 180 529 136.5 c 128,-1,15
 512 93 512 93 481 55 c 1,16,-1
 436 80 l 1,17,18
 465 109 465 109 480.5 146.5 c 128,-1,19
 496 184 496 184 496 225 c 0,20,21
 496 262 496 262 474 288.5 c 128,-1,22
 452 315 452 315 421 315 c 0,23,24
 395 315 395 315 367.5 299.5 c 128,-1,25
 340 284 340 284 316 255 c 1,26,-1
 316 0 l 1,27,-1
 266 0 l 1,28,-1
 266 200 l 1,29,30
 247 181 247 181 221 170.5 c 128,-1,31
 195 160 195 160 166 160 c 0,32,33
 114 160 114 160 77.5 195 c 128,-1,34
 41 230 41 230 41 280 c 1,35,-1
 41 280 l 1,0,-1
166 210 m 1,36,37
 195 210 195 210 221.5 224.5 c 128,-1,38
 248 239 248 239 266 265 c 1,39,-1
 266 455 l 1,40,-1
 91 455 l 1,41,-1
 91 280 l 2,42,43
 91 251 91 251 113 230.5 c 128,-1,44
 135 210 135 210 166 210 c 1,45,-1
 166 210 l 1,36,37
EndSplineSet
EndChar
StartChar: u092C
Encoding: 2348 2348 59
Width: 404
GlyphClass: 2
Flags: W
Fore
29 240 m 1,0,1
 29 300 29 300 73 342.5 c 128,-1,2
 117 385 117 385 179 385 c 0,3,4
 198 385 198 385 214.5 381 c 128,-1,5
 231 377 231 377 244 370 c 1,6,-1
 229 330 l 1,7,8
 218 335 218 335 205.5 337.5 c 128,-1,9
 193 340 193 340 179 340 c 0,10,11
 157 340 157 340 141.5 334.5 c 128,-1,12
 126 329 126 329 119 320 c 1,13,-1
 264 210 l 1,14,-1
 279 230 l 1,15,-1
 279 455 l 1,16,-1
 -10 455 l 1,17,-1
 -10 500 l 1,18,-1
 414 500 l 1,19,-1
 414 455 l 1,20,-1
 329 455 l 1,21,-1
 329 0 l 1,22,-1
 279 0 l 1,23,-1
 279 160 l 1,24,25
 255 136 255 136 226.5 123 c 128,-1,26
 198 110 198 110 169 110 c 0,27,28
 111 110 111 110 70 148 c 128,-1,29
 29 186 29 186 29 240 c 1,30,-1
 29 240 l 1,0,1
169 160 m 1,31,32
 187 160 187 160 202 165 c 128,-1,33
 217 170 217 170 229 180 c 1,34,-1
 94 290 l 1,35,36
 87 281 87 281 83 268.5 c 128,-1,37
 79 256 79 256 79 240 c 0,38,39
 79 207 79 207 105.5 183.5 c 128,-1,40
 132 160 132 160 169 160 c 1,41,-1
 169 160 l 1,31,32
EndSplineSet
PairPos: 0 0 'blwm' u093C dx=0 dy=0 dh=0 dv=0 dx=70 dy=70 dh=0 dv=0
EndChar
StartChar: u092D
Encoding: 2349 2349 60
Width: 494
GlyphClass: 2
Flags: W
Fore
89 245 m 1,0,1
 89 253 89 253 96.5 259 c 128,-1,2
 104 265 104 265 114 265 c 2,3,-1
 154 265 l 1,4,-1
 154 410 l 2,5,6
 154 431 154 431 141 445.5 c 128,-1,7
 128 460 128 460 109 460 c 256,8,9
 90 460 90 460 77 449.5 c 128,-1,10
 64 439 64 439 64 425 c 0,11,12
 64 408 64 408 77 396.5 c 128,-1,13
 90 385 90 385 109 385 c 1,14,-1
 109 335 l 1,15,16
 70 335 70 335 42 361.5 c 128,-1,17
 14 388 14 388 14 425 c 0,18,19
 14 460 14 460 42 485 c 128,-1,20
 70 510 70 510 109 510 c 256,21,22
 148 510 148 510 176 480.5 c 128,-1,23
 204 451 204 451 204 410 c 2,24,-1
 204 265 l 1,25,-1
 369 265 l 1,26,-1
 369 455 l 1,27,-1
 239 455 l 1,28,-1
 239 500 l 1,29,-1
 504 500 l 1,30,-1
 504 455 l 1,31,-1
 419 455 l 1,32,-1
 419 0 l 1,33,-1
 369 0 l 1,34,-1
 369 215 l 1,35,-1
 204 215 l 1,36,-1
 204 175 l 2,37,38
 204 167 204 167 196.5 161 c 128,-1,39
 189 155 189 155 179 155 c 0,40,41
 164 155 164 155 126.5 192.5 c 128,-1,42
 89 230 89 230 89 245 c 1,43,-1
 89 245 l 1,0,1
EndSplineSet
PairPos: 0 0 'blwm' u093C dx=0 dy=0 dh=0 dv=0 dx=74 dy=84 dh=0 dv=0
EndChar
StartChar: u092E
Encoding: 2350 2350 61
Width: 435
GlyphClass: 2
Flags: W
Fore
-10 455 m 1,0,-1
 -10 500 l 1,1,-1
 445 500 l 1,2,-1
 445 455 l 1,3,-1
 360 455 l 1,4,-1
 360 0 l 1,5,-1
 310 0 l 1,6,-1
 310 240 l 1,7,-1
 130 240 l 1,8,-1
 130 205 l 2,9,10
 130 193 130 193 125.5 184 c 128,-1,11
 121 175 121 175 115 175 c 0,12,13
 98 175 98 175 56.5 212.5 c 128,-1,14
 15 250 15 250 15 265 c 0,15,16
 15 275 15 275 22.5 282.5 c 128,-1,17
 30 290 30 290 40 290 c 2,18,-1
 80 290 l 1,19,-1
 80 455 l 1,20,-1
 -10 455 l 1,21,-1
 -10 455 l 1,0,-1
130 290 m 1,22,-1
 310 290 l 1,23,-1
 310 455 l 1,24,-1
 130 455 l 1,25,-1
 130 290 l 1,26,-1
 130 290 l 1,22,-1
EndSplineSet
PairPos: 0 0 'blwm' u093C dx=0 dy=0 dh=0 dv=0 dx=66 dy=102 dh=0 dv=0
EndChar
StartChar: u092F
Encoding: 2351 2351 62
Width: 448
GlyphClass: 2
Flags: W
AnchorPoint: "Anchor-3" 350 20 basechar 0
Fore
-10 455 m 1,0,-1
 -10 500 l 1,1,-1
 458 500 l 1,2,-1
 458 455 l 1,3,-1
 373 455 l 1,4,-1
 373 0 l 1,5,-1
 323 0 l 1,6,-1
 323 155 l 1,7,8
 294 126 294 126 260.5 110.5 c 128,-1,9
 227 95 227 95 193 95 c 0,10,11
 121 95 121 95 69.5 147.5 c 128,-1,12
 18 200 18 200 18 275 c 1,13,14
 75 275 75 275 109 297 c 128,-1,15
 143 319 143 319 143 355 c 0,16,17
 143 379 143 379 130 405 c 128,-1,18
 117 431 117 431 93 455 c 1,19,-1
 -10 455 l 1,20,-1
 -10 455 l 1,0,-1
193 145 m 1,21,22
 232 145 232 145 267 166.5 c 128,-1,23
 302 188 302 188 323 225 c 1,24,-1
 323 455 l 1,25,-1
 153 455 l 1,26,27
 172 432 172 432 182.5 406 c 128,-1,28
 193 380 193 380 193 355 c 0,29,30
 193 312 193 312 159 278 c 128,-1,31
 125 244 125 244 73 235 c 1,32,33
 80 196 80 196 114 170.5 c 128,-1,34
 148 145 148 145 193 145 c 1,35,-1
 193 145 l 1,21,22
EndSplineSet
EndChar
StartChar: u0930
Encoding: 2352 2352 63
Width: 328
GlyphClass: 2
Flags: W
Fore
-10 455 m 1,0,-1
 -10 500 l 1,1,-1
 338 500 l 1,2,-1
 338 455 l 1,3,-1
 270 455 l 1,4,-1
 270 340 l 2,5,6
 270 294 270 294 239 262 c 128,-1,7
 208 230 208 230 165 230 c 0,8,9
 159 230 159 230 149 232.5 c 128,-1,10
 139 235 139 235 125 240 c 1,11,12
 157 184 157 184 201 132.5 c 128,-1,13
 245 81 245 81 300 35 c 1,14,-1
 270 0 l 1,15,16
 190 67 190 67 125.5 152 c 128,-1,17
 61 237 61 237 15 335 c 1,18,-1
 60 360 l 1,19,20
 73 324 73 324 102 302 c 128,-1,21
 131 280 131 280 165 280 c 0,22,23
 188 280 188 280 204 297.5 c 128,-1,24
 220 315 220 315 220 340 c 2,25,-1
 220 455 l 1,26,-1
 -10 455 l 1,27,-1
 -10 455 l 1,0,-1
EndSplineSet
EndChar
StartChar: u0931
Encoding: 2353 2353 64
Width: 332
GlyphClass: 2
Flags: W
Fore
274 0 m 1,0,1
 194 67 194 67 129.5 152 c 128,-1,2
 65 237 65 237 19 335 c 1,3,-1
 64 370 l 1,4,5
 80 327 80 327 108.5 301 c 128,-1,6
 137 275 137 275 169 275 c 0,7,8
 192 275 192 275 208 294 c 128,-1,9
 224 313 224 313 224 340 c 2,10,-1
 224 455 l 1,11,-1
 -10 455 l 1,12,-1
 -10 500 l 1,13,-1
 342 500 l 1,14,-1
 342 455 l 1,15,-1
 274 455 l 1,16,-1
 274 340 l 2,17,18
 274 294 274 294 243 262 c 128,-1,19
 212 230 212 230 169 230 c 0,20,21
 163 230 163 230 153 232.5 c 128,-1,22
 143 235 143 235 129 240 c 1,23,24
 161 184 161 184 205 132.5 c 128,-1,25
 249 81 249 81 304 35 c 1,26,-1
 274 0 l 1,27,-1
 274 0 l 1,0,1
94 -5 m 1,28,-1
 54 30 l 1,29,-1
 94 70 l 1,30,-1
 134 30 l 1,31,-1
 94 -5 l 1,32,-1
 94 -5 l 1,28,-1
EndSplineSet
Ligature: 0 0 'nukt' u0930 u093C
EndChar
StartChar: u0932
Encoding: 2354 2354 65
Width: 546
GlyphClass: 2
Flags: W
Fore
-10 455 m 1,0,-1
 -10 500 l 1,1,-1
 556 500 l 1,2,-1
 556 455 l 1,3,-1
 471 455 l 1,4,-1
 471 0 l 1,5,-1
 421 0 l 1,6,-1
 421 300 l 1,7,8
 378 300 378 300 340.5 261 c 128,-1,9
 303 222 303 222 286 160 c 1,10,-1
 241 175 l 1,11,12
 245 199 245 199 253 218.5 c 128,-1,13
 261 238 261 238 271 250 c 1,14,15
 255 274 255 274 231 287 c 128,-1,16
 207 300 207 300 181 300 c 0,17,18
 140 300 140 300 110.5 270.5 c 128,-1,19
 81 241 81 241 81 200 c 0,20,21
 81 155 81 155 126.5 111 c 128,-1,22
 172 67 172 67 246 40 c 1,23,-1
 226 -5 l 1,24,25
 138 27 138 27 84.5 83.5 c 128,-1,26
 31 140 31 140 31 200 c 0,27,28
 31 262 31 262 75 306 c 128,-1,29
 119 350 119 350 181 350 c 0,30,31
 218 350 218 350 251 335.5 c 128,-1,32
 284 321 284 321 306 295 c 1,33,34
 328 321 328 321 358 335.5 c 128,-1,35
 388 350 388 350 421 350 c 1,36,-1
 421 455 l 1,37,-1
 -10 455 l 1,38,-1
 -10 455 l 1,0,-1
EndSplineSet
PairPos: 0 0 'blwm' u093C dx=0 dy=0 dh=0 dv=0 dx=-92 dy=64 dh=0 dv=0
EndChar
StartChar: u0933
Encoding: 2355 2355 66
Width: 552
GlyphClass: 2
Flags: W
AnchorPoint: "Anchor-3" 396 76 basechar 0
AnchorPoint: "Anchor-0" 390 472 basechar 0
Fore
-10 455 m 1,0,-1
 -10 500 l 1,1,-1
 562 500 l 1,2,-1
 562 455 l 1,3,-1
 413 455 l 1,4,-1
 413 360 l 1,5,6
 459 352 459 352 488.5 309.5 c 128,-1,7
 518 267 518 267 518 210 c 0,8,9
 518 146 518 146 481.5 100.5 c 128,-1,10
 445 55 445 55 393 55 c 0,11,12
 362 55 362 55 330.5 82 c 128,-1,13
 299 109 299 109 278 155 c 1,14,15
 257 109 257 109 227 82 c 128,-1,16
 197 55 197 55 168 55 c 0,17,18
 112 55 112 55 72.5 99 c 128,-1,19
 33 143 33 143 33 206 c 0,20,21
 33 270 33 270 72.5 315 c 128,-1,22
 112 360 112 360 168 360 c 0,23,24
 203 360 203 360 233 335.5 c 128,-1,25
 263 311 263 311 278 270 c 1,26,27
 292 307 292 307 314.5 331 c 128,-1,28
 337 355 337 355 363 360 c 1,29,-1
 363 455 l 1,30,-1
 -10 455 l 1,31,-1
 -10 455 l 1,0,-1
168 105 m 1,32,33
 190 105 190 105 213.5 132.5 c 128,-1,34
 237 160 237 160 253 205 c 1,35,36
 240 254 240 254 216.5 284.5 c 128,-1,37
 193 315 193 315 168 315 c 0,38,39
 133 315 133 315 108 283 c 128,-1,40
 83 251 83 251 83 206 c 0,41,42
 83 164 83 164 108 134.5 c 128,-1,43
 133 105 133 105 168 105 c 1,44,-1
 168 105 l 1,32,33
393 100 m 1,45,46
 424 100 424 100 446 132 c 128,-1,47
 468 164 468 164 468 210 c 0,48,49
 468 253 468 253 446 284 c 128,-1,50
 424 315 424 315 393 315 c 0,51,52
 366 315 366 315 340.5 285.5 c 128,-1,53
 315 256 315 256 303 210 c 1,54,55
 321 160 321 160 346 130 c 128,-1,56
 371 100 371 100 393 100 c 1,57,-1
 393 100 l 1,45,46
EndSplineSet
EndChar
StartChar: u0934
Encoding: 2356 2356 67
Width: 551
GlyphClass: 2
Flags: W
AnchorPoint: "Anchor-3" 416 74 basechar 0
AnchorPoint: "Anchor-0" 390 472 basechar 0
Fore
168 55 m 1,0,1
 112 55 112 55 72.5 101 c 128,-1,2
 33 147 33 147 33 212 c 0,3,4
 33 273 33 273 72.5 316.5 c 128,-1,5
 112 360 112 360 168 360 c 0,6,7
 203 360 203 360 233 335.5 c 128,-1,8
 263 311 263 311 278 270 c 1,9,10
 293 302 293 302 314 324.5 c 128,-1,11
 335 347 335 347 358 355 c 1,12,-1
 358 455 l 1,13,-1
 -10 455 l 1,14,-1
 -10 500 l 1,15,-1
 561 500 l 1,16,-1
 561 455 l 1,17,-1
 413 455 l 1,18,-1
 413 355 l 1,19,20
 459 343 459 343 488.5 302.5 c 128,-1,21
 518 262 518 262 518 210 c 0,22,23
 518 146 518 146 481.5 100.5 c 128,-1,24
 445 55 445 55 393 55 c 0,25,26
 362 55 362 55 330.5 82 c 128,-1,27
 299 109 299 109 278 155 c 1,28,29
 257 109 257 109 227 82 c 128,-1,30
 197 55 197 55 168 55 c 1,31,-1
 168 55 l 1,0,1
168 105 m 1,32,33
 190 105 190 105 213.5 132.5 c 128,-1,34
 237 160 237 160 253 205 c 1,35,36
 240 254 240 254 216.5 284.5 c 128,-1,37
 193 315 193 315 168 315 c 0,38,39
 133 315 133 315 108 284 c 128,-1,40
 83 253 83 253 83 210 c 256,41,42
 83 167 83 167 108 136 c 128,-1,43
 133 105 133 105 168 105 c 1,44,-1
 168 105 l 1,32,33
393 100 m 1,45,46
 424 100 424 100 446 132 c 128,-1,47
 468 164 468 164 468 210 c 0,48,49
 468 253 468 253 446 284 c 128,-1,50
 424 315 424 315 393 315 c 0,51,52
 366 315 366 315 340.5 285.5 c 128,-1,53
 315 256 315 256 303 210 c 1,54,55
 321 160 321 160 346 130 c 128,-1,56
 371 100 371 100 393 100 c 1,57,-1
 393 100 l 1,45,46
278 -15 m 1,58,-1
 238 25 l 1,59,-1
 278 65 l 1,60,-1
 318 25 l 1,61,-1
 278 -15 l 1,62,-1
 278 -15 l 1,58,-1
EndSplineSet
Ligature: 0 0 'nukt' u0933 u093C
EndChar
StartChar: u0935
Encoding: 2357 2357 68
Width: 408
GlyphClass: 2
Flags: W
Fore
-10 455 m 1,0,-1
 -10 500 l 1,1,-1
 418 500 l 1,2,-1
 418 455 l 1,3,-1
 333 455 l 1,4,-1
 333 0 l 1,5,-1
 283 0 l 1,6,-1
 283 160 l 1,7,8
 263 136 263 136 235.5 123 c 128,-1,9
 208 110 208 110 178 110 c 0,10,11
 116 110 116 110 72 149.5 c 128,-1,12
 28 189 28 189 28 245 c 256,13,14
 28 301 28 301 72 340.5 c 128,-1,15
 116 380 116 380 178 380 c 0,16,17
 196 380 196 380 212.5 375 c 128,-1,18
 229 370 229 370 243 360 c 1,19,-1
 218 320 l 1,20,21
 209 327 209 327 199 331 c 128,-1,22
 189 335 189 335 178 335 c 0,23,24
 137 335 137 335 107.5 308.5 c 128,-1,25
 78 282 78 282 78 245 c 0,26,27
 78 210 78 210 107.5 185 c 128,-1,28
 137 160 137 160 178 160 c 0,29,30
 207 160 207 160 235 180 c 128,-1,31
 263 200 263 200 283 235 c 1,32,-1
 283 455 l 1,33,-1
 -10 455 l 1,34,-1
 -10 455 l 1,0,-1
EndSplineSet
PairPos: 0 0 'blwm' u093C dx=0 dy=0 dh=0 dv=0 dx=74 dy=80 dh=0 dv=0
EndChar
StartChar: u0936
Encoding: 2358 2358 69
Width: 508
GlyphClass: 2
Flags: W
Fore
248 0 m 1,0,-1
 23 190 l 1,1,-1
 48 225 l 1,2,3
 70 207 70 207 82.5 198.5 c 128,-1,4
 95 190 95 190 103 190 c 0,5,6
 159 190 159 190 198.5 234 c 128,-1,7
 238 278 238 278 238 340 c 1,8,9
 225 317 225 317 200.5 303.5 c 128,-1,10
 176 290 176 290 148 290 c 0,11,12
 107 290 107 290 77.5 321 c 128,-1,13
 48 352 48 352 48 395 c 0,14,15
 48 443 48 443 80 476.5 c 128,-1,16
 112 510 112 510 158 510 c 0,17,18
 212 510 212 510 250 460 c 128,-1,19
 288 410 288 410 288 340 c 0,20,21
 288 263 288 263 242.5 209 c 128,-1,22
 197 155 197 155 133 155 c 1,23,-1
 278 35 l 1,24,-1
 248 0 l 1,25,-1
 248 0 l 1,0,-1
148 340 m 1,26,27
 173 340 173 340 194.5 355 c 128,-1,28
 216 370 216 370 228 395 c 1,29,30
 217 424 217 424 198 442 c 128,-1,31
 179 460 179 460 158 460 c 0,32,33
 133 460 133 460 115.5 441 c 128,-1,34
 98 422 98 422 98 395 c 0,35,36
 98 372 98 372 112.5 356 c 128,-1,37
 127 340 127 340 148 340 c 1,38,-1
 148 340 l 1,26,27
283 455 m 1,39,-1
 283 500 l 1,40,-1
 518 500 l 1,41,-1
 518 455 l 1,42,-1
 433 455 l 1,43,-1
 433 0 l 1,44,-1
 383 0 l 1,45,-1
 383 455 l 1,46,-1
 283 455 l 1,47,-1
 283 455 l 1,39,-1
EndSplineSet
PairPos: 0 0 'blwm' u093C dx=0 dy=0 dh=0 dv=0 dx=-32 dy=70 dh=0 dv=0
EndChar
StartChar: u0937
Encoding: 2359 2359 70
Width: 402
GlyphClass: 2
Flags: W
Fore
-10 455 m 1,0,-1
 -10 500 l 1,1,-1
 412 500 l 1,2,-1
 412 455 l 1,3,-1
 327 455 l 1,4,-1
 327 0 l 1,5,-1
 277 0 l 1,6,-1
 277 180 l 1,7,8
 256 165 256 165 229 157.5 c 128,-1,9
 202 150 202 150 172 150 c 0,10,11
 118 150 118 150 80 188 c 128,-1,12
 42 226 42 226 42 280 c 2,13,-1
 42 455 l 1,14,-1
 -10 455 l 1,15,-1
 -10 455 l 1,0,-1
172 200 m 1,16,17
 203 200 203 200 230 209 c 128,-1,18
 257 218 257 218 277 235 c 1,19,-1
 92 405 l 1,20,-1
 92 280 l 2,21,22
 92 247 92 247 115.5 223.5 c 128,-1,23
 139 200 139 200 172 200 c 1,24,-1
 172 200 l 1,16,17
277 290 m 1,25,-1
 277 455 l 1,26,-1
 102 455 l 1,27,-1
 277 290 l 1,28,-1
 277 290 l 1,25,-1
EndSplineSet
PairPos: 0 0 'blwm' u093C dx=0 dy=0 dh=0 dv=0 dx=106 dy=82 dh=0 dv=0
EndChar
StartChar: u0938
Encoding: 2360 2360 71
Width: 533
GlyphClass: 2
Flags: W
Fore
-10 455 m 1,0,-1
 -10 500 l 1,1,-1
 543 500 l 1,2,-1
 543 455 l 1,3,-1
 458 455 l 1,4,-1
 458 0 l 1,5,-1
 408 0 l 1,6,-1
 408 240 l 1,7,-1
 273 240 l 1,8,-1
 248 290 l 1,9,-1
 408 290 l 1,10,-1
 408 455 l 1,11,-1
 233 455 l 1,12,-1
 233 320 l 2,13,14
 233 281 233 281 208 253 c 128,-1,15
 183 225 183 225 148 225 c 0,16,17
 142 225 142 225 136.5 226.5 c 128,-1,18
 131 228 131 228 128 230 c 1,19,-1
 278 20 l 1,20,-1
 238 -5 l 1,21,-1
 13 315 l 1,22,-1
 53 345 l 1,23,24
 69 311 69 311 90.5 290.5 c 128,-1,25
 112 270 112 270 133 270 c 256,26,27
 154 270 154 270 168.5 284.5 c 128,-1,28
 183 299 183 299 183 320 c 2,29,-1
 183 455 l 1,30,-1
 -10 455 l 1,31,-1
 -10 455 l 1,0,-1
EndSplineSet
PairPos: 0 0 'blwm' u093C dx=0 dy=0 dh=0 dv=0 dx=-66 dy=88 dh=0 dv=0
EndChar
StartChar: u0939
Encoding: 2361 2361 72
Width: 396
GlyphClass: 2
Flags: W
AnchorPoint: "Anchor-3" 252 2 basechar 0
Fore
-10 455 m 1,0,-1
 -10 500 l 1,1,-1
 406 500 l 1,2,-1
 406 455 l 1,3,-1
 326 455 l 1,4,-1
 326 335 l 1,5,-1
 121 335 l 2,6,7
 111 335 111 335 103.5 330.5 c 128,-1,8
 96 326 96 326 96 320 c 0,9,10
 96 300 96 300 111 281 c 128,-1,11
 126 262 126 262 151 250 c 1,12,13
 167 257 167 257 186 261 c 128,-1,14
 205 265 205 265 226 265 c 0,15,16
 282 265 282 265 321.5 233 c 128,-1,17
 361 201 361 201 361 155 c 0,18,19
 361 129 361 129 350.5 107.5 c 128,-1,20
 340 86 340 86 321 75 c 1,21,-1
 281 110 l 1,22,23
 295 118 295 118 303 130 c 128,-1,24
 311 142 311 142 311 155 c 0,25,26
 311 180 311 180 286 197.5 c 128,-1,27
 261 215 261 215 226 215 c 0,28,29
 172 215 172 215 134 190 c 128,-1,30
 96 165 96 165 96 130 c 0,31,32
 96 84 96 84 160.5 52 c 128,-1,33
 225 20 225 20 316 20 c 1,34,-1
 306 -25 l 1,35,36
 198 -25 198 -25 122 20.5 c 128,-1,37
 46 66 46 66 46 130 c 0,38,39
 46 159 46 159 60.5 184.5 c 128,-1,40
 75 210 75 210 101 225 c 1,41,42
 75 247 75 247 60.5 272 c 128,-1,43
 46 297 46 297 46 320 c 0,44,45
 46 347 46 347 68 366 c 128,-1,46
 90 385 90 385 121 385 c 2,47,-1
 276 385 l 1,48,-1
 276 455 l 1,49,-1
 -10 455 l 1,50,-1
 -10 455 l 1,0,-1
EndSplineSet
PairPos: 0 0 'blwm' u093C dx=0 dy=0 dh=0 dv=0 dx=44 dy=44 dh=0 dv=0
EndChar
StartChar: u093C
Encoding: 2364 2364 73
Width: 0
GlyphClass: 4
Flags: W
Fore
-395 -70 m 1,0,-1
 -435 -35 l 1,1,-1
 -395 5 l 1,2,-1
 -355 -35 l 1,3,-1
 -395 -70 l 1,4,-1
 -395 -70 l 1,0,-1
EndSplineSet
EndChar
StartChar: u093D
Encoding: 2365 2365 74
Width: 332
GlyphClass: 2
Flags: W
Fore
184 4 m 1,0,1
 132 4 132 4 86 47.5 c 128,-1,2
 40 91 40 91 19 161 c 1,3,-1
 64 185 l 1,4,5
 81 128 81 128 114.5 93 c 128,-1,6
 148 58 148 58 184 58 c 0,7,8
 211 58 211 58 230 83 c 128,-1,9
 249 108 249 108 249 144 c 0,10,11
 249 177 249 177 221 213.5 c 128,-1,12
 193 250 193 250 144 282 c 0,13,14
 111 303 111 303 92.5 334.5 c 128,-1,15
 74 366 74 366 74 400 c 0,16,17
 74 437 74 437 105 463.5 c 128,-1,18
 136 490 136 490 179 490 c 2,19,-1
 299 490 l 1,20,-1
 299 439 l 1,21,-1
 179 439 l 2,22,23
 156 439 156 439 140 427 c 128,-1,24
 124 415 124 415 124 398 c 0,25,26
 124 374 124 374 149.5 343.5 c 128,-1,27
 175 313 175 313 219 284 c 0,28,29
 256 260 256 260 277.5 222.5 c 128,-1,30
 299 185 299 185 299 144 c 0,31,32
 299 86 299 86 265.5 45 c 128,-1,33
 232 4 232 4 184 4 c 1,34,-1
 184 4 l 1,0,1
EndSplineSet
EndChar
StartChar: u093E
Encoding: 2366 2366 75
Width: 200
GlyphClass: 2
Flags: W
Fore
-10 455 m 1,0,-1
 -10 500 l 1,1,-1
 210 500 l 1,2,-1
 210 455 l 1,3,-1
 125 455 l 1,4,-1
 125 0 l 1,5,-1
 75 0 l 1,6,-1
 75 455 l 1,7,-1
 -10 455 l 1,8,-1
 -10 455 l 1,0,-1
EndSplineSet
EndChar
StartChar: u093F
Encoding: 2367 2367 76
Width: 200
GlyphClass: 2
Flags: W
Fore
-10 455 m 1,0,-1
 -10 500 l 1,1,-1
 75 500 l 1,2,3
 68 509 68 509 64 525.5 c 128,-1,4
 60 542 60 542 60 565 c 0,5,6
 60 625 60 625 107 667.5 c 128,-1,7
 154 710 154 710 220 710 c 0,8,9
 299 710 299 710 375 656.5 c 128,-1,10
 451 603 451 603 505 510 c 1,11,-1
 445 510 l 1,12,13
 403 582 403 582 343 623.5 c 128,-1,14
 283 665 283 665 220 665 c 0,15,16
 174 665 174 665 142 635.5 c 128,-1,17
 110 606 110 606 110 565 c 0,18,19
 110 542 110 542 114 525.5 c 128,-1,20
 118 509 118 509 125 500 c 1,21,-1
 210 500 l 1,22,-1
 210 455 l 1,23,-1
 125 455 l 1,24,-1
 125 0 l 1,25,-1
 75 0 l 1,26,-1
 75 455 l 1,27,-1
 -10 455 l 1,28,-1
 -10 455 l 1,0,-1
EndSplineSet
Substitution: 0 65534 'L001' glyph206
Substitution: 0 65534 'L002' glyph229
PairPos: 0 0 'abvm' u0902 dx=0 dy=0 dh=0 dv=0 dx=370 dy=11 dh=0 dv=0
EndChar
StartChar: u0940
Encoding: 2368 2368 77
Width: 200
GlyphClass: 2
Flags: W
AnchorPoint: "Anchor-1" 198 42 basechar 0
Fore
-10 455 m 1,0,-1
 -10 500 l 1,1,-1
 75 500 l 1,2,3
 62 572 62 572 28 618.5 c 128,-1,4
 -6 665 -6 665 -45 665 c 0,5,6
 -74 665 -74 665 -94.5 646 c 128,-1,7
 -115 627 -115 627 -115 600 c 0,8,9
 -115 576 -115 576 -104.5 552.5 c 128,-1,10
 -94 529 -94 529 -75 510 c 1,11,-1
 -130 510 l 1,12,13
 -147 527 -147 527 -156 550.5 c 128,-1,14
 -165 574 -165 574 -165 600 c 0,15,16
 -165 646 -165 646 -130 678 c 128,-1,17
 -95 710 -95 710 -45 710 c 0,18,19
 13 710 13 710 61 650.5 c 128,-1,20
 109 591 109 591 125 500 c 1,21,-1
 210 500 l 1,22,-1
 210 455 l 1,23,-1
 125 455 l 1,24,-1
 125 0 l 1,25,-1
 75 0 l 1,26,-1
 75 455 l 1,27,-1
 -10 455 l 1,28,-1
 -10 455 l 1,0,-1
EndSplineSet
Substitution: 0 65534 'L000' glyph236
EndChar
StartChar: u0941
Encoding: 2369 2369 78
Width: 0
GlyphClass: 4
Flags: W
AnchorPoint: "Anchor-3" -108 46 mark 0
Fore
-150 -205 m 1,0,1
 -204 -205 -204 -205 -263 -179 c 128,-1,2
 -322 -153 -322 -153 -380 -105 c 1,3,-1
 -345 -60 l 1,4,5
 -290 -106 -290 -106 -240 -130.5 c 128,-1,6
 -190 -155 -190 -155 -150 -155 c 0,7,8
 -107 -155 -107 -155 -76 -133 c 128,-1,9
 -45 -111 -45 -111 -45 -80 c 0,10,11
 -45 -55 -45 -55 -61 -37.5 c 128,-1,12
 -77 -20 -77 -20 -100 -20 c 0,13,14
 -124 -20 -124 -20 -145 -29 c 128,-1,15
 -166 -38 -166 -38 -180 -55 c 1,16,-1
 -215 -20 l 1,17,18
 -195 4 -195 4 -165 17 c 128,-1,19
 -135 30 -135 30 -100 30 c 0,20,21
 -57 30 -57 30 -26 -2 c 128,-1,22
 5 -34 5 -34 5 -80 c 0,23,24
 5 -132 5 -132 -40.5 -168.5 c 128,-1,25
 -86 -205 -86 -205 -150 -205 c 1,26,-1
 -150 -205 l 1,0,1
EndSplineSet
Substitution: 0 65534 'L004' glyph242
EndChar
StartChar: u0942
Encoding: 2370 2370 79
Width: 0
GlyphClass: 4
Flags: W
AnchorPoint: "Anchor-3" -98 52 mark 0
Fore
-115 -190 m 1,0,1
 -158 -190 -158 -190 -189 -159 c 128,-1,2
 -220 -128 -220 -128 -220 -85 c 0,3,4
 -220 -35 -220 -35 -183.5 0 c 128,-1,5
 -147 35 -147 35 -95 35 c 0,6,7
 -30 35 -30 35 30.5 -21.5 c 128,-1,8
 91 -78 91 -78 125 -170 c 1,9,-1
 80 -190 l 1,10,11
 51 -111 51 -111 3 -63 c 128,-1,12
 -45 -15 -45 -15 -95 -15 c 0,13,14
 -126 -15 -126 -15 -148 -35.5 c 128,-1,15
 -170 -56 -170 -56 -170 -85 c 0,16,17
 -170 -108 -170 -108 -154 -124 c 128,-1,18
 -138 -140 -138 -140 -115 -140 c 0,19,20
 -103 -140 -103 -140 -88.5 -133.5 c 128,-1,21
 -74 -127 -74 -127 -60 -115 c 1,22,-1
 -35 -160 l 1,23,24
 -56 -175 -56 -175 -76.5 -182.5 c 128,-1,25
 -97 -190 -97 -190 -115 -190 c 1,26,-1
 -115 -190 l 1,0,1
EndSplineSet
Substitution: 0 65534 'L003' glyph243
EndChar
StartChar: u0943
Encoding: 2371 2371 80
Width: 0
GlyphClass: 4
Flags: W
AnchorPoint: "Anchor-3" -96 38 mark 0
Fore
-126 -205 m 1,0,1
 -178 -205 -178 -205 -214.5 -171.5 c 128,-1,2
 -251 -138 -251 -138 -251 -90 c 0,3,4
 -251 -44 -251 -44 -211.5 -12 c 128,-1,5
 -172 20 -172 20 -116 20 c 2,6,-1
 -71 20 l 1,7,-1
 -71 -25 l 1,8,-1
 -116 -25 l 2,9,10
 -151 -25 -151 -25 -176 -44 c 128,-1,11
 -201 -63 -201 -63 -201 -90 c 256,12,13
 -201 -117 -201 -117 -179 -136 c 128,-1,14
 -157 -155 -157 -155 -126 -155 c 0,15,16
 -97 -155 -97 -155 -72.5 -146 c 128,-1,17
 -48 -137 -48 -137 -31 -120 c 1,18,-1
 -6 -165 l 1,19,20
 -29 -184 -29 -184 -60 -194.5 c 128,-1,21
 -91 -205 -91 -205 -126 -205 c 1,22,-1
 -126 -205 l 1,0,1
EndSplineSet
EndChar
StartChar: u0944
Encoding: 2372 2372 81
Width: 0
GlyphClass: 4
Flags: W
AnchorPoint: "Anchor-3" -98 52 mark 0
Fore
-122 -200 m 1,0,1
 -174 -200 -174 -200 -210.5 -179.5 c 128,-1,2
 -247 -159 -247 -159 -247 -130 c 0,3,4
 -247 -114 -247 -114 -232 -99 c 128,-1,5
 -217 -84 -217 -84 -192 -75 c 1,6,7
 -212 -70 -212 -70 -224.5 -56 c 128,-1,8
 -237 -42 -237 -42 -237 -25 c 0,9,10
 -237 0 -237 0 -215 17.5 c 128,-1,11
 -193 35 -193 35 -162 35 c 2,12,-1
 -72 35 l 1,13,-1
 -72 0 l 1,14,-1
 -152 0 l 2,15,16
 -169 0 -169 0 -180.5 -7.5 c 128,-1,17
 -192 -15 -192 -15 -192 -25 c 0,18,19
 -192 -37 -192 -37 -174.5 -46 c 128,-1,20
 -157 -55 -157 -55 -132 -55 c 2,21,-1
 -97 -55 l 1,22,-1
 -97 -95 l 1,23,-1
 -142 -95 l 2,24,25
 -167 -95 -167 -95 -184.5 -105.5 c 128,-1,26
 -202 -116 -202 -116 -202 -130 c 0,27,28
 -202 -142 -202 -142 -181.5 -151 c 128,-1,29
 -161 -160 -161 -160 -132 -160 c 0,30,31
 -97 -160 -97 -160 -71.5 -155 c 128,-1,32
 -46 -150 -46 -150 -32 -140 c 1,33,-1
 -17 -175 l 1,34,35
 -34 -187 -34 -187 -61 -193.5 c 128,-1,36
 -88 -200 -88 -200 -122 -200 c 1,37,-1
 -122 -200 l 1,0,1
EndSplineSet
EndChar
StartChar: u0945
Encoding: 2373 2373 82
Width: 0
GlyphClass: 4
Flags: W
AnchorPoint: "Anchor-0" -90 492 mark 0
Fore
-95 565 m 1,0,1
 -150 565 -150 565 -192.5 603 c 128,-1,2
 -235 641 -235 641 -245 700 c 1,3,-1
 -195 700 l 1,4,5
 -188 659 -188 659 -159.5 632 c 128,-1,6
 -131 605 -131 605 -95 605 c 256,7,8
 -59 605 -59 605 -30.5 632 c 128,-1,9
 -2 659 -2 659 5 700 c 1,10,-1
 55 700 l 1,11,12
 45 641 45 641 2.5 603 c 128,-1,13
 -40 565 -40 565 -95 565 c 1,14,-1
 -95 565 l 1,0,1
EndSplineSet
EndChar
StartChar: u0946
Encoding: 2374 2374 83
Width: 0
GlyphClass: 4
Flags: W
AnchorPoint: "Anchor-0" -96 486 mark 0
Fore
-222 615 m 1,0,1
 -277 615 -277 615 -319.5 653 c 128,-1,2
 -362 691 -362 691 -372 750 c 1,3,-1
 -322 750 l 1,4,5
 -315 709 -315 709 -286.5 682 c 128,-1,6
 -258 655 -258 655 -222 655 c 0,7,8
 -160 655 -160 655 -116 612.5 c 128,-1,9
 -72 570 -72 570 -72 510 c 1,10,-1
 -122 510 l 1,11,12
 -122 553 -122 553 -151.5 584 c 128,-1,13
 -181 615 -181 615 -222 615 c 1,14,-1
 -222 615 l 1,0,1
EndSplineSet
PairPos: 0 0 'abvm' u0902 dx=0 dy=0 dh=0 dv=0 dx=6 dy=12 dh=0 dv=0
EndChar
StartChar: u0947
Encoding: 2375 2375 84
Width: 0
GlyphClass: 4
Flags: W
AnchorPoint: "Anchor-2" 0 0 basemark 0
AnchorPoint: "Anchor-0" -92 476 mark 0
Fore
-127 500 m 1,0,-1
 -312 720 l 1,1,-1
 -277 750 l 1,2,-1
 -77 500 l 1,3,-1
 -127 500 l 1,4,-1
 -127 500 l 1,0,-1
EndSplineSet
EndChar
StartChar: u0948
Encoding: 2376 2376 85
Width: 0
GlyphClass: 4
Flags: W
AnchorPoint: "Anchor-2" 42 48 basemark 0
AnchorPoint: "Anchor-0" -102 476 mark 0
Fore
-144 500 m 1,0,-1
 -359 635 l 1,1,-1
 -329 680 l 1,2,-1
 -109 505 l 1,3,-1
 -214 720 l 1,4,-1
 -164 750 l 1,5,-1
 -79 500 l 1,6,-1
 -144 500 l 1,7,-1
 -144 500 l 1,0,-1
EndSplineSet
EndChar
StartChar: u0949
Encoding: 2377 2377 86
Width: 200
GlyphClass: 2
Flags: W
Fore
-10 455 m 1,0,-1
 -10 500 l 1,1,-1
 210 500 l 1,2,-1
 210 455 l 1,3,-1
 125 455 l 1,4,-1
 125 0 l 1,5,-1
 75 0 l 1,6,-1
 75 455 l 1,7,-1
 -10 455 l 1,8,-1
 -10 455 l 1,0,-1
0 565 m 1,9,10
 -55 565 -55 565 -97.5 603 c 128,-1,11
 -140 641 -140 641 -150 700 c 1,12,-1
 -100 700 l 1,13,14
 -93 659 -93 659 -64.5 632 c 128,-1,15
 -36 605 -36 605 0 605 c 256,16,17
 36 605 36 605 64.5 632 c 128,-1,18
 93 659 93 659 100 700 c 1,19,-1
 150 700 l 1,20,21
 140 641 140 641 97.5 603 c 128,-1,22
 55 565 55 565 0 565 c 1,23,-1
 0 565 l 1,9,10
EndSplineSet
EndChar
StartChar: u094A
Encoding: 2378 2378 87
Width: 200
GlyphClass: 2
Flags: W
Fore
-10 455 m 1,0,-1
 -10 500 l 1,1,-1
 210 500 l 1,2,-1
 210 455 l 1,3,-1
 125 455 l 1,4,-1
 125 0 l 1,5,-1
 75 0 l 1,6,-1
 75 455 l 1,7,-1
 -10 455 l 1,8,-1
 -10 455 l 1,0,-1
-25 615 m 1,9,10
 -80 615 -80 615 -122.5 653 c 128,-1,11
 -165 691 -165 691 -175 750 c 1,12,-1
 -125 750 l 1,13,14
 -118 709 -118 709 -89.5 682 c 128,-1,15
 -61 655 -61 655 -25 655 c 0,16,17
 37 655 37 655 81 612.5 c 128,-1,18
 125 570 125 570 125 510 c 1,19,-1
 75 510 l 1,20,21
 75 553 75 553 45.5 584 c 128,-1,22
 16 615 16 615 -25 615 c 1,23,-1
 -25 615 l 1,9,10
EndSplineSet
EndChar
StartChar: u094B
Encoding: 2379 2379 88
Width: 200
GlyphClass: 2
Flags: W
AnchorPoint: "Anchor-1" 174 84 basechar 0
Fore
-10 455 m 1,0,-1
 -10 500 l 1,1,-1
 71 500 l 1,2,-1
 -110 720 l 1,3,-1
 -75 750 l 1,4,-1
 121 500 l 1,5,-1
 210 500 l 1,6,-1
 210 455 l 1,7,-1
 125 455 l 1,8,-1
 125 0 l 1,9,-1
 75 0 l 1,10,-1
 75 455 l 1,11,-1
 -10 455 l 1,12,-1
 -10 455 l 1,0,-1
EndSplineSet
EndChar
StartChar: u094C
Encoding: 2380 2380 89
Width: 200
GlyphClass: 2
Flags: W
AnchorPoint: "Anchor-1" 252 54 basechar 0
Fore
-10 455 m 1,0,-1
 -10 500 l 1,1,-1
 57 500 l 1,2,-1
 -150 635 l 1,3,-1
 -120 680 l 1,4,-1
 100 500 l 1,5,-1
 -5 720 l 1,6,-1
 45 750 l 1,7,-1
 128 500 l 1,8,-1
 210 500 l 1,9,-1
 210 455 l 1,10,-1
 125 455 l 1,11,-1
 125 0 l 1,12,-1
 75 0 l 1,13,-1
 75 455 l 1,14,-1
 -10 455 l 1,15,-1
 -10 455 l 1,0,-1
EndSplineSet
PairPos: 0 0 'abvm' u0902 dx=0 dy=0 dh=0 dv=0 dx=49 dy=-7 dh=0 dv=0
EndChar
StartChar: u094D
Encoding: 2381 2381 90
Width: 0
GlyphClass: 4
Flags: W
AnchorPoint: "Anchor-3" -90 32 mark 0
Fore
-131 -75 m 1,0,-1
 -156 -40 l 1,1,-1
 -96 5 l 1,2,-1
 84 -135 l 1,3,-1
 54 -165 l 1,4,-1
 -96 -45 l 1,5,-1
 -131 -75 l 1,6,-1
 -131 -75 l 1,0,-1
EndSplineSet
EndChar
StartChar: u0950
Encoding: 2384 2384 91
Width: 734
GlyphClass: 2
Flags: W
Fore
293 345 m 1,0,1
 293 376 293 376 270 398 c 128,-1,2
 247 420 247 420 215 420 c 0,3,4
 191 420 191 420 164 400 c 128,-1,5
 137 380 137 380 114 345 c 1,6,-1
 76 376 l 1,7,8
 104 420 104 420 141 445.5 c 128,-1,9
 178 471 178 471 216 471 c 0,10,11
 269 471 269 471 306.5 434 c 128,-1,12
 344 397 344 397 344 345 c 0,13,14
 344 323 344 323 332 300.5 c 128,-1,15
 320 278 320 278 299 260 c 1,16,17
 320 248 320 248 343 241.5 c 128,-1,18
 366 235 366 235 389 235 c 0,19,20
 413 235 413 235 434.5 248.5 c 128,-1,21
 456 262 456 262 469 285 c 0,22,23
 484 311 484 311 512 325.5 c 128,-1,24
 540 340 540 340 574 340 c 0,25,26
 626 340 626 340 662.5 294.5 c 128,-1,27
 699 249 699 249 699 185 c 256,28,29
 699 121 699 121 664 75.5 c 128,-1,30
 629 30 629 30 579 30 c 0,31,32
 527 30 527 30 490.5 68 c 128,-1,33
 454 106 454 106 454 160 c 1,34,-1
 499 160 l 1,35,36
 499 127 499 127 522.5 103.5 c 128,-1,37
 546 80 546 80 579 80 c 0,38,39
 608 80 608 80 628.5 111 c 128,-1,40
 649 142 649 142 649 185 c 256,41,42
 649 228 649 228 627 259 c 128,-1,43
 605 290 605 290 574 290 c 0,44,45
 551 290 551 290 528 274 c 128,-1,46
 505 258 505 258 489 230 c 0,47,48
 477 209 477 209 450 197 c 128,-1,49
 423 185 423 185 389 185 c 0,50,51
 383 185 383 185 370.5 187.5 c 128,-1,52
 358 190 358 190 339 195 c 1,53,54
 346 186 346 186 350 172 c 128,-1,55
 354 158 354 158 354 140 c 0,56,57
 354 86 354 86 319 48 c 128,-1,58
 284 10 284 10 234 10 c 0,59,60
 172 10 172 10 112 59 c 128,-1,61
 52 108 52 108 14 190 c 1,62,-1
 59 215 l 1,63,64
 92 144 92 144 139.5 102 c 128,-1,65
 187 60 187 60 234 60 c 0,66,67
 263 60 263 60 283.5 83.5 c 128,-1,68
 304 107 304 107 304 140 c 0,69,70
 304 175 304 175 288 200 c 128,-1,71
 272 225 272 225 249 225 c 0,72,73
 236 225 236 225 226 223.5 c 128,-1,74
 216 222 216 222 209 220 c 1,75,-1
 179 255 l 1,76,77
 226 259 226 259 259.5 285.5 c 128,-1,78
 293 312 293 312 293 345 c 1,79,-1
 293 345 l 1,0,1
524 455 m 1,80,81
 458 455 458 455 408.5 493 c 128,-1,82
 359 531 359 531 349 590 c 1,83,-1
 399 590 l 1,84,85
 415 545 415 545 449.5 517.5 c 128,-1,86
 484 490 484 490 524 490 c 256,87,88
 564 490 564 490 598.5 517.5 c 128,-1,89
 633 545 633 545 649 590 c 1,90,-1
 699 590 l 1,91,92
 689 531 689 531 639.5 493 c 128,-1,93
 590 455 590 455 524 455 c 1,94,-1
 524 455 l 1,80,81
499 555 m 1,95,-1
 499 610 l 1,96,-1
 554 610 l 1,97,-1
 554 555 l 1,98,-1
 499 555 l 1,99,-1
 499 555 l 1,95,-1
EndSplineSet
EndChar
StartChar: u0951
Encoding: 2385 2385 92
Width: 0
GlyphClass: 4
Flags: W
AnchorPoint: "Anchor-0" -96 472 mark 0
Fore
-129 505 m 1,0,-1
 -129 740 l 1,1,-1
 -64 740 l 1,2,-1
 -64 505 l 1,3,-1
 -129 505 l 1,4,-1
 -129 505 l 1,0,-1
EndSplineSet
EndChar
StartChar: u0952
Encoding: 2386 2386 93
Width: 0
GlyphClass: 4
Flags: W
Fore
-435 -55 m 1,0,-1
 -435 -10 l 1,1,-1
 -40 -10 l 1,2,-1
 -40 -55 l 1,3,-1
 -435 -55 l 1,4,-1
 -435 -55 l 1,0,-1
EndSplineSet
EndChar
StartChar: u0953
Encoding: 2387 2387 94
Width: 0
GlyphClass: 4
Flags: W
AnchorPoint: "Anchor-0" -92 472 mark 0
Fore
-199 505 m 1,0,-1
 -199 740 l 1,1,-1
 -134 740 l 1,2,-1
 -134 505 l 1,3,-1
 -199 505 l 1,4,-1
 -199 505 l 1,0,-1
-59 505 m 1,5,-1
 -59 740 l 1,6,-1
 6 740 l 1,7,-1
 6 505 l 1,8,-1
 -59 505 l 1,9,-1
 -59 505 l 1,5,-1
EndSplineSet
EndChar
StartChar: u0954
Encoding: 2388 2388 95
Width: 0
GlyphClass: 4
Flags: W
AnchorPoint: "Anchor-0" -108 462 mark 0
Fore
-134 499 m 1,0,-1
 -93 657 l 1,1,-1
 -28 657 l 1,2,-1
 -97 499 l 1,3,-1
 -134 499 l 1,4,-1
 -134 499 l 1,0,-1
EndSplineSet
EndChar
StartChar: u0958
Encoding: 2392 2392 96
Width: 566
GlyphClass: 2
Flags: W
AnchorPoint: "Anchor-3" 290 18 basechar 0
AnchorPoint: "Anchor-0" 286 476 basechar 0
Fore
-10 455 m 1,0,-1
 -10 500 l 1,1,-1
 576 500 l 1,2,-1
 576 455 l 1,3,-1
 313 455 l 1,4,-1
 313 320 l 1,5,6
 328 346 328 346 356 360.5 c 128,-1,7
 384 375 384 375 418 375 c 0,8,9
 466 375 466 375 499.5 337 c 128,-1,10
 533 299 533 299 533 245 c 0,11,12
 533 199 533 199 507 152 c 128,-1,13
 481 105 481 105 433 65 c 1,14,-1
 398 100 l 1,15,16
 438 134 438 134 460.5 172 c 128,-1,17
 483 210 483 210 483 245 c 0,18,19
 483 278 483 278 464 301.5 c 128,-1,20
 445 325 445 325 418 325 c 0,21,22
 382 325 382 325 353 300 c 128,-1,23
 324 275 324 275 313 235 c 1,24,-1
 313 0 l 1,25,-1
 263 0 l 1,26,-1
 263 155 l 1,27,28
 243 131 243 131 219.5 118 c 128,-1,29
 196 105 196 105 173 105 c 0,30,31
 113 105 113 105 70.5 143 c 128,-1,32
 28 181 28 181 28 235 c 0,33,34
 28 293 28 293 72 334 c 128,-1,35
 116 375 116 375 178 375 c 0,36,37
 196 375 196 375 209 372.5 c 128,-1,38
 222 370 222 370 228 365 c 1,39,-1
 213 320 l 1,40,41
 209 322 209 322 200 323.5 c 128,-1,42
 191 325 191 325 178 325 c 0,43,44
 137 325 137 325 107.5 298.5 c 128,-1,45
 78 272 78 272 78 235 c 0,46,47
 78 200 78 200 106 175 c 128,-1,48
 134 150 134 150 173 150 c 0,49,50
 195 150 195 150 219 170 c 128,-1,51
 243 190 243 190 263 225 c 1,52,-1
 263 455 l 1,53,-1
 -10 455 l 1,54,-1
 -10 455 l 1,0,-1
153 -10 m 1,55,-1
 113 30 l 1,56,-1
 153 70 l 1,57,-1
 193 30 l 1,58,-1
 153 -10 l 1,59,-1
 153 -10 l 1,55,-1
EndSplineSet
Ligature: 0 0 'nukt' u0915 u093C
EndChar
StartChar: u0959
Encoding: 2393 2393 97
Width: 628
GlyphClass: 2
Flags: W
Fore
-10 455 m 1,0,-1
 -10 500 l 1,1,-1
 638 500 l 1,2,-1
 638 455 l 1,3,-1
 553 455 l 1,4,-1
 553 0 l 1,5,-1
 503 0 l 1,6,-1
 503 100 l 1,7,8
 455 52 455 52 405.5 26 c 128,-1,9
 356 0 356 0 313 0 c 0,10,11
 255 0 255 0 196 44 c 128,-1,12
 137 88 137 88 93 165 c 0,13,14
 72 201 72 201 56 241 c 128,-1,15
 40 281 40 281 28 325 c 1,16,-1
 68 350 l 1,17,18
 79 318 79 318 95.5 299 c 128,-1,19
 112 280 112 280 128 280 c 0,20,21
 149 280 149 280 163.5 296 c 128,-1,22
 178 312 178 312 178 335 c 2,23,-1
 178 455 l 1,24,-1
 -10 455 l 1,25,-1
 -10 455 l 1,0,-1
313 50 m 1,26,27
 359 50 359 50 409 79 c 128,-1,28
 459 108 459 108 503 160 c 1,29,-1
 503 210 l 1,30,31
 483 193 483 193 459.5 184 c 128,-1,32
 436 175 436 175 413 175 c 0,33,34
 367 175 367 175 335 207 c 128,-1,35
 303 239 303 239 303 285 c 256,36,37
 303 331 303 331 339.5 363 c 128,-1,38
 376 395 376 395 428 395 c 0,39,40
 439 395 439 395 451.5 392.5 c 128,-1,41
 464 390 464 390 478 385 c 1,42,-1
 478 335 l 1,43,44
 465 340 465 340 452.5 342.5 c 128,-1,45
 440 345 440 345 428 345 c 0,46,47
 397 345 397 345 375 327.5 c 128,-1,48
 353 310 353 310 353 285 c 256,49,50
 353 260 353 260 370.5 242 c 128,-1,51
 388 224 388 224 413 224 c 0,52,53
 433 224 433 224 456 234.5 c 128,-1,54
 479 245 479 245 503 265 c 1,55,-1
 503 455 l 1,56,-1
 228 455 l 1,57,-1
 228 345 l 2,58,59
 228 299 228 299 204.5 267 c 128,-1,60
 181 235 181 235 148 235 c 0,61,62
 139 235 139 235 129 237.5 c 128,-1,63
 119 240 119 240 108 245 c 1,64,65
 140 157 140 157 196.5 103.5 c 128,-1,66
 253 50 253 50 313 50 c 1,67,-1
 313 50 l 1,26,27
78 -10 m 1,68,-1
 33 30 l 1,69,-1
 78 70 l 1,70,-1
 123 30 l 1,71,-1
 78 -10 l 1,72,-1
 78 -10 l 1,68,-1
EndSplineSet
Ligature: 0 0 'nukt' u0916 u093C
EndChar
StartChar: u095A
Encoding: 2394 2394 98
Width: 389
GlyphClass: 2
Flags: W
Fore
-10 455 m 1,0,-1
 -10 500 l 1,1,-1
 399 500 l 1,2,-1
 399 455 l 1,3,-1
 314 455 l 1,4,-1
 314 0 l 1,5,-1
 264 0 l 1,6,-1
 264 455 l 1,7,-1
 139 455 l 1,8,-1
 139 235 l 2,9,10
 139 221 139 221 133 210.5 c 128,-1,11
 127 200 127 200 119 200 c 0,12,13
 100 200 100 200 57 238.5 c 128,-1,14
 14 277 14 277 14 295 c 0,15,16
 14 303 14 303 20 309 c 128,-1,17
 26 315 26 315 34 315 c 2,18,-1
 69 315 l 2,19,20
 77 315 77 315 83 322.5 c 128,-1,21
 89 330 89 330 89 340 c 2,22,-1
 89 455 l 1,23,-1
 -10 455 l 1,24,-1
 -10 455 l 1,0,-1
99 -10 m 1,25,-1
 59 30 l 1,26,-1
 99 70 l 1,27,-1
 139 30 l 1,28,-1
 99 -10 l 1,29,-1
 99 -10 l 1,25,-1
EndSplineSet
Ligature: 0 0 'nukt' u0917 u093C
EndChar
StartChar: u095B
Encoding: 2395 2395 99
Width: 551
GlyphClass: 2
Flags: W
Fore
-10 455 m 1,0,-1
 -10 500 l 1,1,-1
 561 500 l 1,2,-1
 561 455 l 1,3,-1
 476 455 l 1,4,-1
 476 0 l 1,5,-1
 426 0 l 1,6,-1
 426 300 l 1,7,-1
 296 300 l 1,8,9
 318 269 318 269 329.5 244.5 c 128,-1,10
 341 220 341 220 341 205 c 0,11,12
 341 159 341 159 309 127 c 128,-1,13
 277 95 277 95 231 95 c 0,14,15
 171 95 171 95 112.5 158 c 128,-1,16
 54 221 54 221 16 325 c 1,17,-1
 56 350 l 1,18,19
 91 255 91 255 138.5 197.5 c 128,-1,20
 186 140 186 140 231 140 c 0,21,22
 256 140 256 140 273.5 159 c 128,-1,23
 291 178 291 178 291 205 c 0,24,25
 291 225 291 225 269.5 260 c 128,-1,26
 248 295 248 295 206 345 c 1,27,-1
 426 345 l 1,28,-1
 426 455 l 1,29,-1
 -10 455 l 1,30,-1
 -10 455 l 1,0,-1
136 -10 m 1,31,-1
 91 30 l 1,32,-1
 136 70 l 1,33,-1
 181 30 l 1,34,-1
 136 -10 l 1,35,-1
 136 -10 l 1,31,-1
EndSplineSet
Ligature: 0 0 'nukt' u091C u093C
EndChar
StartChar: u095C
Encoding: 2396 2396 100
Width: 475
GlyphClass: 2
Flags: W
AnchorPoint: "Anchor-3" 306 38 basechar 0
Fore
-10 455 m 1,0,-1
 -10 500 l 1,1,-1
 485 500 l 1,2,-1
 485 455 l 1,3,-1
 399 455 l 1,4,-1
 399 325 l 1,5,-1
 209 325 l 2,6,7
 203 325 203 325 198.5 320.5 c 128,-1,8
 194 316 194 316 194 310 c 0,9,10
 194 289 194 289 224 257 c 128,-1,11
 254 225 254 225 274 225 c 0,12,13
 290 225 290 225 321.5 235 c 128,-1,14
 353 245 353 245 369 245 c 0,15,16
 398 245 398 245 418.5 221.5 c 128,-1,17
 439 198 439 198 439 165 c 0,18,19
 439 101 439 101 395 55.5 c 128,-1,20
 351 10 351 10 289 10 c 0,21,22
 211 10 211 10 136.5 71 c 128,-1,23
 62 132 62 132 14 235 c 1,24,-1
 54 260 l 1,25,26
 97 168 97 168 160.5 114 c 128,-1,27
 224 60 224 60 289 60 c 0,28,29
 330 60 330 60 359.5 91 c 128,-1,30
 389 122 389 122 389 165 c 0,31,32
 389 177 389 177 383 186 c 128,-1,33
 377 195 377 195 369 195 c 0,34,35
 353 195 353 195 321.5 185 c 128,-1,36
 290 175 290 175 274 175 c 0,37,38
 236 175 236 175 190 223 c 128,-1,39
 144 271 144 271 144 310 c 0,40,41
 144 337 144 337 163 356 c 128,-1,42
 182 375 182 375 209 375 c 2,43,-1
 349 375 l 1,44,-1
 349 455 l 1,45,-1
 -10 455 l 1,46,-1
 -10 455 l 1,0,-1
289 -100 m 1,47,-1
 244 -65 l 1,48,-1
 289 -30 l 1,49,-1
 334 -65 l 1,50,-1
 289 -100 l 1,51,-1
 289 -100 l 1,47,-1
EndSplineSet
Ligature: 0 0 'nukt' u0921 u093C
EndChar
StartChar: u095D
Encoding: 2397 2397 101
Width: 430
GlyphClass: 2
Flags: W
AnchorPoint: "Anchor-3" 250 44 basechar 0
Fore
-10 455 m 1,0,-1
 -10 500 l 1,1,-1
 440 500 l 1,2,-1
 440 455 l 1,3,-1
 341 455 l 1,4,-1
 341 310 l 1,5,-1
 166 310 l 2,6,7
 131 310 131 310 106 285 c 128,-1,8
 81 260 81 260 81 225 c 0,9,10
 81 163 81 163 128.5 117 c 128,-1,11
 176 71 176 71 246 65 c 1,12,13
 227 81 227 81 216.5 103.5 c 128,-1,14
 206 126 206 126 206 150 c 0,15,16
 206 189 206 189 234 217 c 128,-1,17
 262 245 262 245 301 245 c 0,18,19
 342 245 342 245 371.5 215.5 c 128,-1,20
 401 186 401 186 401 145 c 0,21,22
 401 93 401 93 354 56.5 c 128,-1,23
 307 20 307 20 241 20 c 0,24,25
 163 20 163 20 97 84.5 c 128,-1,26
 31 149 31 149 31 225 c 0,27,28
 31 279 31 279 70.5 317 c 128,-1,29
 110 355 110 355 166 355 c 2,30,-1
 291 355 l 1,31,-1
 291 455 l 1,32,-1
 -10 455 l 1,33,-1
 -10 455 l 1,0,-1
296 75 m 1,34,35
 321 87 321 87 336 106 c 128,-1,36
 351 125 351 125 351 145 c 0,37,38
 351 168 351 168 336.5 184 c 128,-1,39
 322 200 322 200 301 200 c 256,40,41
 280 200 280 200 265.5 184 c 128,-1,42
 251 168 251 168 251 145 c 0,43,44
 251 130 251 130 263 111.5 c 128,-1,45
 275 93 275 93 296 75 c 1,46,-1
 296 75 l 1,34,35
241 -100 m 1,47,-1
 196 -65 l 1,48,-1
 241 -30 l 1,49,-1
 286 -65 l 1,50,-1
 241 -100 l 1,51,-1
 241 -100 l 1,47,-1
EndSplineSet
Ligature: 0 0 'nukt' u0922 u093C
EndChar
StartChar: u095E
Encoding: 2398 2398 102
Width: 575
GlyphClass: 2
Flags: W
AnchorPoint: "Anchor-3" 286 16 basechar 0
AnchorPoint: "Anchor-0" 284 476 basechar 0
Fore
-10 455 m 1,0,-1
 -10 500 l 1,1,-1
 585 500 l 1,2,-1
 585 455 l 1,3,-1
 309 455 l 1,4,-1
 309 322 l 1,5,6
 330 343 330 343 356 354 c 128,-1,7
 382 365 382 365 409 365 c 0,8,9
 463 365 463 365 501 324 c 128,-1,10
 539 283 539 283 539 225 c 0,11,12
 539 180 539 180 522 136.5 c 128,-1,13
 505 93 505 93 474 55 c 1,14,-1
 429 80 l 1,15,16
 458 109 458 109 473.5 146.5 c 128,-1,17
 489 184 489 184 489 225 c 0,18,19
 489 262 489 262 465.5 288.5 c 128,-1,20
 442 315 442 315 409 315 c 0,21,22
 383 315 383 315 357 300.5 c 128,-1,23
 331 286 331 286 309 260 c 1,24,-1
 309 0 l 1,25,-1
 259 0 l 1,26,-1
 259 205 l 1,27,28
 237 183 237 183 211 171.5 c 128,-1,29
 185 160 185 160 159 160 c 0,30,31
 111 160 111 160 77.5 195 c 128,-1,32
 44 230 44 230 44 280 c 2,33,-1
 44 455 l 1,34,-1
 -10 455 l 1,35,-1
 -10 455 l 1,0,-1
159 205 m 1,36,37
 186 205 186 205 212.5 221 c 128,-1,38
 239 237 239 237 259 265 c 1,39,-1
 259 455 l 1,40,-1
 94 455 l 1,41,-1
 94 280 l 2,42,43
 94 249 94 249 113 227 c 128,-1,44
 132 205 132 205 159 205 c 1,45,-1
 159 205 l 1,36,37
129 -5 m 1,46,-1
 89 32 l 1,47,-1
 129 70 l 1,48,-1
 169 32 l 1,49,-1
 129 -5 l 1,50,-1
 129 -5 l 1,46,-1
EndSplineSet
Ligature: 0 0 'nukt' u092B u093C
EndChar
StartChar: u095F
Encoding: 2399 2399 103
Width: 448
GlyphClass: 2
Flags: W
Fore
193 95 m 1,0,1
 121 95 121 95 69.5 147.5 c 128,-1,2
 18 200 18 200 18 275 c 1,3,4
 75 275 75 275 109 297 c 128,-1,5
 143 319 143 319 143 355 c 0,6,7
 143 379 143 379 130 405 c 128,-1,8
 117 431 117 431 93 455 c 1,9,-1
 -10 455 l 1,10,-1
 -10 500 l 1,11,-1
 458 500 l 1,12,-1
 458 455 l 1,13,-1
 373 455 l 1,14,-1
 373 0 l 1,15,-1
 323 0 l 1,16,-1
 323 155 l 1,17,18
 299 126 299 126 265 110.5 c 128,-1,19
 231 95 231 95 193 95 c 1,20,-1
 193 95 l 1,0,1
193 145 m 1,21,22
 232 145 232 145 267 166.5 c 128,-1,23
 302 188 302 188 323 225 c 1,24,-1
 323 455 l 1,25,-1
 153 455 l 1,26,27
 172 432 172 432 182.5 406 c 128,-1,28
 193 380 193 380 193 355 c 0,29,30
 193 312 193 312 159 278 c 128,-1,31
 125 244 125 244 73 235 c 1,32,33
 80 196 80 196 114 170.5 c 128,-1,34
 148 145 148 145 193 145 c 1,35,-1
 193 145 l 1,21,22
123 -5 m 1,36,-1
 83 30 l 1,37,-1
 123 70 l 1,38,-1
 163 30 l 1,39,-1
 123 -5 l 1,40,-1
 123 -5 l 1,36,-1
EndSplineSet
Ligature: 0 0 'nukt' u092F u093C
EndChar
StartChar: u0960
Encoding: 2400 2400 104
Width: 663
GlyphClass: 2
Flags: W
AnchorPoint: "Anchor-3" 352 12 basechar 0
AnchorPoint: "Anchor-0" 348 476 basechar 0
Fore
-10 455 m 1,0,-1
 -10 500 l 1,1,-1
 673 500 l 1,2,-1
 673 455 l 1,3,-1
 374 455 l 1,4,-1
 374 275 l 1,5,-1
 459 315 l 1,6,7
 453 338 453 338 465.5 356.5 c 128,-1,8
 478 375 478 375 499 375 c 0,9,10
 518 375 518 375 531 363.5 c 128,-1,11
 544 352 544 352 544 335 c 0,12,13
 544 319 544 319 538.5 307 c 128,-1,14
 533 295 533 295 524 290 c 1,15,-1
 559 225 l 1,16,17
 524 219 524 219 501.5 197.5 c 128,-1,18
 479 176 479 176 479 150 c 0,19,20
 479 119 479 119 502.5 97 c 128,-1,21
 526 75 526 75 559 75 c 0,22,23
 572 75 572 75 590 81.5 c 128,-1,24
 608 88 608 88 629 100 c 1,25,-1
 654 55 l 1,26,27
 628 43 628 43 603.5 36.5 c 128,-1,28
 579 30 579 30 559 30 c 0,29,30
 505 30 505 30 467 65 c 128,-1,31
 429 100 429 100 429 150 c 0,32,33
 429 180 429 180 446.5 205.5 c 128,-1,34
 464 231 464 231 494 245 c 1,35,-1
 474 275 l 1,36,-1
 374 230 l 1,37,-1
 374 0 l 1,38,-1
 324 0 l 1,39,-1
 324 190 l 1,40,-1
 119 95 l 1,41,-1
 89 135 l 1,42,-1
 284 225 l 1,43,-1
 224 280 l 2,44,45
 206 301 206 301 187.5 313 c 128,-1,46
 169 325 169 325 154 325 c 0,47,48
 133 325 133 325 103.5 312 c 128,-1,49
 74 299 74 299 39 275 c 1,50,-1
 9 310 l 1,51,52
 51 339 51 339 88 354.5 c 128,-1,53
 125 370 125 370 154 370 c 0,54,55
 172 370 172 370 195 358.5 c 128,-1,56
 218 347 218 347 244 325 c 2,57,-1
 324 245 l 1,58,-1
 324 455 l 1,59,-1
 -10 455 l 1,60,-1
 -10 455 l 1,0,-1
EndSplineSet
EndChar
StartChar: u0961
Encoding: 2401 2401 105
Width: 532
GlyphClass: 2
Flags: W
Fore
188 0 m 1,0,1
 118 30 118 30 75.5 84.5 c 128,-1,2
 33 139 33 139 33 200 c 0,3,4
 33 260 33 260 69.5 302.5 c 128,-1,5
 106 345 106 345 158 345 c 0,6,7
 188 345 188 345 215.5 329 c 128,-1,8
 243 313 243 313 263 285 c 1,9,10
 278 309 278 309 299 324.5 c 128,-1,11
 320 340 320 340 343 345 c 1,12,-1
 343 455 l 1,13,-1
 -10 455 l 1,14,-1
 -10 500 l 1,15,-1
 542 500 l 1,16,-1
 542 455 l 1,17,-1
 393 455 l 1,18,-1
 393 345 l 1,19,20
 440 331 440 331 469 286.5 c 128,-1,21
 498 242 498 242 498 185 c 0,22,23
 498 126 498 126 460 80.5 c 128,-1,24
 422 35 422 35 363 25 c 0,25,26
 348 22 348 22 338 13.5 c 128,-1,27
 328 5 328 5 328 -5 c 0,28,29
 328 -22 328 -22 344 -33.5 c 128,-1,30
 360 -45 360 -45 383 -45 c 2,31,-1
 418 -45 l 1,32,-1
 418 -85 l 1,33,-1
 383 -85 l 2,34,35
 360 -85 360 -85 344 -96 c 128,-1,36
 328 -107 328 -107 328 -123 c 0,37,38
 328 -140 328 -140 344 -152.5 c 128,-1,39
 360 -165 360 -165 383 -165 c 0,40,41
 408 -165 408 -165 432.5 -157.5 c 128,-1,42
 457 -150 457 -150 478 -135 c 1,43,-1
 498 -175 l 1,44,45
 474 -192 474 -192 444.5 -201 c 128,-1,46
 415 -210 415 -210 383 -210 c 0,47,48
 340 -210 340 -210 309 -185 c 128,-1,49
 278 -160 278 -160 278 -125 c 0,50,51
 278 -105 278 -105 290.5 -88.5 c 128,-1,52
 303 -72 303 -72 323 -65 c 1,53,54
 303 -60 303 -60 290.5 -43 c 128,-1,55
 278 -26 278 -26 278 -5 c 0,56,57
 278 26 278 26 301.5 48.5 c 128,-1,58
 325 71 325 71 359 74 c 0,59,60
 397 77 397 77 422.5 109 c 128,-1,61
 448 141 448 141 448 185 c 0,62,63
 448 231 448 231 423 263 c 128,-1,64
 398 295 398 295 363 295 c 0,65,66
 333 295 333 295 305 257 c 128,-1,67
 277 219 277 219 263 160 c 1,68,-1
 213 175 l 1,69,70
 217 193 217 193 223.5 210.5 c 128,-1,71
 230 228 230 228 238 245 c 1,72,73
 224 268 224 268 202.5 281.5 c 128,-1,74
 181 295 181 295 158 295 c 0,75,76
 127 295 127 295 105 267 c 128,-1,77
 83 239 83 239 83 200 c 0,78,79
 83 151 83 151 117 107.5 c 128,-1,80
 151 64 151 64 208 40 c 1,81,-1
 188 0 l 1,82,-1
 188 0 l 1,0,1
EndSplineSet
EndChar
StartChar: u0962
Encoding: 2402 2402 106
Width: 0
GlyphClass: 4
Flags: W
AnchorPoint: "Anchor-3" -106 28 mark 0
Fore
-163 -230 m 1,0,1
 -216 -208 -216 -208 -247.5 -168 c 128,-1,2
 -279 -128 -279 -128 -279 -84 c 256,3,4
 -279 -40 -279 -40 -251.5 -9 c 128,-1,5
 -224 22 -224 22 -185 22 c 0,6,7
 -162 22 -162 22 -142 12 c 128,-1,8
 -122 2 -122 2 -109 -16 c 1,9,10
 -97 2 -97 2 -76.5 12 c 128,-1,11
 -56 22 -56 22 -32 22 c 0,12,13
 7 22 7 22 35 -13.5 c 128,-1,14
 63 -49 63 -49 63 -99 c 0,15,16
 63 -138 63 -138 40 -168.5 c 128,-1,17
 17 -199 17 -199 -20 -208 c 0,18,19
 -43 -214 -43 -214 -57.5 -230.5 c 128,-1,20
 -72 -247 -72 -247 -72 -267 c 256,21,22
 -72 -287 -72 -287 -57 -301 c 128,-1,23
 -42 -315 -42 -315 -20 -315 c 0,24,25
 0 -315 0 -315 17.5 -310 c 128,-1,26
 35 -305 35 -305 48 -296 c 1,27,-1
 60 -329 l 1,28,29
 42 -342 42 -342 21.5 -348.5 c 128,-1,30
 1 -355 1 -355 -20 -355 c 0,31,32
 -58 -355 -58 -355 -85 -329 c 128,-1,33
 -112 -303 -112 -303 -112 -267 c 0,34,35
 -112 -232 -112 -232 -90 -205.5 c 128,-1,36
 -68 -179 -68 -179 -34 -173 c 0,37,38
 -9 -169 -9 -169 7 -148 c 128,-1,39
 23 -127 23 -127 23 -99 c 0,40,41
 23 -65 23 -65 7 -41.5 c 128,-1,42
 -9 -18 -9 -18 -32 -18 c 0,43,44
 -57 -18 -57 -18 -79.5 -46 c 128,-1,45
 -102 -74 -102 -74 -112 -117 c 1,46,-1
 -144 -102 l 1,47,48
 -141 -89 -141 -89 -136.5 -76 c 128,-1,49
 -132 -63 -132 -63 -126 -51 c 1,50,51
 -135 -36 -135 -36 -151 -27 c 128,-1,52
 -167 -18 -167 -18 -185 -18 c 0,53,54
 -207 -18 -207 -18 -223 -37.5 c 128,-1,55
 -239 -57 -239 -57 -239 -84 c 0,56,57
 -239 -118 -239 -118 -214.5 -148.5 c 128,-1,58
 -190 -179 -190 -179 -149 -196 c 1,59,-1
 -163 -230 l 1,60,-1
 -163 -230 l 1,0,1
EndSplineSet
EndChar
StartChar: u0963
Encoding: 2403 2403 107
Width: 0
GlyphClass: 4
Flags: W
AnchorPoint: "Anchor-3" -104 26 mark 0
Fore
-163 -230 m 1,0,1
 -216 -208 -216 -208 -247.5 -168 c 128,-1,2
 -279 -128 -279 -128 -279 -84 c 0,3,4
 -279 -39 -279 -39 -251.5 -7 c 128,-1,5
 -224 25 -224 25 -185 25 c 0,6,7
 -161 25 -161 25 -140 14 c 128,-1,8
 -119 3 -119 3 -106 -16 c 1,9,10
 -94 3 -94 3 -75 14 c 128,-1,11
 -56 25 -56 25 -35 25 c 0,12,13
 7 25 7 25 37 -8.5 c 128,-1,14
 67 -42 67 -42 67 -90 c 0,15,16
 67 -135 67 -135 39.5 -169.5 c 128,-1,17
 12 -204 12 -204 -31 -211 c 0,18,19
 -42 -213 -42 -213 -49.5 -220 c 128,-1,20
 -57 -227 -57 -227 -57 -235 c 0,21,22
 -57 -247 -57 -247 -46 -255 c 128,-1,23
 -35 -263 -35 -263 -20 -263 c 2,24,-1
 4 -263 l 1,25,-1
 4 -292 l 1,26,-1
 -20 -292 l 2,27,28
 -35 -292 -35 -292 -46 -301 c 128,-1,29
 -57 -310 -57 -310 -57 -322 c 0,30,31
 -57 -332 -57 -332 -46 -339.5 c 128,-1,32
 -35 -347 -35 -347 -20 -347 c 0,33,34
 2 -347 2 -347 20.5 -342 c 128,-1,35
 39 -337 39 -337 53 -327 c 1,36,-1
 67 -363 l 1,37,38
 50 -375 50 -375 28 -381 c 128,-1,39
 6 -387 6 -387 -20 -387 c 0,40,41
 -52 -387 -52 -387 -74.5 -368 c 128,-1,42
 -97 -349 -97 -349 -97 -322 c 0,43,44
 -97 -307 -97 -307 -89 -295 c 128,-1,45
 -81 -283 -81 -283 -67 -278 c 1,46,47
 -80 -274 -80 -274 -88.5 -262 c 128,-1,48
 -97 -250 -97 -250 -97 -235 c 0,49,50
 -97 -212 -97 -212 -80 -194.5 c 128,-1,51
 -63 -177 -63 -177 -38 -175 c 0,52,53
 -10 -173 -10 -173 8.5 -148.5 c 128,-1,54
 27 -124 27 -124 27 -90 c 0,55,56
 27 -59 27 -59 9 -37 c 128,-1,57
 -9 -15 -9 -15 -35 -15 c 0,58,59
 -57 -15 -57 -15 -77.5 -42.5 c 128,-1,60
 -98 -70 -98 -70 -108 -113 c 1,61,-1
 -144 -102 l 1,62,63
 -141 -89 -141 -89 -136.5 -76 c 128,-1,64
 -132 -63 -132 -63 -126 -51 c 1,65,66
 -136 -34 -136 -34 -152 -24.5 c 128,-1,67
 -168 -15 -168 -15 -185 -15 c 0,68,69
 -207 -15 -207 -15 -223 -35 c 128,-1,70
 -239 -55 -239 -55 -239 -84 c 0,71,72
 -239 -118 -239 -118 -214 -148.5 c 128,-1,73
 -189 -179 -189 -179 -148 -197 c 1,74,-1
 -163 -230 l 1,75,-1
 -163 -230 l 1,0,1
EndSplineSet
EndChar
StartChar: u0964
Encoding: 2404 2404 108
Width: 275
GlyphClass: 2
Flags: W
Fore
150 0 m 1,0,-1
 150 500 l 1,1,-1
 200 500 l 1,2,-1
 200 0 l 1,3,-1
 150 0 l 1,4,-1
 150 0 l 1,0,-1
EndSplineSet
EndChar
StartChar: u0965
Encoding: 2405 2405 109
Width: 435
GlyphClass: 2
Flags: W
Fore
150 0 m 1,0,-1
 150 500 l 1,1,-1
 200 500 l 1,2,-1
 200 0 l 1,3,-1
 150 0 l 1,4,-1
 150 0 l 1,0,-1
310 0 m 1,5,-1
 310 500 l 1,6,-1
 360 500 l 1,7,-1
 360 0 l 1,8,-1
 310 0 l 1,9,-1
 310 0 l 1,5,-1
EndSplineSet
EndChar
StartChar: u0966
Encoding: 2406 2406 110
Width: 500
GlyphClass: 2
Flags: W
Fore
250 75 m 1,0,1
 178 75 178 75 126.5 126.5 c 128,-1,2
 75 178 75 178 75 250 c 256,3,4
 75 322 75 322 126.5 373.5 c 128,-1,5
 178 425 178 425 250 425 c 256,6,7
 322 425 322 425 373.5 373.5 c 128,-1,8
 425 322 425 322 425 250 c 256,9,10
 425 178 425 178 373.5 126.5 c 128,-1,11
 322 75 322 75 250 75 c 1,12,-1
 250 75 l 1,0,1
250 125 m 1,13,14
 302 125 302 125 338.5 161.5 c 128,-1,15
 375 198 375 198 375 250 c 256,16,17
 375 302 375 302 338.5 338.5 c 128,-1,18
 302 375 302 375 250 375 c 256,19,20
 198 375 198 375 161.5 338.5 c 128,-1,21
 125 302 125 302 125 250 c 256,22,23
 125 198 125 198 161.5 161.5 c 128,-1,24
 198 125 198 125 250 125 c 1,25,-1
 250 125 l 1,13,14
EndSplineSet
EndChar
StartChar: u0967
Encoding: 2407 2407 111
Width: 500
GlyphClass: 2
Flags: W
Fore
335 -25 m 1,0,-1
 335 290 l 1,1,2
 318 273 318 273 294.5 264 c 128,-1,3
 271 255 271 255 245 255 c 0,4,5
 191 255 191 255 153 294.5 c 128,-1,6
 115 334 115 334 115 390 c 256,7,8
 115 446 115 446 153 485.5 c 128,-1,9
 191 525 191 525 245 525 c 0,10,11
 309 525 309 525 347 484 c 128,-1,12
 385 443 385 443 385 375 c 2,13,-1
 385 -25 l 1,14,-1
 335 -25 l 1,15,-1
 335 -25 l 1,0,-1
245 300 m 1,16,17
 280 300 280 300 305 326.5 c 128,-1,18
 330 353 330 353 330 390 c 0,19,20
 330 429 330 429 305 457 c 128,-1,21
 280 485 280 485 245 485 c 0,22,23
 212 485 212 485 188.5 457 c 128,-1,24
 165 429 165 429 165 390 c 0,25,26
 165 353 165 353 188.5 326.5 c 128,-1,27
 212 300 212 300 245 300 c 1,28,-1
 245 300 l 1,16,17
EndSplineSet
EndChar
StartChar: u0968
Encoding: 2408 2408 112
Width: 500
GlyphClass: 2
Flags: W
Fore
360 -35 m 1,0,-1
 230 140 l 1,1,2
 225 138 225 138 216 136.5 c 128,-1,3
 207 135 207 135 195 135 c 0,4,5
 164 135 164 135 142 152.5 c 128,-1,6
 120 170 120 170 120 195 c 0,7,8
 120 212 120 212 134.5 223.5 c 128,-1,9
 149 235 149 235 170 235 c 0,10,11
 189 235 189 235 210 224.5 c 128,-1,12
 231 214 231 214 250 195 c 1,13,14
 302 214 302 214 333.5 258 c 128,-1,15
 365 302 365 302 365 355 c 0,16,17
 365 407 365 407 331.5 443.5 c 128,-1,18
 298 480 298 480 250 480 c 0,19,20
 216 480 216 480 181.5 466 c 128,-1,21
 147 452 147 452 115 425 c 1,22,-1
 85 465 l 1,23,24
 123 496 123 496 165.5 513 c 128,-1,25
 208 530 208 530 250 530 c 0,26,27
 318 530 318 530 366.5 478.5 c 128,-1,28
 415 427 415 427 415 355 c 0,29,30
 415 289 415 289 378 235.5 c 128,-1,31
 341 182 341 182 280 160 c 1,32,-1
 400 -5 l 1,33,-1
 360 -35 l 1,34,-1
 360 -35 l 1,0,-1
EndSplineSet
EndChar
StartChar: u0969
Encoding: 2409 2409 113
Width: 499
GlyphClass: 2
Flags: W
Fore
297 -110 m 1,0,1
 276 -98 276 -98 253 -66 c 128,-1,2
 230 -34 230 -34 207 15 c 1,3,4
 170 15 170 15 143.5 37 c 128,-1,5
 117 59 117 59 117 90 c 0,6,7
 117 107 117 107 130 118.5 c 128,-1,8
 143 130 143 130 162 130 c 0,9,10
 182 130 182 130 203.5 112.5 c 128,-1,11
 225 95 225 95 242 65 c 1,12,13
 288 73 288 73 317.5 102.5 c 128,-1,14
 347 132 347 132 347 170 c 0,15,16
 347 211 347 211 312 240.5 c 128,-1,17
 277 270 277 270 227 270 c 2,18,-1
 172 270 l 1,19,-1
 147 315 l 1,20,-1
 237 315 l 2,21,22
 274 315 274 315 300.5 338.5 c 128,-1,23
 327 362 327 362 327 395 c 0,24,25
 327 426 327 426 299 448 c 128,-1,26
 271 470 271 470 232 470 c 0,27,28
 210 470 210 470 183.5 461 c 128,-1,29
 157 452 157 452 127 435 c 1,30,-1
 102 470 l 1,31,32
 131 494 131 494 165.5 507 c 128,-1,33
 200 520 200 520 237 520 c 0,34,35
 295 520 295 520 336 483.5 c 128,-1,36
 377 447 377 447 377 395 c 0,37,38
 377 364 377 364 359.5 335.5 c 128,-1,39
 342 307 342 307 312 290 c 1,40,41
 351 272 351 272 374 239.5 c 128,-1,42
 397 207 397 207 397 170 c 0,43,44
 397 118 397 118 357.5 77 c 128,-1,45
 318 36 318 36 257 25 c 1,46,47
 281 -17 281 -17 301.5 -42.5 c 128,-1,48
 322 -68 322 -68 337 -75 c 1,49,-1
 297 -110 l 1,50,-1
 297 -110 l 1,0,1
EndSplineSet
EndChar
StartChar: u096A
Encoding: 2410 2410 114
Width: 499
GlyphClass: 2
Flags: W
Fore
252 0 m 1,0,1
 198 0 198 0 160 36.5 c 128,-1,2
 122 73 122 73 122 125 c 0,3,4
 122 164 122 164 146 200 c 128,-1,5
 170 236 170 236 212 260 c 1,6,7
 150 289 150 289 113.5 332.5 c 128,-1,8
 77 376 77 376 77 420 c 0,9,10
 77 445 77 445 89 468.5 c 128,-1,11
 101 492 101 492 122 510 c 1,12,-1
 162 485 l 1,13,14
 145 468 145 468 136 451 c 128,-1,15
 127 434 127 434 127 420 c 0,16,17
 127 382 127 382 161.5 346 c 128,-1,18
 196 310 196 310 252 290 c 1,19,20
 308 322 308 322 340 357 c 128,-1,21
 372 392 372 392 372 420 c 0,22,23
 372 434 372 434 363 452 c 128,-1,24
 354 470 354 470 337 490 c 1,25,-1
 382 515 l 1,26,27
 401 496 401 496 411.5 471 c 128,-1,28
 422 446 422 446 422 420 c 0,29,30
 422 379 422 379 388.5 336 c 128,-1,31
 355 293 355 293 297 260 c 1,32,33
 339 236 339 236 363 200 c 128,-1,34
 387 164 387 164 387 125 c 0,35,36
 387 73 387 73 347.5 36.5 c 128,-1,37
 308 0 308 0 252 0 c 1,38,-1
 252 0 l 1,0,1
252 45 m 1,39,40
 287 45 287 45 312 68.5 c 128,-1,41
 337 92 337 92 337 125 c 0,42,43
 337 155 337 155 314 183.5 c 128,-1,44
 291 212 291 212 252 230 c 1,45,46
 216 217 216 217 194 188 c 128,-1,47
 172 159 172 159 172 125 c 0,48,49
 172 92 172 92 195.5 68.5 c 128,-1,50
 219 45 219 45 252 45 c 1,51,-1
 252 45 l 1,39,40
EndSplineSet
EndChar
StartChar: u096B
Encoding: 2411 2411 115
Width: 500
GlyphClass: 2
Flags: W
Fore
350 -65 m 1,0,-1
 325 -25 l 1,1,2
 346 -10 346 -10 358 6 c 128,-1,3
 370 22 370 22 370 35 c 0,4,5
 370 47 370 47 365 67.5 c 128,-1,6
 360 88 360 88 350 115 c 2,7,-1
 315 230 l 1,8,9
 298 218 298 218 277.5 211.5 c 128,-1,10
 257 205 257 205 235 205 c 0,11,12
 169 205 169 205 122 253.5 c 128,-1,13
 75 302 75 302 75 370 c 0,14,15
 75 417 75 417 85 459 c 128,-1,16
 95 501 95 501 115 535 c 1,17,-1
 160 515 l 1,18,19
 143 485 143 485 134 448 c 128,-1,20
 125 411 125 411 125 370 c 0,21,22
 125 320 125 320 157 285 c 128,-1,23
 189 250 189 250 235 250 c 0,24,25
 253 250 253 250 269.5 255 c 128,-1,26
 286 260 286 260 300 270 c 1,27,28
 295 281 295 281 292.5 302.5 c 128,-1,29
 290 324 290 324 290 355 c 0,30,31
 290 388 290 388 307.5 411.5 c 128,-1,32
 325 435 325 435 350 435 c 0,33,34
 371 435 371 435 385.5 411.5 c 128,-1,35
 400 388 400 388 400 355 c 0,36,37
 400 334 400 334 389.5 311 c 128,-1,38
 379 288 379 288 360 265 c 1,39,-1
 405 115 l 2,40,41
 415 88 415 88 420 67.5 c 128,-1,42
 425 47 425 47 425 35 c 0,43,44
 425 9 425 9 405 -18 c 128,-1,45
 385 -45 385 -45 350 -65 c 1,46,-1
 350 -65 l 1,0,-1
EndSplineSet
EndChar
StartChar: u096C
Encoding: 2412 2412 116
Width: 500
GlyphClass: 2
Flags: W
Fore
375 -125 m 1,0,1
 360 -107 360 -107 342.5 -70.5 c 128,-1,2
 325 -34 325 -34 305 20 c 1,3,4
 228 20 228 20 174 62.5 c 128,-1,5
 120 105 120 105 120 165 c 0,6,7
 120 196 120 196 137.5 224.5 c 128,-1,8
 155 253 155 253 185 270 c 1,9,10
 144 277 144 277 117 311 c 128,-1,11
 90 345 90 345 90 390 c 0,12,13
 90 438 90 438 128 471.5 c 128,-1,14
 166 505 166 505 220 505 c 0,15,16
 255 505 255 505 284.5 498.5 c 128,-1,17
 314 492 314 492 335 480 c 1,18,-1
 320 435 l 1,19,20
 293 445 293 445 267.5 450 c 128,-1,21
 242 455 242 455 220 455 c 0,22,23
 187 455 187 455 163.5 436 c 128,-1,24
 140 417 140 417 140 390 c 0,25,26
 140 353 140 353 166.5 326.5 c 128,-1,27
 193 300 193 300 230 300 c 2,28,-1
 310 300 l 1,29,-1
 330 260 l 1,30,-1
 275 260 l 2,31,32
 232 260 232 260 201 232 c 128,-1,33
 170 204 170 204 170 165 c 0,34,35
 170 124 170 124 208 94.5 c 128,-1,36
 246 65 246 65 300 65 c 1,37,38
 300 98 300 98 319 121.5 c 128,-1,39
 338 145 338 145 365 145 c 0,40,41
 379 145 379 145 389.5 132 c 128,-1,42
 400 119 400 119 400 100 c 0,43,44
 400 80 400 80 388 60 c 128,-1,45
 376 40 376 40 355 25 c 1,46,47
 360 7 360 7 374 -22 c 128,-1,48
 388 -51 388 -51 410 -90 c 1,49,-1
 375 -125 l 1,50,-1
 375 -125 l 1,0,1
EndSplineSet
EndChar
StartChar: u096D
Encoding: 2413 2413 117
Width: 500
GlyphClass: 2
Flags: W
Fore
255 0 m 1,0,1
 176 0 176 0 120.5 77.5 c 128,-1,2
 65 155 65 155 65 265 c 0,3,4
 65 290 65 290 68.5 335 c 128,-1,5
 72 380 72 380 80 475 c 1,6,-1
 135 505 l 1,7,8
 125 448 125 448 120 388 c 128,-1,9
 115 328 115 328 115 265 c 0,10,11
 115 174 115 174 156 109.5 c 128,-1,12
 197 45 197 45 255 45 c 0,13,14
 288 45 288 45 318.5 72.5 c 128,-1,15
 349 100 349 100 365 145 c 1,16,17
 303 145 303 145 259 193.5 c 128,-1,18
 215 242 215 242 215 310 c 0,19,20
 215 370 215 370 246 412.5 c 128,-1,21
 277 455 277 455 320 455 c 0,22,23
 368 455 368 455 401.5 402.5 c 128,-1,24
 435 350 435 350 435 275 c 0,25,26
 435 150 435 150 386 75 c 128,-1,27
 337 0 337 0 255 0 c 1,28,-1
 255 0 l 1,0,1
375 180 m 1,29,30
 380 208 380 208 382.5 232 c 128,-1,31
 385 256 385 256 385 275 c 0,32,33
 385 331 385 331 366 370.5 c 128,-1,34
 347 410 347 410 320 410 c 0,35,36
 295 410 295 410 277.5 380.5 c 128,-1,37
 260 351 260 351 260 310 c 0,38,39
 260 256 260 256 293.5 218 c 128,-1,40
 327 180 327 180 375 180 c 1,41,-1
 375 180 l 1,29,30
EndSplineSet
EndChar
StartChar: u096E
Encoding: 2414 2414 118
Width: 500
GlyphClass: 2
Flags: W
Fore
260 0 m 1,0,1
 183 0 183 0 129 47 c 128,-1,2
 75 94 75 94 75 160 c 0,3,4
 75 188 75 188 86.5 215.5 c 128,-1,5
 98 243 98 243 120 265 c 2,6,-1
 355 510 l 1,7,-1
 390 475 l 1,8,-1
 160 235 l 2,9,10
 146 220 146 220 138 200.5 c 128,-1,11
 130 181 130 181 130 160 c 0,12,13
 130 112 130 112 168 78.5 c 128,-1,14
 206 45 206 45 260 45 c 0,15,16
 290 45 290 45 324 66 c 128,-1,17
 358 87 358 87 390 125 c 1,18,-1
 425 90 l 1,19,20
 389 47 389 47 346 23.5 c 128,-1,21
 303 0 303 0 260 0 c 1,22,-1
 260 0 l 1,0,1
EndSplineSet
EndChar
StartChar: u096F
Encoding: 2415 2415 119
Width: 499
GlyphClass: 2
Flags: W
Fore
312 -70 m 1,0,-1
 297 -25 l 1,1,2
 324 -25 324 -25 343 -14.5 c 128,-1,3
 362 -4 362 -4 362 10 c 0,4,5
 362 18 362 18 353.5 30.5 c 128,-1,6
 345 43 345 43 327 65 c 2,7,-1
 172 235 l 2,8,9
 131 276 131 276 109 321.5 c 128,-1,10
 87 367 87 367 87 410 c 0,11,12
 87 466 87 466 128 505.5 c 128,-1,13
 169 545 169 545 227 545 c 0,14,15
 283 545 283 545 322.5 502.5 c 128,-1,16
 362 460 362 460 362 400 c 0,17,18
 362 342 362 342 328.5 301 c 128,-1,19
 295 260 295 260 247 260 c 0,20,21
 243 260 243 260 235.5 261 c 128,-1,22
 228 262 228 262 212 265 c 1,23,-1
 382 75 l 2,24,25
 397 58 397 58 404.5 41 c 128,-1,26
 412 24 412 24 412 10 c 0,27,28
 412 -20 412 -20 383 -43 c 128,-1,29
 354 -66 354 -66 312 -70 c 1,30,-1
 312 -70 l 1,0,-1
227 305 m 1,31,32
 260 305 260 305 283.5 333 c 128,-1,33
 307 361 307 361 307 400 c 0,34,35
 307 437 307 437 283.5 463.5 c 128,-1,36
 260 490 260 490 227 490 c 0,37,38
 190 490 190 490 163.5 463.5 c 128,-1,39
 137 437 137 437 137 400 c 0,40,41
 137 361 137 361 163.5 333 c 128,-1,42
 190 305 190 305 227 305 c 1,43,-1
 227 305 l 1,31,32
EndSplineSet
EndChar
StartChar: u0970
Encoding: 2416 2416 120
Width: 410
GlyphClass: 2
Flags: W
Fore
205 -5 m 1,0,1
 151 -5 151 -5 113 32.5 c 128,-1,2
 75 70 75 70 75 123 c 256,3,4
 75 176 75 176 113 213.5 c 128,-1,5
 151 251 151 251 205 251 c 256,6,7
 259 251 259 251 297 213.5 c 128,-1,8
 335 176 335 176 335 123 c 256,9,10
 335 70 335 70 297 32.5 c 128,-1,11
 259 -5 259 -5 205 -5 c 1,12,-1
 205 -5 l 1,0,1
206 37 m 1,13,14
 240 37 240 37 264.5 62 c 128,-1,15
 289 87 289 87 289 123 c 256,16,17
 289 159 289 159 264.5 184 c 128,-1,18
 240 209 240 209 206 209 c 256,19,20
 172 209 172 209 147.5 184 c 128,-1,21
 123 159 123 159 123 123 c 256,22,23
 123 87 123 87 147.5 62 c 128,-1,24
 172 37 172 37 206 37 c 1,25,-1
 206 37 l 1,13,14
EndSplineSet
EndChar
StartChar: afii61664
Encoding: 8204 8204 121
Width: 0
GlyphClass: 2
Flags: W
Fore
0 -245 m 1,0,-1
 0 750 l 1,1,-1
 40 750 l 1,2,-1
 40 -245 l 1,3,-1
 0 -245 l 1,4,-1
 0 -245 l 1,0,-1
EndSplineSet
EndChar
StartChar: afii301
Encoding: 8205 8205 122
Width: 0
GlyphClass: 2
Flags: W
Fore
0 -245 m 1,0,-1
 0 750 l 1,1,-1
 170 750 l 1,2,-1
 170 710 l 1,3,-1
 40 710 l 1,4,-1
 40 -245 l 1,5,-1
 0 -245 l 1,6,-1
 0 -245 l 1,0,-1
EndSplineSet
EndChar
StartChar: endash
Encoding: 8211 8211 123
Width: 500
GlyphClass: 2
Flags: W
Fore
0 210 m 1,0,-1
 0 255 l 1,1,-1
 500 255 l 1,2,-1
 500 210 l 1,3,-1
 0 210 l 1,4,-1
 0 210 l 1,0,-1
EndSplineSet
EndChar
StartChar: emdash
Encoding: 8212 8212 124
Width: 1000
GlyphClass: 2
Flags: W
Fore
0 210 m 1,0,-1
 0 255 l 1,1,-1
 1000 255 l 1,2,-1
 1000 210 l 1,3,-1
 0 210 l 1,4,-1
 0 210 l 1,0,-1
EndSplineSet
EndChar
StartChar: quoteleft
Encoding: 8216 8216 125
Width: 265
GlyphClass: 2
Flags: W
Fore
75 435 m 1,0,-1
 150 620 l 1,1,-1
 190 620 l 1,2,-1
 145 435 l 1,3,-1
 75 435 l 1,4,-1
 75 435 l 1,0,-1
EndSplineSet
EndChar
StartChar: quoteright
Encoding: 8217 8217 126
Width: 290
GlyphClass: 2
Flags: W
Fore
75 435 m 1,0,-1
 135 635 l 1,1,-1
 215 635 l 1,2,-1
 120 435 l 1,3,-1
 75 435 l 1,4,-1
 75 435 l 1,0,-1
EndSplineSet
EndChar
StartChar: quotedblleft
Encoding: 8220 8220 127
Width: 405
GlyphClass: 2
Flags: W
Fore
75 435 m 1,0,-1
 150 620 l 1,1,-1
 190 620 l 1,2,-1
 145 435 l 1,3,-1
 75 435 l 1,4,-1
 75 435 l 1,0,-1
215 435 m 1,5,-1
 290 620 l 1,6,-1
 330 620 l 1,7,-1
 285 435 l 1,8,-1
 215 435 l 1,9,-1
 215 435 l 1,5,-1
EndSplineSet
EndChar
StartChar: quotedblright
Encoding: 8221 8221 128
Width: 430
GlyphClass: 2
Flags: W
Fore
75 435 m 1,0,-1
 135 635 l 1,1,-1
 215 635 l 1,2,-1
 120 435 l 1,3,-1
 75 435 l 1,4,-1
 75 435 l 1,0,-1
215 435 m 1,5,-1
 275 635 l 1,6,-1
 355 635 l 1,7,-1
 260 435 l 1,8,-1
 215 435 l 1,9,-1
 215 435 l 1,5,-1
EndSplineSet
EndChar
StartChar: ellipsis
Encoding: 8230 8230 129
Width: 780
GlyphClass: 2
Flags: W
Fore
75 0 m 1,0,-1
 75 45 l 1,1,-1
 185 45 l 1,2,-1
 185 0 l 1,3,-1
 75 0 l 1,4,-1
 75 0 l 1,0,-1
335 0 m 1,5,-1
 335 45 l 1,6,-1
 445 45 l 1,7,-1
 445 0 l 1,8,-1
 335 0 l 1,9,-1
 335 0 l 1,5,-1
595 0 m 1,10,-1
 595 45 l 1,11,-1
 705 45 l 1,12,-1
 705 0 l 1,13,-1
 595 0 l 1,14,-1
 595 0 l 1,10,-1
EndSplineSet
EndChar
StartChar: minus
Encoding: 8722 8722 130
Width: 520
GlyphClass: 2
Flags: W
Fore
75 220 m 1,0,-1
 75 275 l 1,1,-1
 445 275 l 1,2,-1
 445 220 l 1,3,-1
 75 220 l 1,4,-1
 75 220 l 1,0,-1
EndSplineSet
EndChar
StartChar: uni25CC
Encoding: 9676 9676 131
Width: 690
GlyphClass: 2
Flags: W
Fore
309 484 m 1,0,1
 309 499 309 499 319.5 509.5 c 128,-1,2
 330 520 330 520 345 520 c 256,3,4
 360 520 360 520 370.5 509.5 c 128,-1,5
 381 499 381 499 381 484 c 256,6,7
 381 469 381 469 370.5 458.5 c 128,-1,8
 360 448 360 448 345 448 c 256,9,10
 330 448 330 448 319.5 458.5 c 128,-1,11
 309 469 309 469 309 484 c 1,12,-1
 309 484 l 1,0,1
309 16 m 1,13,14
 309 31 309 31 319.5 41.5 c 128,-1,15
 330 52 330 52 345 52 c 256,16,17
 360 52 360 52 370.5 41.5 c 128,-1,18
 381 31 381 31 381 16 c 256,19,20
 381 1 381 1 370.5 -9.5 c 128,-1,21
 360 -20 360 -20 345 -20 c 256,22,23
 330 -20 330 -20 319.5 -9.5 c 128,-1,24
 309 1 309 1 309 16 c 1,25,-1
 309 16 l 1,13,14
75 250 m 1,26,27
 75 265 75 265 85.5 275.5 c 128,-1,28
 96 286 96 286 111 286 c 256,29,30
 126 286 126 286 136.5 275.5 c 128,-1,31
 147 265 147 265 147 250 c 256,32,33
 147 235 147 235 136.5 224.5 c 128,-1,34
 126 214 126 214 111 214 c 256,35,36
 96 214 96 214 85.5 224.5 c 128,-1,37
 75 235 75 235 75 250 c 1,38,-1
 75 250 l 1,26,27
543 250 m 1,39,40
 543 265 543 265 553.5 275.5 c 128,-1,41
 564 286 564 286 579 286 c 256,42,43
 594 286 594 286 604.5 275.5 c 128,-1,44
 615 265 615 265 615 250 c 256,45,46
 615 235 615 235 604.5 224.5 c 128,-1,47
 594 214 594 214 579 214 c 256,48,49
 564 214 564 214 553.5 224.5 c 128,-1,50
 543 235 543 235 543 250 c 1,51,-1
 543 250 l 1,39,40
107 133 m 1,52,53
 107 148 107 148 117.5 158.5 c 128,-1,54
 128 169 128 169 143 169 c 256,55,56
 158 169 158 169 168.5 158.5 c 128,-1,57
 179 148 179 148 179 133 c 256,58,59
 179 118 179 118 168.5 107.5 c 128,-1,60
 158 97 158 97 143 97 c 256,61,62
 128 97 128 97 117.5 107.5 c 128,-1,63
 107 118 107 118 107 133 c 1,64,-1
 107 133 l 1,52,53
512 367 m 1,65,66
 512 382 512 382 522.5 392.5 c 128,-1,67
 533 403 533 403 548 403 c 256,68,69
 563 403 563 403 573.5 392.5 c 128,-1,70
 584 382 584 382 584 367 c 256,71,72
 584 352 584 352 573.5 341.5 c 128,-1,73
 563 331 563 331 548 331 c 256,74,75
 533 331 533 331 522.5 341.5 c 128,-1,76
 512 352 512 352 512 367 c 1,77,-1
 512 367 l 1,65,66
426 453 m 1,78,79
 426 468 426 468 436.5 478.5 c 128,-1,80
 447 489 447 489 462 489 c 256,81,82
 477 489 477 489 487.5 478.5 c 128,-1,83
 498 468 498 468 498 453 c 256,84,85
 498 438 498 438 487.5 427.5 c 128,-1,86
 477 417 477 417 462 417 c 256,87,88
 447 417 447 417 436.5 427.5 c 128,-1,89
 426 438 426 438 426 453 c 1,90,-1
 426 453 l 1,78,79
192 48 m 1,91,92
 192 63 192 63 202.5 73.5 c 128,-1,93
 213 84 213 84 228 84 c 256,94,95
 243 84 243 84 253.5 73.5 c 128,-1,96
 264 63 264 63 264 48 c 256,97,98
 264 33 264 33 253.5 22 c 128,-1,99
 243 11 243 11 228 11 c 256,100,101
 213 11 213 11 202.5 22 c 128,-1,102
 192 33 192 33 192 48 c 1,103,-1
 192 48 l 1,91,92
107 367 m 1,104,105
 107 382 107 382 117.5 392.5 c 128,-1,106
 128 403 128 403 143 403 c 256,107,108
 158 403 158 403 168.5 392.5 c 128,-1,109
 179 382 179 382 179 367 c 256,110,111
 179 352 179 352 168.5 341.5 c 128,-1,112
 158 331 158 331 143 331 c 256,113,114
 128 331 128 331 117.5 341.5 c 128,-1,115
 107 352 107 352 107 367 c 1,116,-1
 107 367 l 1,104,105
512 133 m 1,117,118
 512 148 512 148 522.5 158.5 c 128,-1,119
 533 169 533 169 548 169 c 256,120,121
 563 169 563 169 573.5 158.5 c 128,-1,122
 584 148 584 148 584 133 c 256,123,124
 584 118 584 118 573.5 107.5 c 128,-1,125
 563 97 563 97 548 97 c 256,126,127
 533 97 533 97 522.5 107.5 c 128,-1,128
 512 118 512 118 512 133 c 1,129,-1
 512 133 l 1,117,118
192 453 m 1,130,131
 192 468 192 468 202.5 478.5 c 128,-1,132
 213 489 213 489 228 489 c 256,133,134
 243 489 243 489 253.5 478.5 c 128,-1,135
 264 468 264 468 264 453 c 256,136,137
 264 438 264 438 253.5 427.5 c 128,-1,138
 243 417 243 417 228 417 c 256,139,140
 213 417 213 417 202.5 427.5 c 128,-1,141
 192 438 192 438 192 453 c 1,142,-1
 192 453 l 1,130,131
426 48 m 1,143,144
 426 63 426 63 436.5 73.5 c 128,-1,145
 447 84 447 84 462 84 c 256,146,147
 477 84 477 84 487.5 73.5 c 128,-1,148
 498 63 498 63 498 48 c 256,149,150
 498 33 498 33 487.5 22 c 128,-1,151
 477 11 477 11 462 11 c 256,152,153
 447 11 447 11 436.5 22 c 128,-1,154
 426 33 426 33 426 48 c 1,155,-1
 426 48 l 1,143,144
EndSplineSet
EndChar
StartChar: numbersign
Encoding: 65539 35 132
Width: 702
GlyphClass: 2
Flags: W
Fore
125 338 m 1,0,-1
 125 384 l 1,1,-1
 270 384 l 1,2,-1
 307 502 l 1,3,-1
 353 502 l 1,4,-1
 316 384 l 1,5,-1
 470 384 l 1,6,-1
 507 502 l 1,7,-1
 554 502 l 1,8,-1
 517 384 l 1,9,-1
 627 384 l 1,10,-1
 627 338 l 1,11,-1
 501 338 l 1,12,-1
 451 184 l 1,13,-1
 577 184 l 1,14,-1
 577 136 l 1,15,-1
 436 136 l 1,16,-1
 393 -1 l 1,17,-1
 346 -1 l 1,18,-1
 390 136 l 1,19,-1
 236 136 l 1,20,-1
 192 -1 l 1,21,-1
 146 -1 l 1,22,-1
 190 136 l 1,23,-1
 75 136 l 1,24,-1
 75 184 l 1,25,-1
 204 184 l 1,26,-1
 254 338 l 1,27,-1
 125 338 l 1,28,-1
 125 338 l 1,0,-1
455 338 m 1,29,-1
 301 338 l 1,30,-1
 250 184 l 1,31,-1
 405 184 l 1,32,-1
 455 338 l 1,33,-1
 455 338 l 1,29,-1
EndSplineSet
EndChar
StartChar: dollar
Encoding: 65540 36 133
Width: 535
GlyphClass: 2
Flags: W
Fore
75 169 m 1,0,-1
 121 169 l 1,1,2
 121 124 121 124 154.5 87 c 128,-1,3
 188 50 188 50 240 37 c 1,4,-1
 240 256 l 1,5,6
 175 263 175 263 131 305 c 128,-1,7
 87 347 87 347 87 402 c 0,8,9
 87 455 87 455 130.5 495.5 c 128,-1,10
 174 536 174 536 240 544 c 1,11,-1
 240 630 l 1,12,-1
 289 630 l 1,13,-1
 289 544 l 1,14,15
 356 536 356 536 400.5 492 c 128,-1,16
 445 448 445 448 445 390 c 1,17,-1
 397 390 l 1,18,19
 397 431 397 431 366 462 c 128,-1,20
 335 493 335 493 289 500 c 1,21,-1
 289 292 l 1,22,23
 363 282 363 282 411.5 240 c 128,-1,24
 460 198 460 198 460 146 c 0,25,26
 460 88 460 88 411 44.5 c 128,-1,27
 362 1 362 1 289 -7 c 1,28,-1
 289 -76 l 1,29,-1
 240 -76 l 1,30,-1
 240 -7 l 1,31,32
 169 3 169 3 122 53 c 128,-1,33
 75 103 75 103 75 169 c 1,34,-1
 75 169 l 1,0,-1
289 37 m 1,35,36
 343 43 343 43 379.5 74 c 128,-1,37
 416 105 416 105 416 146 c 0,38,39
 416 186 416 186 379.5 215.5 c 128,-1,40
 343 245 343 245 289 249 c 1,41,-1
 289 37 l 1,42,-1
 289 37 l 1,35,36
240 500 m 1,43,44
 194 491 194 491 164 463.5 c 128,-1,45
 134 436 134 436 134 402 c 0,46,47
 134 365 134 365 164 335.5 c 128,-1,48
 194 306 194 306 240 299 c 1,49,-1
 240 500 l 1,50,-1
 240 500 l 1,43,44
EndSplineSet
EndChar
StartChar: percent
Encoding: 65541 37 134
Width: 665
GlyphClass: 2
Flags: W
Fore
110 0 m 1,0,-1
 500 545 l 1,1,-1
 555 545 l 1,2,-1
 165 0 l 1,3,-1
 110 0 l 1,4,-1
 110 0 l 1,0,-1
197 295 m 1,5,6
 146 295 146 295 110.5 330.5 c 128,-1,7
 75 366 75 366 75 417 c 256,8,9
 75 468 75 468 110.5 504 c 128,-1,10
 146 540 146 540 197 540 c 256,11,12
 248 540 248 540 284 504 c 128,-1,13
 320 468 320 468 320 417 c 256,14,15
 320 366 320 366 284 330.5 c 128,-1,16
 248 295 248 295 197 295 c 1,17,-1
 197 295 l 1,5,6
197 345 m 1,18,19
 227 345 227 345 248.5 366 c 128,-1,20
 270 387 270 387 270 417 c 256,21,22
 270 447 270 447 248.5 468.5 c 128,-1,23
 227 490 227 490 197 490 c 256,24,25
 167 490 167 490 146 468.5 c 128,-1,26
 125 447 125 447 125 417 c 256,27,28
 125 387 125 387 146 366 c 128,-1,29
 167 345 167 345 197 345 c 1,30,-1
 197 345 l 1,18,19
467 5 m 1,31,32
 416 5 416 5 380.5 40.5 c 128,-1,33
 345 76 345 76 345 127 c 256,34,35
 345 178 345 178 380.5 214 c 128,-1,36
 416 250 416 250 467 250 c 256,37,38
 518 250 518 250 554 214 c 128,-1,39
 590 178 590 178 590 127 c 256,40,41
 590 76 590 76 554 40.5 c 128,-1,42
 518 5 518 5 467 5 c 1,43,-1
 467 5 l 1,31,32
467 50 m 1,44,45
 497 50 497 50 518.5 72 c 128,-1,46
 540 94 540 94 540 125 c 256,47,48
 540 156 540 156 518.5 178 c 128,-1,49
 497 200 497 200 467 200 c 256,50,51
 437 200 437 200 416 178 c 128,-1,52
 395 156 395 156 395 125 c 256,53,54
 395 94 395 94 416 72 c 128,-1,55
 437 50 437 50 467 50 c 1,56,-1
 467 50 l 1,44,45
EndSplineSet
EndChar
StartChar: ampersand
Encoding: 65542 38 135
Width: 572
GlyphClass: 2
Flags: W
Fore
75 131 m 1,0,1
 75 174 75 174 109.5 219 c 128,-1,2
 144 264 144 264 204 299 c 1,3,4
 169 343 169 343 151 381.5 c 128,-1,5
 133 420 133 420 133 449 c 0,6,7
 133 492 133 492 168.5 523 c 128,-1,8
 204 554 204 554 254 554 c 0,9,10
 302 554 302 554 336.5 519 c 128,-1,11
 371 484 371 484 371 434 c 0,12,13
 371 395 371 395 344 357 c 128,-1,14
 317 319 317 319 270 292 c 1,15,-1
 379 150 l 1,16,17
 385 174 385 174 388.5 195.5 c 128,-1,18
 392 217 392 217 392 236 c 1,19,-1
 435 236 l 1,20,21
 435 197 435 197 428.5 165.5 c 128,-1,22
 422 134 422 134 409 112 c 1,23,-1
 497 -4 l 1,24,-1
 437 -4 l 1,25,-1
 377 67 l 1,26,27
 352 31 352 31 312.5 10.5 c 128,-1,28
 273 -10 273 -10 229 -10 c 0,29,30
 165 -10 165 -10 120 31.5 c 128,-1,31
 75 73 75 73 75 131 c 1,32,-1
 75 131 l 1,0,1
125 138 m 1,33,34
 125 95 125 95 158 64.5 c 128,-1,35
 191 34 191 34 237 34 c 0,36,37
 270 34 270 34 301.5 53 c 128,-1,38
 333 72 333 72 356 105 c 1,39,-1
 228 264 l 1,40,41
 180 236 180 236 152.5 202.5 c 128,-1,42
 125 169 125 169 125 138 c 1,43,-1
 125 138 l 1,33,34
183 441 m 1,44,45
 183 422 183 422 198 392.5 c 128,-1,46
 213 363 213 363 242 326 c 1,47,48
 278 347 278 347 299 376 c 128,-1,49
 320 405 320 405 320 434 c 0,50,51
 320 466 320 466 302 489 c 128,-1,52
 284 512 284 512 259 512 c 0,53,54
 228 512 228 512 205.5 491 c 128,-1,55
 183 470 183 470 183 441 c 1,56,-1
 183 441 l 1,44,45
EndSplineSet
EndChar
StartChar: asterisk
Encoding: 65543 42 136
Width: 511
GlyphClass: 2
Flags: W
Fore
209 705 m 1,0,1
 209 723 209 723 223 735.5 c 128,-1,2
 237 748 237 748 256 748 c 0,3,4
 273 748 273 748 287 734.5 c 128,-1,5
 301 721 301 721 301 705 c 0,6,7
 301 688 301 688 289.5 655 c 128,-1,8
 278 622 278 622 256 574 c 1,9,10
 232 626 232 626 220.5 657 c 128,-1,11
 209 688 209 688 209 705 c 1,12,-1
 209 705 l 1,0,1
97 587 m 1,13,14
 81 596 81 596 76.5 613.5 c 128,-1,15
 72 631 72 631 81 646 c 256,16,17
 90 661 90 661 108.5 667.5 c 128,-1,18
 127 674 127 674 140 666 c 0,19,20
 156 657 156 657 179.5 630.5 c 128,-1,21
 203 604 203 604 233 561 c 1,22,23
 179 566 179 566 145.5 572 c 128,-1,24
 112 578 112 578 97 587 c 1,25,-1
 97 587 l 1,13,14
140 430 m 1,26,27
 125 421 125 421 108 427 c 128,-1,28
 91 433 91 433 81 449 c 0,29,30
 73 463 73 463 78 481.5 c 128,-1,31
 83 500 83 500 97 508 c 0,32,33
 112 517 112 517 146.5 523.5 c 128,-1,34
 181 530 181 530 233 535 c 1,35,36
 203 492 203 492 179.5 465.5 c 128,-1,37
 156 439 156 439 140 430 c 1,38,-1
 140 430 l 1,26,27
301 391 m 1,39,40
 301 373 301 373 288 360 c 128,-1,41
 275 347 275 347 256 347 c 0,42,43
 239 347 239 347 224 361 c 128,-1,44
 209 375 209 375 209 391 c 0,45,46
 209 408 209 408 220.5 439 c 128,-1,47
 232 470 232 470 256 522 c 1,48,49
 278 474 278 474 289.5 441 c 128,-1,50
 301 408 301 408 301 391 c 1,51,-1
 301 391 l 1,39,40
417 508 m 1,52,53
 431 500 431 500 434.5 482.5 c 128,-1,54
 438 465 438 465 429 449 c 0,55,56
 421 434 421 434 402.5 428 c 128,-1,57
 384 422 384 422 371 430 c 0,58,59
 355 439 355 439 331.5 465.5 c 128,-1,60
 308 492 308 492 278 535 c 1,61,62
 332 530 332 530 367 523.5 c 128,-1,63
 402 517 402 517 417 508 c 1,64,-1
 417 508 l 1,52,53
371 666 m 1,65,66
 385 674 385 674 402 668.5 c 128,-1,67
 419 663 419 663 429 646 c 0,68,69
 437 632 437 632 433.5 613 c 128,-1,70
 430 594 430 594 417 587 c 0,71,72
 402 578 402 578 368 572 c 128,-1,73
 334 566 334 566 278 561 c 1,74,75
 308 604 308 604 331.5 630.5 c 128,-1,76
 355 657 355 657 371 666 c 1,77,-1
 371 666 l 1,65,66
EndSplineSet
EndChar
StartChar: plus
Encoding: 65544 43 137
Width: 655
GlyphClass: 2
Flags: W
Fore
295 15 m 1,0,-1
 295 225 l 1,1,-1
 75 225 l 1,2,-1
 75 290 l 1,3,-1
 295 290 l 1,4,-1
 295 495 l 1,5,-1
 360 495 l 1,6,-1
 360 290 l 1,7,-1
 580 290 l 1,8,-1
 580 225 l 1,9,-1
 360 225 l 1,10,-1
 360 15 l 1,11,-1
 295 15 l 1,12,-1
 295 15 l 1,0,-1
EndSplineSet
EndChar
StartChar: slash
Encoding: 65545 47 138
Width: 505
GlyphClass: 2
Flags: W
Fore
75 -135 m 1,0,-1
 370 665 l 1,1,-1
 430 665 l 1,2,-1
 135 -135 l 1,3,-1
 75 -135 l 1,4,-1
 75 -135 l 1,0,-1
EndSplineSet
EndChar
StartChar: zero
Encoding: 65546 48 139
Width: 476
GlyphClass: 2
Flags: W
Fore
49 263 m 1,0,1
 49 366 49 366 100 443 c 128,-1,2
 151 520 151 520 238 520 c 256,3,4
 325 520 325 520 376 443 c 128,-1,5
 427 366 427 366 427 263 c 0,6,7
 427 157 427 157 376.5 78.5 c 128,-1,8
 326 0 326 0 238 0 c 256,9,10
 150 0 150 0 99.5 78.5 c 128,-1,11
 49 157 49 157 49 263 c 1,12,-1
 49 263 l 1,0,1
102 263 m 1,13,14
 102 178 102 178 136.5 115.5 c 128,-1,15
 171 53 171 53 238 53 c 256,16,17
 305 53 305 53 340 115.5 c 128,-1,18
 375 178 375 178 375 263 c 0,19,20
 375 345 375 345 339.5 406 c 128,-1,21
 304 467 304 467 238 467 c 256,22,23
 172 467 172 467 137 406 c 128,-1,24
 102 345 102 345 102 263 c 1,25,-1
 102 263 l 1,13,14
EndSplineSet
EndChar
StartChar: one
Encoding: 65547 49 140
Width: 477
GlyphClass: 2
Flags: W
Fore
145 381 m 1,0,-1
 145 431 l 1,1,2
 202 431 202 431 246 459 c 128,-1,3
 290 487 290 487 294 536 c 1,4,-1
 332 536 l 1,5,-1
 332 0 l 1,6,-1
 272 0 l 1,7,-1
 272 381 l 1,8,-1
 145 381 l 1,9,-1
 145 381 l 1,0,-1
EndSplineSet
EndChar
StartChar: two
Encoding: 65548 50 141
Width: 476
GlyphClass: 2
Flags: W
Fore
59 5 m 1,0,1
 59 81 59 81 109.5 144 c 128,-1,2
 160 207 160 207 241 254 c 0,3,4
 293 284 293 284 324.5 318.5 c 128,-1,5
 356 353 356 353 356 397 c 0,6,7
 356 438 356 438 321.5 464 c 128,-1,8
 287 490 287 490 241 490 c 0,9,10
 193 490 193 490 159 456.5 c 128,-1,11
 125 423 125 423 125 375 c 2,12,-1
 125 342 l 1,13,-1
 64 342 l 1,14,-1
 64 375 l 2,15,16
 64 446 64 446 116 496 c 128,-1,17
 168 546 168 546 241 546 c 0,18,19
 312 546 312 546 364.5 504 c 128,-1,20
 417 462 417 462 417 397 c 0,21,22
 417 340 417 340 379 292.5 c 128,-1,23
 341 245 341 245 280 210 c 0,24,25
 275 207 275 207 208 169 c 128,-1,26
 141 131 141 131 130 66 c 1,27,-1
 417 66 l 1,28,-1
 417 5 l 1,29,-1
 59 5 l 1,30,-1
 59 5 l 1,0,1
EndSplineSet
EndChar
StartChar: three
Encoding: 65549 51 142
Width: 477
GlyphClass: 2
Flags: W
Fore
51 166 m 1,0,-1
 105 166 l 1,1,2
 105 116 105 116 144.5 83 c 128,-1,3
 184 50 184 50 238 50 c 0,4,5
 289 50 289 50 327 81.5 c 128,-1,6
 365 113 365 113 365 161 c 0,7,8
 365 203 365 203 327 226 c 128,-1,9
 289 249 289 249 238 249 c 2,10,-1
 188 249 l 1,11,-1
 188 310 l 1,12,-1
 238 310 l 2,13,14
 278 310 278 310 307.5 335 c 128,-1,15
 337 360 337 360 337 398 c 0,16,17
 337 434 337 434 307.5 457 c 128,-1,18
 278 480 278 480 238 480 c 0,19,20
 189 480 189 480 153 450.5 c 128,-1,21
 117 421 117 421 117 376 c 1,22,-1
 56 376 l 1,23,24
 56 444 56 444 108 490 c 128,-1,25
 160 536 160 536 232 536 c 0,26,27
 298 536 298 536 347.5 497 c 128,-1,28
 397 458 397 458 397 398 c 0,29,30
 397 361 397 361 381.5 329.5 c 128,-1,31
 366 298 366 298 337 281 c 1,32,33
 377 270 377 270 401.5 236.5 c 128,-1,34
 426 203 426 203 426 161 c 0,35,36
 426 88 426 88 370.5 38.5 c 128,-1,37
 315 -11 315 -11 238 -11 c 256,38,39
 161 -11 161 -11 106 40.5 c 128,-1,40
 51 92 51 92 51 166 c 1,41,-1
 51 166 l 1,0,-1
EndSplineSet
EndChar
StartChar: four
Encoding: 65550 52 143
Width: 477
GlyphClass: 2
Flags: W
Fore
57 139 m 1,0,-1
 57 193 l 1,1,-1
 288 536 l 1,2,-1
 349 536 l 1,3,-1
 349 193 l 1,4,-1
 420 193 l 1,5,-1
 420 139 l 1,6,-1
 349 139 l 1,7,-1
 349 0 l 1,8,-1
 288 0 l 1,9,-1
 288 139 l 1,10,-1
 57 139 l 1,11,-1
 57 139 l 1,0,-1
123 193 m 1,12,-1
 288 193 l 1,13,-1
 288 431 l 1,14,-1
 123 193 l 1,15,-1
 123 193 l 1,12,-1
EndSplineSet
EndChar
StartChar: five
Encoding: 65551 53 144
Width: 477
GlyphClass: 2
Flags: W
Fore
51 166 m 1,0,-1
 105 166 l 1,1,2
 105 120 105 120 143 90.5 c 128,-1,3
 181 61 181 61 232 61 c 0,4,5
 286 61 286 61 325.5 96 c 128,-1,6
 365 131 365 131 365 183 c 0,7,8
 365 236 365 236 325.5 272.5 c 128,-1,9
 286 309 286 309 232 309 c 0,10,11
 197 309 197 309 165 294.5 c 128,-1,12
 133 280 133 280 111 254 c 1,13,-1
 51 254 l 1,14,-1
 105 529 l 1,15,-1
 387 529 l 1,16,-1
 387 475 l 1,17,-1
 155 475 l 1,18,-1
 133 337 l 1,19,20
 149 356 149 356 174 363 c 128,-1,21
 199 370 199 370 232 370 c 0,22,23
 312 370 312 370 369 315.5 c 128,-1,24
 426 261 426 261 426 183 c 0,25,26
 426 106 426 106 368.5 53 c 128,-1,27
 311 0 311 0 232 0 c 0,28,29
 158 0 158 0 104.5 48 c 128,-1,30
 51 96 51 96 51 166 c 1,31,-1
 51 166 l 1,0,-1
EndSplineSet
EndChar
StartChar: six
Encoding: 65552 54 145
Width: 477
GlyphClass: 2
Flags: W
Fore
51 200 m 1,0,-1
 51 266 l 2,1,2
 51 374 51 374 106 455 c 128,-1,3
 161 536 161 536 254 536 c 0,4,5
 319 536 319 536 366.5 492.5 c 128,-1,6
 414 449 414 449 414 386 c 1,7,-1
 359 386 l 1,8,9
 359 426 359 426 328 453 c 128,-1,10
 297 480 297 480 254 480 c 0,11,12
 186 480 186 480 148.5 417.5 c 128,-1,13
 111 355 111 355 111 271 c 1,14,15
 127 305 127 305 161.5 323.5 c 128,-1,16
 196 342 196 342 238 342 c 0,17,18
 314 342 314 342 370 293 c 128,-1,19
 426 244 426 244 426 171 c 0,20,21
 426 95 426 95 370.5 42 c 128,-1,22
 315 -11 315 -11 238 -11 c 0,23,24
 158 -11 158 -11 104.5 52 c 128,-1,25
 51 115 51 115 51 200 c 1,26,-1
 51 200 l 1,0,-1
122 166 m 1,27,28
 122 118 122 118 156 84 c 128,-1,29
 190 50 190 50 238 50 c 0,30,31
 290 50 290 50 327.5 85 c 128,-1,32
 365 120 365 120 365 171 c 0,33,34
 365 221 365 221 327.5 254.5 c 128,-1,35
 290 288 290 288 238 288 c 0,36,37
 189 288 189 288 155.5 252 c 128,-1,38
 122 216 122 216 122 166 c 1,39,-1
 122 166 l 1,27,28
EndSplineSet
EndChar
StartChar: seven
Encoding: 65553 55 146
Width: 477
GlyphClass: 2
Flags: W
Fore
40 475 m 1,0,-1
 40 529 l 1,1,-1
 437 529 l 1,2,-1
 437 475 l 1,3,4
 332 401 332 401 282.5 275 c 128,-1,5
 233 149 233 149 233 0 c 1,6,-1
 162 0 l 1,7,8
 162 143 162 143 209 268 c 128,-1,9
 256 393 256 393 354 475 c 1,10,-1
 40 475 l 1,11,-1
 40 475 l 1,0,-1
EndSplineSet
EndChar
StartChar: eight
Encoding: 65554 56 147
Width: 477
GlyphClass: 2
Flags: W
Fore
40 161 m 1,0,1
 40 204 40 204 69 238 c 128,-1,2
 98 272 98 272 143 288 c 1,3,4
 107 309 107 309 84.5 336.5 c 128,-1,5
 62 364 62 364 62 398 c 0,6,7
 62 459 62 459 113 497.5 c 128,-1,8
 164 536 164 536 233 536 c 0,9,10
 304 536 304 536 357 498 c 128,-1,11
 410 460 410 460 410 398 c 0,12,13
 410 364 410 364 389 336 c 128,-1,14
 368 308 368 308 334 288 c 1,15,16
 379 272 379 272 408 238 c 128,-1,17
 437 204 437 204 437 161 c 0,18,19
 437 86 437 86 376 37.5 c 128,-1,20
 315 -11 315 -11 233 -11 c 0,21,22
 155 -11 155 -11 97.5 38 c 128,-1,23
 40 87 40 87 40 161 c 1,24,-1
 40 161 l 1,0,1
96 161 m 1,25,26
 96 112 96 112 137 81 c 128,-1,27
 178 50 178 50 233 50 c 0,28,29
 290 50 290 50 333 80.5 c 128,-1,30
 376 111 376 111 376 161 c 0,31,32
 376 208 376 208 333.5 233.5 c 128,-1,33
 291 259 291 259 233 259 c 0,34,35
 178 259 178 259 137 233 c 128,-1,36
 96 207 96 207 96 161 c 1,37,-1
 96 161 l 1,25,26
123 398 m 1,38,39
 123 360 123 360 156 337.5 c 128,-1,40
 189 315 189 315 233 315 c 0,41,42
 280 315 280 315 314.5 337 c 128,-1,43
 349 359 349 359 349 398 c 256,44,45
 349 437 349 437 314.5 458.5 c 128,-1,46
 280 480 280 480 233 480 c 0,47,48
 189 480 189 480 156 458 c 128,-1,49
 123 436 123 436 123 398 c 1,50,-1
 123 398 l 1,38,39
EndSplineSet
EndChar
StartChar: nine
Encoding: 65555 57 148
Width: 477
GlyphClass: 2
Flags: W
Fore
57 364 m 1,0,1
 57 436 57 436 108.5 486 c 128,-1,2
 160 536 160 536 233 536 c 0,3,4
 312 536 312 536 366 475.5 c 128,-1,5
 420 415 420 415 420 332 c 2,6,-1
 420 266 l 2,7,8
 420 140 420 140 367.5 64.5 c 128,-1,9
 315 -11 315 -11 228 -11 c 0,10,11
 164 -11 164 -11 119 34.5 c 128,-1,12
 74 80 74 80 74 144 c 1,13,-1
 134 144 l 1,14,15
 134 105 134 105 161.5 77.5 c 128,-1,16
 189 50 189 50 228 50 c 0,17,18
 285 50 285 50 319.5 104.5 c 128,-1,19
 354 159 354 159 354 249 c 1,20,21
 330 225 330 225 298.5 212.5 c 128,-1,22
 267 200 267 200 233 200 c 0,23,24
 161 200 161 200 109 247.5 c 128,-1,25
 57 295 57 295 57 364 c 1,26,-1
 57 364 l 1,0,1
118 364 m 1,27,28
 118 316 118 316 151.5 282.5 c 128,-1,29
 185 249 185 249 233 249 c 0,30,31
 283 249 283 249 318.5 282.5 c 128,-1,32
 354 316 354 316 354 364 c 0,33,34
 354 413 354 413 318.5 446.5 c 128,-1,35
 283 480 283 480 233 480 c 0,36,37
 185 480 185 480 151.5 446 c 128,-1,38
 118 412 118 412 118 364 c 1,39,-1
 118 364 l 1,27,28
EndSplineSet
EndChar
StartChar: less
Encoding: 65556 60 149
Width: 497
GlyphClass: 2
Flags: W
Fore
75 218 m 1,0,-1
 75 277 l 1,1,-1
 422 484 l 1,2,-1
 422 430 l 1,3,-1
 124 250 l 1,4,-1
 422 70 l 1,5,-1
 422 14 l 1,6,-1
 75 218 l 1,7,-1
 75 218 l 1,0,-1
EndSplineSet
EndChar
StartChar: equal
Encoding: 65557 61 150
Width: 600
GlyphClass: 2
Flags: W
Fore
75 115 m 1,0,-1
 75 165 l 1,1,-1
 525 165 l 1,2,-1
 525 115 l 1,3,-1
 75 115 l 1,4,-1
 75 115 l 1,0,-1
75 275 m 1,5,-1
 75 325 l 1,6,-1
 525 325 l 1,7,-1
 525 275 l 1,8,-1
 75 275 l 1,9,-1
 75 275 l 1,5,-1
EndSplineSet
EndChar
StartChar: greater
Encoding: 65558 62 151
Width: 497
GlyphClass: 2
Flags: W
Fore
422 218 m 1,0,-1
 75 14 l 1,1,-1
 75 70 l 1,2,-1
 373 250 l 1,3,-1
 75 430 l 1,4,-1
 75 484 l 1,5,-1
 422 277 l 1,6,-1
 422 218 l 1,7,-1
 422 218 l 1,0,-1
EndSplineSet
EndChar
StartChar: at
Encoding: 65559 64 152
Width: 784
GlyphClass: 2
Flags: W
Fore
238 240 m 1,0,1
 238 299 238 299 278.5 341.5 c 128,-1,2
 319 384 319 384 377 384 c 0,3,4
 403 384 403 384 426.5 373.5 c 128,-1,5
 450 363 450 363 467 343 c 1,6,-1
 467 379 l 1,7,-1
 517 379 l 1,8,-1
 517 156 l 2,9,10
 517 141 517 141 530 130 c 128,-1,11
 543 119 543 119 562 119 c 0,12,13
 603 119 603 119 632 159.5 c 128,-1,14
 661 200 661 200 661 258 c 0,15,16
 661 357 661 357 585 427 c 128,-1,17
 509 497 509 497 402 497 c 0,18,19
 286 497 286 497 204 420.5 c 128,-1,20
 122 344 122 344 122 236 c 0,21,22
 122 138 122 138 204 69 c 128,-1,23
 286 0 286 0 402 0 c 0,24,25
 447 0 447 0 486.5 12 c 128,-1,26
 526 24 526 24 556 47 c 1,27,-1
 580 6 l 1,28,29
 542 -20 542 -20 496.5 -34 c 128,-1,30
 451 -48 451 -48 402 -48 c 0,31,32
 267 -48 267 -48 171 35 c 128,-1,33
 75 118 75 118 75 236 c 0,34,35
 75 363 75 363 171 453 c 128,-1,36
 267 543 267 543 402 543 c 0,37,38
 529 543 529 543 619 459.5 c 128,-1,39
 709 376 709 376 709 258 c 0,40,41
 709 181 709 181 666 126 c 128,-1,42
 623 71 623 71 562 71 c 0,43,44
 527 71 527 71 500.5 89.5 c 128,-1,45
 474 108 474 108 469 137 c 1,46,47
 456 114 456 114 431 101.5 c 128,-1,48
 406 89 406 89 377 89 c 0,49,50
 318 89 318 89 278 133.5 c 128,-1,51
 238 178 238 178 238 240 c 1,52,-1
 238 240 l 1,0,1
287 240 m 1,53,54
 287 199 287 199 313 169 c 128,-1,55
 339 139 339 139 377 139 c 256,56,57
 415 139 415 139 441 169 c 128,-1,58
 467 199 467 199 467 240 c 256,59,60
 467 281 467 281 441 310.5 c 128,-1,61
 415 340 415 340 377 340 c 256,62,63
 339 340 339 340 313 310.5 c 128,-1,64
 287 281 287 281 287 240 c 1,65,-1
 287 240 l 1,53,54
EndSplineSet
EndChar
StartChar: bracketleft
Encoding: 65560 91 153
Width: 295
GlyphClass: 2
Flags: W
Fore
75 -200 m 1,0,-1
 75 710 l 1,1,-1
 220 710 l 1,2,-1
 220 655 l 1,3,-1
 125 655 l 1,4,-1
 125 -145 l 1,5,-1
 220 -145 l 1,6,-1
 220 -200 l 1,7,-1
 75 -200 l 1,8,-1
 75 -200 l 1,0,-1
EndSplineSet
EndChar
StartChar: backslash
Encoding: 65561 92 154
Width: 455
GlyphClass: 2
Flags: W
Fore
380 -97 m 1,0,-1
 329 -97 l 1,1,-1
 75 610 l 1,2,-1
 126 610 l 1,3,-1
 380 -97 l 1,4,-1
 380 -97 l 1,0,-1
EndSplineSet
EndChar
StartChar: bracketright
Encoding: 65562 93 155
Width: 295
GlyphClass: 2
Flags: W
Fore
75 -200 m 1,0,-1
 75 -145 l 1,1,-1
 165 -145 l 1,2,-1
 165 655 l 1,3,-1
 75 655 l 1,4,-1
 75 710 l 1,5,-1
 220 710 l 1,6,-1
 220 -200 l 1,7,-1
 75 -200 l 1,8,-1
 75 -200 l 1,0,-1
EndSplineSet
EndChar
StartChar: asciicircum
Encoding: 65563 94 156
Width: 504
GlyphClass: 4
Flags: W
Fore
218 361 m 1,0,-1
 283 361 l 1,1,-1
 429 104 l 1,2,-1
 370 104 l 1,3,-1
 252 318 l 1,4,-1
 134 104 l 1,5,-1
 75 104 l 1,6,-1
 218 361 l 1,7,-1
 218 361 l 1,0,-1
EndSplineSet
EndChar
StartChar: braceleft
Encoding: 65564 123 157
Width: 364
GlyphClass: 2
Flags: W
Fore
75 233 m 1,0,1
 106 233 106 233 128.5 258.5 c 128,-1,2
 151 284 151 284 151 320 c 2,3,-1
 151 419 l 2,4,5
 151 489 151 489 191.5 538.5 c 128,-1,6
 232 588 232 588 289 588 c 1,7,-1
 289 549 l 1,8,9
 252 549 252 549 225.5 511 c 128,-1,10
 199 473 199 473 199 419 c 2,11,-1
 199 320 l 2,12,13
 199 286 199 286 182 259 c 128,-1,14
 165 232 165 232 137 222 c 1,15,16
 165 212 165 212 182 184.5 c 128,-1,17
 199 157 199 157 199 122 c 2,18,-1
 199 24 l 2,19,20
 199 -30 199 -30 225.5 -68 c 128,-1,21
 252 -106 252 -106 289 -106 c 1,22,-1
 289 -146 l 1,23,24
 232 -146 232 -146 191.5 -96 c 128,-1,25
 151 -46 151 -46 151 24 c 2,26,-1
 151 122 l 2,27,28
 151 157 151 157 128.5 181.5 c 128,-1,29
 106 206 106 206 75 206 c 1,30,-1
 75 233 l 1,31,-1
 75 233 l 1,0,1
EndSplineSet
EndChar
StartChar: bar
Encoding: 65565 124 158
Width: 200
GlyphClass: 2
Flags: W
Fore
75 -245 m 1,0,-1
 75 750 l 1,1,-1
 125 750 l 1,2,-1
 125 -245 l 1,3,-1
 75 -245 l 1,4,-1
 75 -245 l 1,0,-1
EndSplineSet
EndChar
StartChar: braceright
Encoding: 65566 125 159
Width: 365
GlyphClass: 2
Flags: W
Fore
290 259 m 1,0,-1
 290 232 l 1,1,2
 259 232 259 232 236.5 207.5 c 128,-1,3
 214 183 214 183 214 148 c 2,4,-1
 214 50 l 2,5,6
 214 -20 214 -20 173.5 -70 c 128,-1,7
 133 -120 133 -120 75 -120 c 1,8,-1
 75 -80 l 1,9,10
 113 -80 113 -80 139.5 -42 c 128,-1,11
 166 -4 166 -4 166 50 c 2,12,-1
 166 148 l 2,13,14
 166 181 166 181 183.5 208 c 128,-1,15
 201 235 201 235 230 245 c 1,16,17
 201 255 201 255 183.5 283 c 128,-1,18
 166 311 166 311 166 346 c 2,19,-1
 166 445 l 2,20,21
 166 499 166 499 139.5 537 c 128,-1,22
 113 575 113 575 75 575 c 1,23,-1
 75 614 l 1,24,25
 133 614 133 614 173.5 564.5 c 128,-1,26
 214 515 214 515 214 445 c 2,27,-1
 214 346 l 2,28,29
 214 310 214 310 236.5 284.5 c 128,-1,30
 259 259 259 259 290 259 c 1,31,-1
 290 259 l 1,0,-1
EndSplineSet
EndChar
StartChar: asciitilde
Encoding: 65567 126 160
Width: 542
GlyphClass: 2
Flags: W
Fore
102 228 m 1,0,-1
 75 262 l 1,1,2
 100 283 100 283 127.5 294.5 c 128,-1,3
 155 306 155 306 181 306 c 256,4,5
 207 306 207 306 228.5 300 c 128,-1,6
 250 294 250 294 264 282 c 0,7,8
 287 263 287 263 308 252.5 c 128,-1,9
 329 242 329 242 345 242 c 0,10,11
 372 242 372 242 396.5 254 c 128,-1,12
 421 266 421 266 439 287 c 1,13,-1
 467 255 l 1,14,15
 445 229 445 229 413 214.5 c 128,-1,16
 381 200 381 200 345 200 c 0,17,18
 322 200 322 200 301 207 c 128,-1,19
 280 214 280 214 264 228 c 0,20,21
 247 243 247 243 225.5 250.5 c 128,-1,22
 204 258 204 258 182 258 c 0,23,24
 161 258 161 258 140 250.5 c 128,-1,25
 119 243 119 243 102 228 c 1,26,-1
 102 228 l 1,0,-1
EndSplineSet
EndChar
StartChar: cent
Encoding: 65568 162 161
Width: 563
GlyphClass: 2
Flags: W
Fore
75 250 m 1,0,1
 75 363 75 363 132 431.5 c 128,-1,2
 189 500 189 500 284 500 c 0,3,4
 303 500 303 500 319.5 498 c 128,-1,5
 336 496 336 496 350 493 c 1,6,-1
 395 604 l 1,7,-1
 445 604 l 1,8,-1
 394 473 l 1,9,10
 433 447 433 447 457 410.5 c 128,-1,11
 481 374 481 374 484 335 c 1,12,-1
 428 335 l 1,13,14
 426 358 426 358 413 382 c 128,-1,15
 400 406 400 406 377 428 c 1,16,-1
 232 53 l 1,17,18
 247 49 247 49 260 46.5 c 128,-1,19
 273 44 273 44 284 44 c 0,20,21
 347 44 347 44 388 78.5 c 128,-1,22
 429 113 429 113 434 171 c 1,23,-1
 488 171 l 1,24,25
 481 92 481 92 425.5 45 c 128,-1,26
 370 -2 370 -2 284 -2 c 0,27,28
 267 -2 267 -2 249 0.5 c 128,-1,29
 231 3 231 3 214 8 c 1,30,-1
 174 -94 l 1,31,-1
 124 -94 l 1,32,-1
 172 28 l 1,33,34
 126 61 126 61 100.5 120 c 128,-1,35
 75 179 75 179 75 250 c 1,36,-1
 75 250 l 1,0,1
335 447 m 1,37,38
 319 450 319 450 306 452 c 128,-1,39
 293 454 293 454 284 454 c 0,40,41
 214 454 214 454 171.5 398.5 c 128,-1,42
 129 343 129 343 129 250 c 0,43,44
 129 199 129 199 144.5 154 c 128,-1,45
 160 109 160 109 189 76 c 1,46,-1
 335 447 l 1,47,-1
 335 447 l 1,37,38
EndSplineSet
EndChar
StartChar: multiply
Encoding: 65569 215 162
Width: 500
GlyphClass: 2
Flags: W
Fore
115 70 m 1,0,-1
 75 110 l 1,1,-1
 210 245 l 1,2,-1
 75 380 l 1,3,-1
 115 420 l 1,4,-1
 250 285 l 1,5,-1
 385 420 l 1,6,-1
 425 380 l 1,7,-1
 290 245 l 1,8,-1
 425 110 l 1,9,-1
 385 70 l 1,10,-1
 250 205 l 1,11,-1
 115 70 l 1,12,-1
 115 70 l 1,0,-1
EndSplineSet
EndChar
StartChar: divide
Encoding: 65570 247 163
Width: 625
GlyphClass: 2
Flags: W
Fore
375 415 m 1,0,1
 375 390 375 390 357.5 372.5 c 128,-1,2
 340 355 340 355 315 355 c 0,3,4
 292 355 292 355 276 372.5 c 128,-1,5
 260 390 260 390 260 415 c 256,6,7
 260 440 260 440 277.5 457.5 c 128,-1,8
 295 475 295 475 320 475 c 0,9,10
 343 475 343 475 359 457.5 c 128,-1,11
 375 440 375 440 375 415 c 1,12,-1
 375 415 l 1,0,1
550 215 m 1,13,-1
 75 215 l 1,14,-1
 75 275 l 1,15,-1
 550 275 l 1,16,-1
 550 215 l 1,17,-1
 550 215 l 1,13,-1
375 80 m 1,18,19
 375 55 375 55 357.5 37.5 c 128,-1,20
 340 20 340 20 315 20 c 0,21,22
 292 20 292 20 276 37.5 c 128,-1,23
 260 55 260 55 260 80 c 0,24,25
 260 103 260 103 276 119 c 128,-1,26
 292 135 292 135 315 135 c 0,27,28
 340 135 340 135 357.5 119 c 128,-1,29
 375 103 375 103 375 80 c 1,30,-1
 375 80 l 1,18,19
EndSplineSet
EndChar
StartChar: u0947_u0902.abvs
Encoding: 65571 -1 164
Width: 0
GlyphClass: 4
Flags: W
AnchorPoint: "Anchor-0" -92 478 mark 0
Fore
-127 500 m 1,0,-1
 -312 715 l 1,1,-1
 -277 750 l 1,2,-1
 -77 500 l 1,3,-1
 -127 500 l 1,4,-1
 -127 500 l 1,0,-1
-102 650 m 1,5,-1
 -102 720 l 1,6,-1
 -27 720 l 1,7,-1
 -27 650 l 1,8,-1
 -102 650 l 1,9,-1
 -102 650 l 1,5,-1
EndSplineSet
Ligature: 0 0 'abvs' u0947 u0902
EndChar
StartChar: u0947_u0930_u094D.rphf.abvs
Encoding: 65572 -1 165
Width: 0
GlyphClass: 4
Flags: W
AnchorPoint: "Anchor-0" -88 484 mark 0
Fore
-117 500 m 1,0,-1
 -312 715 l 1,1,-1
 -277 750 l 1,2,-1
 -167 620 l 1,3,4
 -161 659 -161 659 -128.5 684.5 c 128,-1,5
 -96 710 -96 710 -52 710 c 0,6,7
 -35 710 -35 710 -17 705 c 128,-1,8
 1 700 1 700 18 690 c 1,9,-1
 3 655 l 1,10,11
 -10 662 -10 662 -24 666 c 128,-1,12
 -38 670 -38 670 -52 670 c 0,13,14
 -81 670 -81 670 -101.5 649.5 c 128,-1,15
 -122 629 -122 629 -122 600 c 0,16,17
 -122 582 -122 582 -119.5 569 c 128,-1,18
 -117 556 -117 556 -112 550 c 2,19,-1
 -67 500 l 1,20,-1
 -117 500 l 1,21,-1
 -117 500 l 1,0,-1
EndSplineSet
Ligature: 0 0 'abvs' u0947 u0930_u094D.rphf
PairPos: 0 0 'abvm' u0902 dx=0 dy=0 dh=0 dv=0 dx=70 dy=-73 dh=0 dv=0
EndChar
StartChar: u0947_u0930_u094D.rphf.abvs_u0902.abvs
Encoding: 65573 -1 166
Width: 0
GlyphClass: 4
Flags: W
AnchorPoint: "Anchor-0" -96 484 mark 0
Fore
-72 560 m 1,0,-1
 -72 615 l 1,1,-1
 -22 615 l 1,2,-1
 -22 560 l 1,3,-1
 -72 560 l 1,4,-1
 -72 560 l 1,0,-1
-117 500 m 1,5,-1
 -302 720 l 1,6,-1
 -267 750 l 1,7,-1
 -167 615 l 1,8,9
 -161 656 -161 656 -128 683 c 128,-1,10
 -95 710 -95 710 -52 710 c 0,11,12
 -33 710 -33 710 -15.5 706 c 128,-1,13
 2 702 2 702 18 695 c 1,14,-1
 3 655 l 1,15,16
 -10 662 -10 662 -24 666 c 128,-1,17
 -38 670 -38 670 -52 670 c 0,18,19
 -81 670 -81 670 -101.5 649.5 c 128,-1,20
 -122 629 -122 629 -122 600 c 0,21,22
 -122 582 -122 582 -119.5 569 c 128,-1,23
 -117 556 -117 556 -112 550 c 2,24,-1
 -72 500 l 1,25,-1
 -117 500 l 1,26,-1
 -117 500 l 1,5,-1
EndSplineSet
Ligature: 0 0 'abvs' u0947_u0930_u094D.rphf.abvs u0902
EndChar
StartChar: u0948_u0902.abvs
Encoding: 65574 -1 167
Width: 0
GlyphClass: 4
Flags: W
AnchorPoint: "Anchor-0" -104 478 mark 0
Fore
-144 500 m 1,0,-1
 -359 605 l 1,1,-1
 -334 650 l 1,2,-1
 -109 505 l 1,3,-1
 -219 720 l 1,4,-1
 -169 750 l 1,5,-1
 -79 500 l 1,6,-1
 -144 500 l 1,7,-1
 -144 500 l 1,0,-1
-84 625 m 1,8,-1
 -84 695 l 1,9,-1
 -9 695 l 1,10,-1
 -9 625 l 1,11,-1
 -84 625 l 1,12,-1
 -84 625 l 1,8,-1
EndSplineSet
Ligature: 0 0 'abvs' u0948 u0902
EndChar
StartChar: u0948_u0930_u094D.rphf.abvs
Encoding: 65575 -1 168
Width: 0
GlyphClass: 4
Flags: W
AnchorPoint: "Anchor-0" -84 474 mark 0
Fore
-129 500 m 1,0,-1
 -349 600 l 1,1,-1
 -324 650 l 1,2,-1
 -94 505 l 1,3,-1
 -219 720 l 1,4,-1
 -169 750 l 1,5,-1
 -124 645 l 1,6,7
 -109 675 -109 675 -79.5 692.5 c 128,-1,8
 -50 710 -50 710 -14 710 c 0,9,10
 0 710 0 710 13.5 707.5 c 128,-1,11
 27 705 27 705 41 700 c 1,12,-1
 41 655 l 1,13,14
 20 663 20 663 6.5 666.5 c 128,-1,15
 -7 670 -7 670 -14 670 c 0,16,17
 -49 670 -49 670 -74 648 c 128,-1,18
 -99 626 -99 626 -99 595 c 0,19,20
 -99 589 -99 589 -95.5 578 c 128,-1,21
 -92 567 -92 567 -84 550 c 2,22,-1
 -64 500 l 1,23,-1
 -129 500 l 1,24,-1
 -129 500 l 1,0,-1
EndSplineSet
Ligature: 0 0 'abvs' u0948 u0930_u094D.rphf
PairPos: 0 0 'abvm' u0902 dx=0 dy=0 dh=0 dv=0 dx=89 dy=-82 dh=0 dv=0
EndChar
StartChar: u0948_u0930_u094D.rphf.abvs_u0902.abvs
Encoding: 65576 -1 169
Width: 0
GlyphClass: 4
Flags: W
AnchorPoint: "Anchor-0" -78 474 mark 0
Fore
-39 555 m 1,0,-1
 -39 610 l 1,1,-1
 16 610 l 1,2,-1
 16 555 l 1,3,-1
 -39 555 l 1,4,-1
 -39 555 l 1,0,-1
-129 500 m 1,5,-1
 -344 605 l 1,6,-1
 -324 650 l 1,7,-1
 -94 505 l 1,8,-1
 -219 720 l 1,9,-1
 -169 750 l 1,10,-1
 -124 645 l 1,11,12
 -109 675 -109 675 -79.5 692.5 c 128,-1,13
 -50 710 -50 710 -14 710 c 0,14,15
 0 710 0 710 13.5 707.5 c 128,-1,16
 27 705 27 705 41 700 c 1,17,-1
 41 655 l 1,18,19
 20 663 20 663 6.5 666.5 c 128,-1,20
 -7 670 -7 670 -14 670 c 0,21,22
 -49 670 -49 670 -74 648 c 128,-1,23
 -99 626 -99 626 -99 595 c 0,24,25
 -99 589 -99 589 -95.5 578 c 128,-1,26
 -92 567 -92 567 -84 550 c 2,27,-1
 -64 500 l 1,28,-1
 -129 500 l 1,29,-1
 -129 500 l 1,5,-1
EndSplineSet
Ligature: 0 0 'abvs' u0948_u0930_u094D.rphf.abvs u0902
EndChar
StartChar: u0930_u094D.rphf
Encoding: 65577 -1 170
Width: 0
GlyphClass: 4
Flags: W
AnchorPoint: "Anchor-0" -54 476 mark 0
Fore
-96 500 m 1,0,1
 -122 522 -122 522 -136.5 548 c 128,-1,2
 -151 574 -151 574 -151 600 c 0,3,4
 -151 646 -151 646 -116 678 c 128,-1,5
 -81 710 -81 710 -31 710 c 0,6,7
 -17 710 -17 710 -3.5 707.5 c 128,-1,8
 10 705 10 705 24 700 c 1,9,-1
 24 655 l 1,10,11
 3 663 3 663 -10.5 666.5 c 128,-1,12
 -24 670 -24 670 -31 670 c 0,13,14
 -60 670 -60 670 -80.5 649.5 c 128,-1,15
 -101 629 -101 629 -101 600 c 0,16,17
 -101 572 -101 572 -82 545.5 c 128,-1,18
 -63 519 -63 519 -31 500 c 1,19,-1
 -96 500 l 1,20,-1
 -96 500 l 1,0,1
EndSplineSet
Ligature: 0 0 'rphf' u0930 u094D
EndChar
StartChar: u0930_u094D.rphf_u0902.abvs
Encoding: 65578 -1 171
Width: 0
GlyphClass: 4
Flags: W
AnchorPoint: "Anchor-0" -82 478 mark 0
Fore
-126 500 m 1,0,1
 -148 522 -148 522 -159.5 548 c 128,-1,2
 -171 574 -171 574 -171 600 c 0,3,4
 -171 646 -171 646 -140 678 c 128,-1,5
 -109 710 -109 710 -66 710 c 0,6,7
 -43 710 -43 710 -26.5 707.5 c 128,-1,8
 -10 705 -10 705 -1 700 c 1,9,-1
 -1 660 l 1,10,11
 -12 665 -12 665 -28 667.5 c 128,-1,12
 -44 670 -44 670 -66 670 c 0,13,14
 -89 670 -89 670 -105 649.5 c 128,-1,15
 -121 629 -121 629 -121 600 c 0,16,17
 -121 576 -121 576 -108 550 c 128,-1,18
 -95 524 -95 524 -71 500 c 1,19,-1
 -126 500 l 1,20,-1
 -126 500 l 1,0,1
-56 570 m 1,21,-1
 -56 625 l 1,22,-1
 -1 625 l 1,23,-1
 -1 570 l 1,24,-1
 -56 570 l 1,25,-1
 -56 570 l 1,21,-1
EndSplineSet
Ligature: 0 0 'abvs' u0930_u094D.rphf u0902
EndChar
StartChar: glyph172
Encoding: 65579 -1 172
Width: 0
GlyphClass: 2
Flags: W
Fore
-340 -25 m 1,0,-1
 -360 15 l 1,1,-1
 -95 150 l 1,2,-1
 -95 105 l 1,3,-1
 -340 -25 l 1,4,-1
 -340 -25 l 1,0,-1
EndSplineSet
EndChar
StartChar: u0930_u094D.blwf
Encoding: 65580 -1 173
Width: 0
GlyphClass: 4
Flags: W
AnchorPoint: "Anchor-3" -102 56 mark 0
Fore
-270 -165 m 1,0,-1
 -135 35 l 1,1,-1
 -70 35 l 1,2,-1
 55 -165 l 1,3,-1
 5 -165 l 1,4,-1
 -100 0 l 1,5,-1
 -210 -165 l 1,6,-1
 -270 -165 l 1,7,-1
 -270 -165 l 1,0,-1
EndSplineSet
Ligature: 0 0 'blwf' u0930 u094D
EndChar
StartChar: u0936_u0930_u094D.blwf.vatu
Encoding: 65581 -1 174
Width: 533
GlyphClass: 2
Flags: W
Fore
10 218 m 1,0,-1
 148 307 l 1,1,2
 116 325 116 325 97.5 353 c 128,-1,3
 79 381 79 381 79 410 c 0,4,5
 79 449 79 449 106.5 477 c 128,-1,6
 134 505 134 505 173 505 c 0,7,8
 214 505 214 505 243.5 477 c 128,-1,9
 273 449 273 449 273 410 c 0,10,11
 273 384 273 384 260.5 359 c 128,-1,12
 248 334 248 334 225 315 c 1,13,-1
 368 255 l 1,14,-1
 408 285 l 1,15,-1
 408 455 l 1,16,-1
 318 455 l 1,17,-1
 318 500 l 1,18,-1
 543 500 l 1,19,-1
 543 455 l 1,20,-1
 458 455 l 1,21,-1
 458 0 l 1,22,-1
 408 0 l 1,23,-1
 408 225 l 1,24,-1
 173 45 l 1,25,-1
 138 85 l 1,26,-1
 328 225 l 1,27,-1
 193 280 l 1,28,-1
 43 180 l 1,29,-1
 10 218 l 1,30,-1
 10 218 l 1,0,-1
183 345 m 1,31,32
 202 358 202 358 212.5 375.5 c 128,-1,33
 223 393 223 393 223 410 c 0,34,35
 223 431 223 431 208.5 445.5 c 128,-1,36
 194 460 194 460 173 460 c 0,37,38
 154 460 154 460 141 445.5 c 128,-1,39
 128 431 128 431 128 410 c 0,40,41
 128 388 128 388 143.5 370 c 128,-1,42
 159 352 159 352 183 345 c 1,43,-1
 183 345 l 1,31,32
EndSplineSet
Ligature: 0 0 'vatu' u0936 u0930_u094D.blwf
EndChar
StartChar: u095E_u0930_u094D.blwf.vatu
Encoding: 65582 -1 175
Width: 597
GlyphClass: 2
Flags: W
AnchorPoint: "Anchor-3" 312 18 basechar 0
AnchorPoint: "Anchor-0" 310 476 basechar 0
Fore
-10 455 m 1,0,-1
 -10 500 l 1,1,-1
 607 500 l 1,2,-1
 607 455 l 1,3,-1
 331 455 l 1,4,-1
 331 315 l 1,5,6
 351 339 351 339 378.5 352 c 128,-1,7
 406 365 406 365 436 365 c 0,8,9
 488 365 488 365 524.5 324 c 128,-1,10
 561 283 561 283 561 225 c 0,11,12
 561 180 561 180 544 136.5 c 128,-1,13
 527 93 527 93 496 55 c 1,14,-1
 451 80 l 1,15,16
 480 109 480 109 495.5 146.5 c 128,-1,17
 511 184 511 184 511 225 c 0,18,19
 511 262 511 262 489 288.5 c 128,-1,20
 467 315 467 315 436 315 c 0,21,22
 410 315 410 315 382.5 299.5 c 128,-1,23
 355 284 355 284 331 255 c 1,24,-1
 331 0 l 1,25,-1
 281 0 l 1,26,-1
 281 131 l 1,27,-1
 56 5 l 1,28,-1
 36 45 l 1,29,-1
 281 181 l 1,30,-1
 281 225 l 1,31,32
 259 203 259 203 233 191.5 c 128,-1,33
 207 180 207 180 181 180 c 0,34,35
 129 180 129 180 92.5 215 c 128,-1,36
 56 250 56 250 56 300 c 2,37,-1
 56 455 l 1,38,-1
 -10 455 l 1,39,-1
 -10 455 l 1,0,-1
181 230 m 1,40,41
 210 230 210 230 236.5 244.5 c 128,-1,42
 263 259 263 259 281 285 c 1,43,-1
 281 455 l 1,44,-1
 106 455 l 1,45,-1
 106 300 l 2,46,47
 106 271 106 271 128 250.5 c 128,-1,48
 150 230 150 230 181 230 c 1,49,-1
 181 230 l 1,40,41
186 -40 m 1,50,-1
 146 -3 l 1,51,-1
 186 35 l 1,52,-1
 226 -3 l 1,53,-1
 186 -40 l 1,54,-1
 186 -40 l 1,50,-1
EndSplineSet
Ligature: 0 0 'vatu' u095E u0930_u094D.blwf
EndChar
StartChar: u0924_u094D.half_u0924.pres
Encoding: 65583 -1 176
Width: 558
GlyphClass: 2
Flags: W
Fore
-10 455 m 1,0,-1
 -10 500 l 1,1,-1
 568 500 l 1,2,-1
 568 455 l 1,3,-1
 483 455 l 1,4,-1
 483 0 l 1,5,-1
 433 0 l 1,6,-1
 433 320 l 1,7,-1
 278 320 l 2,8,9
 241 320 241 320 214.5 298 c 128,-1,10
 188 276 188 276 188 245 c 0,11,12
 188 182 188 182 223 126 c 128,-1,13
 258 70 258 70 318 35 c 1,14,-1
 288 0 l 1,15,16
 218 40 218 40 178 105.5 c 128,-1,17
 138 171 138 171 138 245 c 0,18,19
 138 267 138 267 147 286.5 c 128,-1,20
 156 306 156 306 173 320 c 1,21,-1
 8 320 l 1,22,-1
 8 365 l 1,23,-1
 433 365 l 1,24,-1
 433 455 l 1,25,-1
 -10 455 l 1,26,-1
 -10 455 l 1,0,-1
EndSplineSet
Ligature: 0 0 'pres' u0924_u094D.half u0924
EndChar
StartChar: u0915_u094D_u0937.akhn
Encoding: 65584 -1 177
Width: 494
GlyphClass: 2
Flags: W
Fore
319 455 m 1,0,-1
 319 500 l 1,1,-1
 504 500 l 1,2,-1
 504 455 l 1,3,-1
 419 455 l 1,4,-1
 419 0 l 1,5,-1
 369 0 l 1,6,-1
 369 275 l 1,7,8
 352 265 352 265 333 260 c 128,-1,9
 314 255 314 255 294 255 c 0,10,11
 264 255 264 255 231 265 c 128,-1,12
 198 275 198 275 164 295 c 1,13,14
 129 286 129 286 106.5 262 c 128,-1,15
 84 238 84 238 84 210 c 0,16,17
 84 175 84 175 112.5 150 c 128,-1,18
 141 125 141 125 182 125 c 1,19,20
 178 134 178 134 176 139 c 128,-1,21
 174 144 174 144 174 147 c 0,22,23
 174 167 174 167 188.5 181 c 128,-1,24
 203 195 203 195 224 195 c 256,25,26
 245 195 245 195 259.5 180.5 c 128,-1,27
 274 166 274 166 274 145 c 0,28,29
 274 128 274 128 266 113 c 128,-1,30
 258 98 258 98 244 90 c 1,31,-1
 294 5 l 1,32,-1
 254 -20 l 1,33,-1
 194 80 l 1,34,35
 128 80 128 80 81 118 c 128,-1,36
 34 156 34 156 34 210 c 0,37,38
 34 245 34 245 58.5 275 c 128,-1,39
 83 305 83 305 124 320 c 1,40,41
 96 340 96 340 80 363.5 c 128,-1,42
 64 387 64 387 64 410 c 0,43,44
 64 453 64 453 95 484 c 128,-1,45
 126 515 126 515 169 515 c 256,46,47
 212 515 212 515 243 484 c 128,-1,48
 274 453 274 453 274 410 c 0,49,50
 274 384 274 384 258 360 c 128,-1,51
 242 336 242 336 214 320 c 1,52,53
 235 310 235 310 255.5 305 c 128,-1,54
 276 300 276 300 294 300 c 0,55,56
 310 300 310 300 329 306.5 c 128,-1,57
 348 313 348 313 369 325 c 1,58,-1
 369 455 l 1,59,-1
 319 455 l 1,60,-1
 319 455 l 1,0,-1
164 345 m 1,61,62
 191 355 191 355 207.5 373 c 128,-1,63
 224 391 224 391 224 410 c 0,64,65
 224 433 224 433 207.5 449 c 128,-1,66
 191 465 191 465 168 465 c 0,67,68
 146 465 146 465 130 449 c 128,-1,69
 114 433 114 433 114 410 c 0,70,71
 114 396 114 396 127 378.5 c 128,-1,72
 140 361 140 361 164 345 c 1,73,-1
 164 345 l 1,61,62
EndSplineSet
Ligature: 0 0 'akhn' u0915 u094D u0937
EndChar
StartChar: u091C_u094D_u091E.akhn
Encoding: 65585 -1 178
Width: 534
GlyphClass: 2
Flags: W
Fore
-10 455 m 1,0,-1
 -10 500 l 1,1,-1
 544 500 l 1,2,-1
 544 455 l 1,3,-1
 459 455 l 1,4,-1
 459 0 l 1,5,-1
 409 0 l 1,6,-1
 409 335 l 1,7,-1
 119 335 l 2,8,9
 109 335 109 335 101.5 330.5 c 128,-1,10
 94 326 94 326 94 320 c 0,11,12
 94 299 94 299 122 267 c 128,-1,13
 150 235 150 235 169 235 c 0,14,15
 180 235 180 235 192.5 237.5 c 128,-1,16
 205 240 205 240 219 245 c 256,17,18
 233 250 233 250 244 252.5 c 128,-1,19
 255 255 255 255 264 255 c 0,20,21
 287 255 287 255 303 231.5 c 128,-1,22
 319 208 319 208 319 175 c 0,23,24
 319 125 319 125 276.5 90 c 128,-1,25
 234 55 234 55 174 55 c 1,26,27
 183 35 183 35 208 20.5 c 128,-1,28
 233 6 233 6 269 0 c 1,29,-1
 234 -35 l 1,30,31
 202 -26 202 -26 173.5 -8.5 c 128,-1,32
 145 9 145 9 124 35 c 1,33,34
 85 35 85 35 57 54 c 128,-1,35
 29 73 29 73 29 100 c 0,36,37
 29 119 29 119 42 132 c 128,-1,38
 55 145 55 145 74 145 c 0,39,40
 85 145 85 145 103.5 130.5 c 128,-1,41
 122 116 122 116 144 90 c 1,42,43
 197 95 197 95 233 119.5 c 128,-1,44
 269 144 269 144 269 175 c 0,45,46
 269 189 269 189 261.5 199.5 c 128,-1,47
 254 210 254 210 244 210 c 0,48,49
 240 210 240 210 231.5 207.5 c 128,-1,50
 223 205 223 205 209 200 c 256,51,52
 195 195 195 195 184 192.5 c 128,-1,53
 173 190 173 190 164 190 c 0,54,55
 132 190 132 190 88 238 c 128,-1,56
 44 286 44 286 44 321 c 0,57,58
 44 348 44 348 66 366.5 c 128,-1,59
 88 385 88 385 119 385 c 2,60,-1
 409 385 l 1,61,-1
 409 455 l 1,62,-1
 -10 455 l 1,63,-1
 -10 455 l 1,0,-1
EndSplineSet
Ligature: 0 0 'akhn' u091C u094D u091E
EndChar
StartChar: u0915_u094D.half
Encoding: 65586 -1 179
Width: 439
GlyphClass: 2
Flags: W
Fore
-10 455 m 1,0,-1
 -10 500 l 1,1,-1
 449 500 l 1,2,-1
 449 455 l 1,3,-1
 309 455 l 1,4,-1
 309 320 l 1,5,6
 327 346 327 346 355 360.5 c 128,-1,7
 383 375 383 375 414 375 c 0,8,9
 423 375 423 375 434 372.5 c 128,-1,10
 445 370 445 370 459 365 c 1,11,-1
 459 310 l 1,12,13
 449 320 449 320 437.5 325 c 128,-1,14
 426 330 426 330 414 330 c 0,15,16
 376 330 376 330 346.5 301.5 c 128,-1,17
 317 273 317 273 309 230 c 1,18,-1
 309 0 l 1,19,-1
 259 0 l 1,20,-1
 259 150 l 1,21,22
 237 128 237 128 214 116.5 c 128,-1,23
 191 105 191 105 169 105 c 0,24,25
 111 105 111 105 70 143 c 128,-1,26
 29 181 29 181 29 235 c 0,27,28
 29 293 29 293 71.5 334 c 128,-1,29
 114 375 114 375 174 375 c 0,30,31
 188 375 188 375 201.5 372.5 c 128,-1,32
 215 370 215 370 229 365 c 1,33,-1
 224 320 l 1,34,35
 213 325 213 325 200.5 327.5 c 128,-1,36
 188 330 188 330 174 330 c 0,37,38
 135 330 135 330 107 302 c 128,-1,39
 79 274 79 274 79 235 c 0,40,41
 79 202 79 202 105.5 178.5 c 128,-1,42
 132 155 132 155 169 155 c 0,43,44
 192 155 192 155 216 174 c 128,-1,45
 240 193 240 193 259 225 c 1,46,-1
 259 455 l 1,47,-1
 -10 455 l 1,48,-1
 -10 455 l 1,0,-1
EndSplineSet
Ligature: 0 0 'half' u0915 u094D
EndChar
StartChar: u0916_u094D.half
Encoding: 65587 -1 180
Width: 493
GlyphClass: 2
Flags: W
Fore
-10 455 m 1,0,-1
 -10 500 l 1,1,-1
 503 500 l 1,2,-1
 503 455 l 1,3,-1
 223 455 l 1,4,-1
 223 320 l 2,5,6
 223 279 223 279 198 249.5 c 128,-1,7
 173 220 173 220 138 220 c 0,8,9
 124 220 124 220 115 222.5 c 128,-1,10
 106 225 106 225 103 230 c 1,11,12
 125 146 125 146 181 95.5 c 128,-1,13
 237 45 237 45 308 45 c 0,14,15
 368 45 368 45 422.5 74 c 128,-1,16
 477 103 477 103 513 155 c 1,17,-1
 513 95 l 1,18,19
 475 50 475 50 421.5 25 c 128,-1,20
 368 0 368 0 308 0 c 0,21,22
 205 0 205 0 127 89 c 128,-1,23
 49 178 49 178 23 325 c 1,24,-1
 58 345 l 1,25,26
 74 311 74 311 94.5 290.5 c 128,-1,27
 115 270 115 270 133 270 c 0,28,29
 150 270 150 270 161.5 284.5 c 128,-1,30
 173 299 173 299 173 320 c 2,31,-1
 173 455 l 1,32,-1
 -10 455 l 1,33,-1
 -10 455 l 1,0,-1
403 175 m 1,34,35
 357 175 357 175 325 206 c 128,-1,36
 293 237 293 237 293 280 c 0,37,38
 293 326 293 326 326.5 358 c 128,-1,39
 360 390 360 390 408 390 c 0,40,41
 430 390 430 390 450.5 385 c 128,-1,42
 471 380 471 380 488 370 c 1,43,-1
 468 325 l 1,44,45
 455 332 455 332 440 336 c 128,-1,46
 425 340 425 340 408 340 c 0,47,48
 381 340 381 340 362 322.5 c 128,-1,49
 343 305 343 305 343 280 c 0,50,51
 343 257 343 257 360.5 241 c 128,-1,52
 378 225 378 225 403 225 c 0,53,54
 433 225 433 225 462 239.5 c 128,-1,55
 491 254 491 254 513 280 c 1,56,-1
 513 220 l 1,57,58
 491 198 491 198 462.5 186.5 c 128,-1,59
 434 175 434 175 403 175 c 1,60,-1
 403 175 l 1,34,35
EndSplineSet
Ligature: 0 0 'half' u0916 u094D
EndChar
StartChar: u0917_u094D.half
Encoding: 65588 -1 181
Width: 190
GlyphClass: 2
Flags: W
Fore
-10 455 m 1,0,-1
 -10 500 l 1,1,-1
 200 500 l 1,2,-1
 200 455 l 1,3,-1
 144 455 l 1,4,-1
 144 200 l 2,5,6
 144 188 144 188 138 179 c 128,-1,7
 132 170 132 170 124 170 c 0,8,9
 104 170 104 170 59 215 c 128,-1,10
 14 260 14 260 14 280 c 0,11,12
 14 292 14 292 20 301 c 128,-1,13
 26 310 26 310 34 310 c 2,14,-1
 74 310 l 2,15,16
 82 310 82 310 88 319 c 128,-1,17
 94 328 94 328 94 340 c 2,18,-1
 94 455 l 1,19,-1
 -10 455 l 1,20,-1
 -10 455 l 1,0,-1
EndSplineSet
Ligature: 0 0 'half' u0917 u094D
EndChar
StartChar: u0918_u094D.half
Encoding: 65589 -1 182
Width: 359
GlyphClass: 2
Flags: W
Fore
-10 455 m 1,0,-1
 -10 500 l 1,1,-1
 369 500 l 1,2,-1
 369 455 l 1,3,-1
 119 455 l 1,4,5
 102 441 102 441 93 424 c 128,-1,6
 84 407 84 407 84 390 c 0,7,8
 84 363 84 363 104.5 344 c 128,-1,9
 125 325 125 325 154 325 c 2,10,-1
 239 325 l 1,11,-1
 264 280 l 1,12,-1
 194 280 l 2,13,14
 161 280 161 280 137.5 256.5 c 128,-1,15
 114 233 114 233 114 200 c 0,16,17
 114 173 114 173 140.5 154 c 128,-1,18
 167 135 167 135 204 135 c 0,19,20
 242 135 242 135 287.5 159.5 c 128,-1,21
 333 184 333 184 379 230 c 1,22,-1
 379 170 l 1,23,24
 330 129 330 129 285 107 c 128,-1,25
 240 85 240 85 204 85 c 0,26,27
 146 85 146 85 105 118.5 c 128,-1,28
 64 152 64 152 64 200 c 0,29,30
 64 230 64 230 76 254 c 128,-1,31
 88 278 88 278 109 290 c 1,32,33
 76 299 76 299 55 327 c 128,-1,34
 34 355 34 355 34 390 c 0,35,36
 34 404 34 404 40.5 421 c 128,-1,37
 47 438 47 438 59 455 c 1,38,-1
 -10 455 l 1,39,-1
 -10 455 l 1,0,-1
EndSplineSet
Ligature: 0 0 'half' u0918 u094D
EndChar
StartChar: u0919_u094D.half
Encoding: 65590 -1 183
Width: 543
GlyphClass: 2
Flags: W
Fore
-10 455 m 1,0,-1
 -10 500 l 1,1,-1
 553 500 l 1,2,-1
 553 455 l 1,3,-1
 398 455 l 1,4,-1
 398 330 l 1,5,-1
 228 330 l 2,6,7
 218 330 218 330 210.5 324 c 128,-1,8
 203 318 203 318 203 310 c 0,9,10
 203 289 203 289 231 257 c 128,-1,11
 259 225 259 225 278 225 c 0,12,13
 295 225 295 225 325.5 237.5 c 128,-1,14
 356 250 356 250 373 250 c 0,15,16
 404 250 404 250 426 226.5 c 128,-1,17
 448 203 448 203 448 170 c 0,18,19
 448 104 448 104 404 57 c 128,-1,20
 360 10 360 10 298 10 c 0,21,22
 228 10 228 10 150 71.5 c 128,-1,23
 72 133 72 133 13 235 c 1,24,-1
 53 265 l 1,25,26
 112 164 112 164 173.5 112 c 128,-1,27
 235 60 235 60 298 60 c 0,28,29
 339 60 339 60 368.5 92 c 128,-1,30
 398 124 398 124 398 170 c 0,31,32
 398 182 398 182 390.5 191 c 128,-1,33
 383 200 383 200 373 200 c 0,34,35
 356 200 356 200 325.5 187.5 c 128,-1,36
 295 175 295 175 278 175 c 0,37,38
 245 175 245 175 194 233.5 c 128,-1,39
 143 292 143 292 143 330 c 0,40,41
 143 349 143 349 159 362 c 128,-1,42
 175 375 175 375 198 375 c 2,43,-1
 348 375 l 1,44,-1
 348 455 l 1,45,-1
 -10 455 l 1,46,-1
 -10 455 l 1,0,-1
493 250 m 1,47,48
 476 250 476 250 464.5 260.5 c 128,-1,49
 453 271 453 271 453 285 c 256,50,51
 453 299 453 299 464.5 309.5 c 128,-1,52
 476 320 476 320 493 320 c 256,53,54
 510 320 510 320 521.5 309.5 c 128,-1,55
 533 299 533 299 533 285 c 256,56,57
 533 271 533 271 521.5 260.5 c 128,-1,58
 510 250 510 250 493 250 c 1,59,-1
 493 250 l 1,47,48
263 -65 m 1,60,-1
 243 -25 l 1,61,-1
 298 0 l 1,62,-1
 478 -135 l 1,63,-1
 448 -165 l 1,64,-1
 298 -45 l 1,65,-1
 263 -65 l 1,66,-1
 263 -65 l 1,60,-1
EndSplineSet
Ligature: 0 0 'half' u0919 u094D
EndChar
StartChar: u091A_u094D.half
Encoding: 65591 -1 184
Width: 359
GlyphClass: 2
Flags: W
Fore
219 90 m 1,0,1
 169 90 169 90 134 125 c 128,-1,2
 99 160 99 160 99 210 c 0,3,4
 99 244 99 244 113.5 273 c 128,-1,5
 128 302 128 302 154 320 c 1,6,-1
 9 320 l 1,7,-1
 9 370 l 1,8,-1
 299 370 l 1,9,-1
 299 320 l 1,10,-1
 239 320 l 1,11,12
 198 301 198 301 173.5 271 c 128,-1,13
 149 241 149 241 149 210 c 0,14,15
 149 181 149 181 169.5 160.5 c 128,-1,16
 190 140 190 140 219 140 c 0,17,18
 253 140 253 140 296 180 c 128,-1,19
 339 220 339 220 379 290 c 1,20,-1
 379 210 l 1,21,22
 340 154 340 154 297.5 122 c 128,-1,23
 255 90 255 90 219 90 c 1,24,-1
 219 90 l 1,0,1
-10 455 m 1,25,-1
 -10 500 l 1,26,-1
 369 500 l 1,27,-1
 369 455 l 1,28,-1
 -10 455 l 1,29,-1
 -10 455 l 1,25,-1
EndSplineSet
Ligature: 0 0 'half' u091A u094D
EndChar
StartChar: u091B_u094D.half
Encoding: 65592 -1 185
Width: 533
GlyphClass: 2
Flags: W
Fore
233 25 m 1,0,1
 163 25 163 25 113 66 c 128,-1,2
 63 107 63 107 63 165 c 0,3,4
 63 201 63 201 77.5 231.5 c 128,-1,5
 92 262 92 262 118 280 c 1,6,7
 81 297 81 297 59.5 324 c 128,-1,8
 38 351 38 351 38 380 c 0,9,10
 38 405 38 405 46 425 c 128,-1,11
 54 445 54 445 68 455 c 1,12,-1
 -10 455 l 1,13,-1
 -10 500 l 1,14,-1
 543 500 l 1,15,-1
 543 455 l 1,16,-1
 128 455 l 1,17,18
 109 439 109 439 98.5 419.5 c 128,-1,19
 88 400 88 400 88 380 c 0,20,21
 88 351 88 351 114.5 330.5 c 128,-1,22
 141 310 141 310 178 310 c 2,23,-1
 233 310 l 1,24,-1
 233 260 l 1,25,-1
 193 260 l 2,26,27
 160 260 160 260 136.5 232 c 128,-1,28
 113 204 113 204 113 165 c 0,29,30
 113 128 113 128 148 101.5 c 128,-1,31
 183 75 183 75 233 75 c 0,32,33
 265 75 265 75 297 88 c 128,-1,34
 329 101 329 101 358 125 c 1,35,36
 324 159 324 159 306 196.5 c 128,-1,37
 288 234 288 234 288 270 c 0,38,39
 288 316 288 316 319 348 c 128,-1,40
 350 380 350 380 393 380 c 0,41,42
 439 380 439 380 471 349 c 128,-1,43
 503 318 503 318 503 275 c 0,44,45
 503 187 503 187 415.5 106 c 128,-1,46
 328 25 328 25 233 25 c 1,47,-1
 233 25 l 1,0,1
393 165 m 1,48,49
 421 185 421 185 437 214 c 128,-1,50
 453 243 453 243 453 275 c 0,51,52
 453 298 453 298 435.5 314 c 128,-1,53
 418 330 418 330 393 330 c 0,54,55
 370 330 370 330 354 312.5 c 128,-1,56
 338 295 338 295 338 270 c 0,57,58
 338 239 338 239 352.5 211 c 128,-1,59
 367 183 367 183 393 165 c 1,60,-1
 393 165 l 1,48,49
EndSplineSet
Ligature: 0 0 'half' u091B u094D
EndChar
StartChar: u091C_u094D.half
Encoding: 65593 -1 186
Width: 442
GlyphClass: 2
Flags: W
Fore
242 55 m 1,0,1
 186 55 186 55 124 130.5 c 128,-1,2
 62 206 62 206 17 330 c 1,3,-1
 62 350 l 1,4,5
 101 242 101 242 150.5 176 c 128,-1,6
 200 110 200 110 242 110 c 0,7,8
 267 110 267 110 284.5 129 c 128,-1,9
 302 148 302 148 302 175 c 0,10,11
 302 216 302 216 280 260 c 128,-1,12
 258 304 258 304 217 345 c 1,13,-1
 462 345 l 1,14,-1
 462 300 l 1,15,-1
 307 300 l 1,16,17
 329 274 329 274 340.5 242 c 128,-1,18
 352 210 352 210 352 175 c 0,19,20
 352 125 352 125 320 90 c 128,-1,21
 288 55 288 55 242 55 c 1,22,-1
 242 55 l 1,0,1
-10 455 m 1,23,-1
 -10 500 l 1,24,-1
 452 500 l 1,25,-1
 452 455 l 1,26,-1
 -10 455 l 1,27,-1
 -10 455 l 1,23,-1
EndSplineSet
Ligature: 0 0 'half' u091C u094D
EndChar
StartChar: u091D_u094D.half
Encoding: 65594 -1 187
Width: 409
GlyphClass: 2
Flags: W
Fore
259 -35 m 1,0,1
 254 -27 254 -27 221.5 -9 c 128,-1,2
 189 9 189 9 164 30 c 1,3,4
 108 30 108 30 68.5 49 c 128,-1,5
 29 68 29 68 29 95 c 0,6,7
 29 112 29 112 42 123.5 c 128,-1,8
 55 135 55 135 74 135 c 0,9,10
 101 135 101 135 125 120.5 c 128,-1,11
 149 106 149 106 164 80 c 1,12,13
 215 94 215 94 247 120.5 c 128,-1,14
 279 147 279 147 279 175 c 0,15,16
 279 192 279 192 267.5 203.5 c 128,-1,17
 256 215 256 215 239 215 c 0,18,19
 224 215 224 215 196.5 202.5 c 128,-1,20
 169 190 169 190 154 190 c 0,21,22
 126 190 126 190 82.5 239 c 128,-1,23
 39 288 39 288 39 320 c 0,24,25
 39 345 39 345 59.5 362.5 c 128,-1,26
 80 380 80 380 109 380 c 2,27,-1
 234 380 l 1,28,-1
 234 455 l 1,29,-1
 -10 455 l 1,30,-1
 -10 500 l 1,31,-1
 419 500 l 1,32,-1
 419 455 l 1,33,-1
 284 455 l 1,34,-1
 284 335 l 1,35,-1
 109 335 l 2,36,37
 101 335 101 335 95 330.5 c 128,-1,38
 89 326 89 326 89 320 c 0,39,40
 89 297 89 297 112 268.5 c 128,-1,41
 135 240 135 240 154 240 c 0,42,43
 169 240 169 240 196.5 252.5 c 128,-1,44
 224 265 224 265 239 265 c 0,45,46
 249 265 249 265 263 260 c 128,-1,47
 277 255 277 255 294 245 c 0,48,49
 307 238 307 238 326 234 c 128,-1,50
 345 230 345 230 369 230 c 0,51,52
 387 230 387 230 402 235 c 128,-1,53
 417 240 417 240 429 250 c 1,54,-1
 429 200 l 1,55,56
 409 193 409 193 393.5 189 c 128,-1,57
 378 185 378 185 369 185 c 0,58,59
 353 185 353 185 342 186.5 c 128,-1,60
 331 188 331 188 324 190 c 1,61,62
 326 188 326 188 325 180 c 128,-1,63
 324 172 324 172 324 165 c 0,64,65
 324 133 324 133 281.5 94 c 128,-1,66
 239 55 239 55 204 55 c 1,67,68
 215 46 215 46 236.5 32 c 128,-1,69
 258 18 258 18 289 0 c 1,70,-1
 259 -35 l 1,71,-1
 259 -35 l 1,0,1
EndSplineSet
Ligature: 0 0 'half' u091D u094D
EndChar
StartChar: u091E_u094D.half
Encoding: 65595 -1 188
Width: 345
GlyphClass: 2
Flags: W
Fore
170 90 m 1,0,1
 132 90 132 90 90 111 c 128,-1,2
 48 132 48 132 10 170 c 1,3,-1
 35 205 l 1,4,5
 69 171 69 171 104 153 c 128,-1,6
 139 135 139 135 170 135 c 0,7,8
 207 135 207 135 233.5 164.5 c 128,-1,9
 260 194 260 194 260 235 c 0,10,11
 260 272 260 272 235 298.5 c 128,-1,12
 210 325 210 325 175 325 c 0,13,14
 155 325 155 325 137 320 c 128,-1,15
 119 315 119 315 105 305 c 1,16,-1
 80 345 l 1,17,18
 101 360 101 360 125.5 367.5 c 128,-1,19
 150 375 150 375 175 375 c 0,20,21
 223 375 223 375 259.5 342.5 c 128,-1,22
 296 310 296 310 305 260 c 1,23,24
 326 252 326 252 339.5 248.5 c 128,-1,25
 353 245 353 245 360 245 c 0,26,27
 379 245 379 245 397.5 251.5 c 128,-1,28
 416 258 416 258 430 270 c 1,29,-1
 430 225 l 1,30,31
 409 215 409 215 390 210 c 128,-1,32
 371 205 371 205 355 205 c 0,33,34
 349 205 349 205 339 208 c 128,-1,35
 329 211 329 211 305 220 c 1,36,37
 300 165 300 165 261 127.5 c 128,-1,38
 222 90 222 90 170 90 c 1,39,-1
 170 90 l 1,0,1
-10 455 m 1,40,-1
 -10 500 l 1,41,-1
 355 500 l 1,42,-1
 355 455 l 1,43,-1
 -10 455 l 1,44,-1
 -10 455 l 1,40,-1
EndSplineSet
Ligature: 0 0 'half' u091E u094D
EndChar
StartChar: u091F_u094D.half
Encoding: 65596 -1 189
Width: 425
GlyphClass: 2
Flags: W
Fore
244 10 m 1,0,1
 157 10 157 10 95.5 71.5 c 128,-1,2
 34 133 34 133 34 220 c 0,3,4
 34 276 34 276 69 315.5 c 128,-1,5
 104 355 104 355 154 355 c 2,6,-1
 289 355 l 1,7,-1
 289 455 l 1,8,-1
 -10 455 l 1,9,-1
 -10 500 l 1,10,-1
 435 500 l 1,11,-1
 435 455 l 1,12,-1
 339 455 l 1,13,-1
 339 305 l 1,14,-1
 154 305 l 2,15,16
 125 305 125 305 104.5 280 c 128,-1,17
 84 255 84 255 84 220 c 0,18,19
 84 154 84 154 131 107 c 128,-1,20
 178 60 178 60 244 60 c 0,21,22
 286 60 286 60 320.5 79 c 128,-1,23
 355 98 355 98 374 130 c 1,24,-1
 414 95 l 1,25,26
 391 56 391 56 345.5 33 c 128,-1,27
 300 10 300 10 244 10 c 1,28,-1
 244 10 l 1,0,1
209 -90 m 1,29,-1
 179 -55 l 1,30,-1
 244 -20 l 1,31,-1
 424 -155 l 1,32,-1
 394 -185 l 1,33,-1
 244 -65 l 1,34,-1
 209 -90 l 1,35,-1
 209 -90 l 1,29,-1
EndSplineSet
Ligature: 0 0 'half' u091F u094D
EndChar
StartChar: u0920_u094D.half
Encoding: 65597 -1 190
Width: 434
GlyphClass: 2
Flags: W
Fore
243 5 m 1,0,1
 165 5 165 5 99 72.5 c 128,-1,2
 33 140 33 140 33 220 c 0,3,4
 33 278 33 278 71 319 c 128,-1,5
 109 360 109 360 163 360 c 2,6,-1
 288 360 l 1,7,-1
 288 455 l 1,8,-1
 -10 455 l 1,9,-1
 -10 500 l 1,10,-1
 444 500 l 1,11,-1
 444 455 l 1,12,-1
 338 455 l 1,13,-1
 338 310 l 1,14,-1
 163 310 l 2,15,16
 130 310 130 310 106.5 283.5 c 128,-1,17
 83 257 83 257 83 220 c 0,18,19
 83 159 83 159 133.5 107 c 128,-1,20
 184 55 184 55 243 55 c 0,21,22
 286 55 286 55 317 87 c 128,-1,23
 348 119 348 119 348 165 c 0,24,25
 348 189 348 189 339 210 c 128,-1,26
 330 231 330 231 313 245 c 1,27,-1
 353 275 l 1,28,29
 374 257 374 257 386 228 c 128,-1,30
 398 199 398 199 398 165 c 0,31,32
 398 99 398 99 352.5 52 c 128,-1,33
 307 5 307 5 243 5 c 1,34,-1
 243 5 l 1,0,1
208 -85 m 1,35,-1
 188 -45 l 1,36,-1
 243 -20 l 1,37,-1
 423 -155 l 1,38,-1
 393 -185 l 1,39,-1
 243 -65 l 1,40,-1
 208 -85 l 1,41,-1
 208 -85 l 1,35,-1
EndSplineSet
Ligature: 0 0 'half' u0920 u094D
EndChar
StartChar: u0921_u094D.half
Encoding: 65598 -1 191
Width: 474
GlyphClass: 2
Flags: W
Fore
289 10 m 1,0,1
 218 10 218 10 125.5 83.5 c 128,-1,2
 33 157 33 157 14 230 c 1,3,-1
 54 255 l 1,4,5
 71 191 71 191 150 125.5 c 128,-1,6
 229 60 229 60 289 60 c 0,7,8
 330 60 330 60 359.5 91 c 128,-1,9
 389 122 389 122 389 165 c 0,10,11
 389 177 389 177 381.5 186 c 128,-1,12
 374 195 374 195 364 195 c 0,13,14
 348 195 348 195 319 185 c 128,-1,15
 290 175 290 175 274 175 c 0,16,17
 235 175 235 175 187 225 c 128,-1,18
 139 275 139 275 139 315 c 0,19,20
 139 340 139 340 159.5 357.5 c 128,-1,21
 180 375 180 375 209 375 c 2,22,-1
 344 375 l 1,23,-1
 344 455 l 1,24,-1
 -10 455 l 1,25,-1
 -10 500 l 1,26,-1
 484 500 l 1,27,-1
 484 455 l 1,28,-1
 394 455 l 1,29,-1
 394 325 l 1,30,-1
 209 325 l 2,31,32
 203 325 203 325 198.5 320.5 c 128,-1,33
 194 316 194 316 194 310 c 0,34,35
 194 289 194 289 224 257 c 128,-1,36
 254 225 254 225 274 225 c 0,37,38
 290 225 290 225 319 235 c 128,-1,39
 348 245 348 245 364 245 c 0,40,41
 395 245 395 245 417 221.5 c 128,-1,42
 439 198 439 198 439 165 c 0,43,44
 439 101 439 101 395 55.5 c 128,-1,45
 351 10 351 10 289 10 c 1,46,-1
 289 10 l 1,0,1
254 -80 m 1,47,-1
 234 -40 l 1,48,-1
 289 -15 l 1,49,-1
 469 -150 l 1,50,-1
 439 -180 l 1,51,-1
 289 -60 l 1,52,-1
 254 -80 l 1,53,-1
 254 -80 l 1,47,-1
EndSplineSet
Ligature: 0 0 'half' u0921 u094D
EndChar
StartChar: u0922_u094D.half
Encoding: 65599 -1 192
Width: 435
GlyphClass: 2
Flags: W
Fore
-10 455 m 1,0,-1
 -10 500 l 1,1,-1
 445 500 l 1,2,-1
 445 455 l 1,3,-1
 342 455 l 1,4,-1
 342 305 l 1,5,-1
 147 305 l 2,6,7
 120 305 120 305 101 281.5 c 128,-1,8
 82 258 82 258 82 225 c 0,9,10
 82 167 82 167 134 113.5 c 128,-1,11
 186 60 186 60 247 55 c 1,12,13
 230 69 230 69 221 91.5 c 128,-1,14
 212 114 212 114 212 140 c 0,15,16
 212 179 212 179 240 207 c 128,-1,17
 268 235 268 235 307 235 c 0,18,19
 348 235 348 235 377.5 205.5 c 128,-1,20
 407 176 407 176 407 135 c 0,21,22
 407 83 407 83 360 46.5 c 128,-1,23
 313 10 313 10 247 10 c 0,24,25
 167 10 167 10 99.5 77.5 c 128,-1,26
 32 145 32 145 32 225 c 0,27,28
 32 279 32 279 65.5 317 c 128,-1,29
 99 355 99 355 147 355 c 2,30,-1
 292 355 l 1,31,-1
 292 455 l 1,32,-1
 -10 455 l 1,33,-1
 -10 455 l 1,0,-1
297 60 m 1,34,35
 323 65 323 65 340 86 c 128,-1,36
 357 107 357 107 357 135 c 0,37,38
 357 156 357 156 342.5 170.5 c 128,-1,39
 328 185 328 185 307 185 c 0,40,41
 288 185 288 185 275 172 c 128,-1,42
 262 159 262 159 262 140 c 0,43,44
 262 116 262 116 271 95 c 128,-1,45
 280 74 280 74 297 60 c 1,46,-1
 297 60 l 1,34,35
212 -90 m 1,47,-1
 192 -50 l 1,48,-1
 247 -25 l 1,49,-1
 427 -160 l 1,50,-1
 397 -190 l 1,51,-1
 247 -70 l 1,52,-1
 212 -90 l 1,53,-1
 212 -90 l 1,47,-1
EndSplineSet
Ligature: 0 0 'half' u0922 u094D
EndChar
StartChar: u0923_u094D.half
Encoding: 65600 -1 193
Width: 341
GlyphClass: 2
Flags: W
Fore
-10 455 m 1,0,-1
 -10 500 l 1,1,-1
 351 500 l 1,2,-1
 351 455 l 1,3,-1
 293 455 l 1,4,-1
 293 235 l 2,5,6
 293 189 293 189 258 157 c 128,-1,7
 223 125 223 125 173 125 c 0,8,9
 121 125 121 125 84.5 157 c 128,-1,10
 48 189 48 189 48 235 c 2,11,-1
 48 455 l 1,12,-1
 -10 455 l 1,13,-1
 -10 455 l 1,0,-1
173 170 m 1,14,15
 202 170 202 170 222.5 189 c 128,-1,16
 243 208 243 208 243 235 c 2,17,-1
 243 455 l 1,18,-1
 98 455 l 1,19,-1
 98 235 l 2,20,21
 98 208 98 208 120 189 c 128,-1,22
 142 170 142 170 173 170 c 1,23,-1
 173 170 l 1,14,15
EndSplineSet
Ligature: 0 0 'half' u0923 u094D
EndChar
StartChar: u0924_u094D.half
Encoding: 65601 -1 194
Width: 283
GlyphClass: 2
Flags: W
Fore
188 15 m 1,0,1
 112 79 112 79 70 142 c 128,-1,2
 28 205 28 205 28 255 c 0,3,4
 28 296 28 296 63 325.5 c 128,-1,5
 98 355 98 355 148 355 c 2,6,-1
 303 355 l 1,7,-1
 303 310 l 1,8,-1
 148 310 l 2,9,10
 119 310 119 310 98.5 294 c 128,-1,11
 78 278 78 278 78 255 c 0,12,13
 78 211 78 211 114.5 156 c 128,-1,14
 151 101 151 101 218 45 c 1,15,-1
 188 15 l 1,16,-1
 188 15 l 1,0,1
-10 455 m 1,17,-1
 -10 500 l 1,18,-1
 293 500 l 1,19,-1
 293 455 l 1,20,-1
 -10 455 l 1,21,-1
 -10 455 l 1,17,-1
EndSplineSet
Ligature: 0 0 'half' u0924 u094D
EndChar
StartChar: u0925_u094D.half
Encoding: 65602 -1 195
Width: 407
GlyphClass: 2
Flags: W
Fore
232 90 m 1,0,1
 167 90 167 90 110.5 135.5 c 128,-1,2
 54 181 54 181 27 255 c 1,3,-1
 117 255 l 2,4,5
 167 255 167 255 202 286 c 128,-1,6
 237 317 237 317 237 360 c 0,7,8
 237 399 237 399 209 427 c 128,-1,9
 181 455 181 455 142 455 c 0,10,11
 117 455 117 455 99.5 439 c 128,-1,12
 82 423 82 423 82 400 c 0,13,14
 82 381 82 381 102.5 368 c 128,-1,15
 123 355 123 355 152 355 c 1,16,-1
 152 310 l 1,17,18
 102 310 102 310 67 336.5 c 128,-1,19
 32 363 32 363 32 400 c 0,20,21
 32 443 32 443 64 474 c 128,-1,22
 96 505 96 505 142 505 c 0,23,24
 202 505 202 505 244.5 462.5 c 128,-1,25
 287 420 287 420 287 360 c 0,26,27
 287 298 287 298 234.5 254 c 128,-1,28
 182 210 182 210 107 210 c 1,29,30
 127 175 127 175 160.5 155 c 128,-1,31
 194 135 194 135 232 135 c 0,32,33
 285 135 285 135 337 172.5 c 128,-1,34
 389 210 389 210 427 275 c 1,35,-1
 427 200 l 1,36,37
 391 148 391 148 339 119 c 128,-1,38
 287 90 287 90 232 90 c 1,39,-1
 232 90 l 1,0,1
307 455 m 1,40,-1
 307 500 l 1,41,-1
 417 500 l 1,42,-1
 417 455 l 1,43,-1
 307 455 l 1,44,-1
 307 455 l 1,40,-1
EndSplineSet
Ligature: 0 0 'half' u0925 u094D
EndChar
StartChar: u0926_u094D.half
Encoding: 65603 -1 196
Width: 413
GlyphClass: 2
Flags: W
Fore
129 -15 m 1,0,-1
 194 15 l 1,1,-1
 359 -110 l 1,2,-1
 329 -140 l 1,3,-1
 189 -35 l 1,4,-1
 149 -50 l 1,5,-1
 129 -15 l 1,6,-1
 129 -15 l 1,0,-1
-10 455 m 1,7,-1
 -10 500 l 1,8,-1
 423 500 l 1,9,-1
 423 455 l 1,10,-1
 339 455 l 1,11,-1
 339 325 l 1,12,-1
 149 325 l 2,13,14
 120 325 120 325 99.5 304.5 c 128,-1,15
 79 284 79 284 79 255 c 0,16,17
 79 198 79 198 131 164 c 128,-1,18
 183 130 183 130 269 130 c 1,19,20
 268 136 268 136 267 143 c 128,-1,21
 266 150 266 150 266 158 c 0,22,23
 266 184 266 184 281.5 202 c 128,-1,24
 297 220 297 220 319 220 c 0,25,26
 340 220 340 220 354.5 207 c 128,-1,27
 369 194 369 194 369 175 c 0,28,29
 369 149 369 149 358 129 c 128,-1,30
 347 109 347 109 329 100 c 1,31,32
 337 77 337 77 348.5 53 c 128,-1,33
 360 29 360 29 374 5 c 1,34,-1
 329 -15 l 1,35,-1
 279 85 l 1,36,37
 166 85 166 85 97.5 131.5 c 128,-1,38
 29 178 29 178 29 255 c 0,39,40
 29 305 29 305 64 340 c 128,-1,41
 99 375 99 375 149 375 c 2,42,-1
 289 375 l 1,43,-1
 289 455 l 1,44,-1
 -10 455 l 1,45,-1
 -10 455 l 1,7,-1
EndSplineSet
Ligature: 0 0 'half' u0926 u094D
EndChar
StartChar: u0927_u094D.half
Encoding: 65604 -1 197
Width: 368
GlyphClass: 2
Flags: W
Fore
208 80 m 1,0,1
 152 80 152 80 112.5 112 c 128,-1,2
 73 144 73 144 73 190 c 0,3,4
 73 217 73 217 85 240 c 128,-1,5
 97 263 97 263 118 275 c 1,6,7
 77 294 77 294 52.5 330.5 c 128,-1,8
 28 367 28 367 28 410 c 0,9,10
 28 451 28 451 57.5 480.5 c 128,-1,11
 87 510 87 510 128 510 c 0,12,13
 167 510 167 510 195 486.5 c 128,-1,14
 223 463 223 463 223 430 c 0,15,16
 223 399 223 399 196.5 377 c 128,-1,17
 170 355 170 355 133 355 c 1,18,-1
 133 400 l 1,19,20
 150 400 150 400 161.5 409 c 128,-1,21
 173 418 173 418 173 430 c 256,22,23
 173 442 173 442 160 451 c 128,-1,24
 147 460 147 460 128 460 c 0,25,26
 107 460 107 460 92.5 445.5 c 128,-1,27
 78 431 78 431 78 410 c 0,28,29
 78 374 78 374 100 343.5 c 128,-1,30
 122 313 122 313 158 300 c 1,31,32
 178 307 178 307 193.5 311 c 128,-1,33
 209 315 209 315 218 315 c 2,34,-1
 268 315 l 1,35,-1
 293 275 l 1,36,-1
 233 275 l 2,37,38
 185 275 185 275 151.5 250 c 128,-1,39
 118 225 118 225 118 190 c 0,40,41
 118 163 118 163 144.5 144 c 128,-1,42
 171 125 171 125 208 125 c 0,43,44
 246 125 246 125 293 156.5 c 128,-1,45
 340 188 340 188 388 245 c 1,46,-1
 388 180 l 1,47,48
 340 132 340 132 293 106 c 128,-1,49
 246 80 246 80 208 80 c 1,50,-1
 208 80 l 1,0,1
263 455 m 1,51,-1
 263 500 l 1,52,-1
 378 500 l 1,53,-1
 378 455 l 1,54,-1
 263 455 l 1,55,-1
 263 455 l 1,51,-1
EndSplineSet
Ligature: 0 0 'half' u0927 u094D
EndChar
StartChar: u0928_u094D.half
Encoding: 65605 -1 198
Width: 296
GlyphClass: 2
Flags: W
Fore
111 175 m 1,0,1
 91 175 91 175 53.5 224.5 c 128,-1,2
 16 274 16 274 16 300 c 0,3,4
 16 310 16 310 26.5 317.5 c 128,-1,5
 37 325 37 325 51 325 c 2,6,-1
 316 325 l 1,7,-1
 316 280 l 1,8,-1
 161 280 l 2,9,10
 149 280 149 280 140 274 c 128,-1,11
 131 268 131 268 131 260 c 2,12,-1
 131 205 l 2,13,14
 131 193 131 193 125 184 c 128,-1,15
 119 175 119 175 111 175 c 1,16,-1
 111 175 l 1,0,1
-10 455 m 1,17,-1
 -10 500 l 1,18,-1
 306 500 l 1,19,-1
 306 455 l 1,20,-1
 -10 455 l 1,21,-1
 -10 455 l 1,17,-1
EndSplineSet
Ligature: 0 0 'half' u0928 u094D
EndChar
StartChar: u0929_u094D.half
Encoding: 65606 -1 199
Width: 296
GlyphClass: 2
Flags: W
Fore
111 175 m 1,0,1
 91 175 91 175 53.5 224.5 c 128,-1,2
 16 274 16 274 16 300 c 0,3,4
 16 310 16 310 26.5 317.5 c 128,-1,5
 37 325 37 325 51 325 c 2,6,-1
 316 325 l 1,7,-1
 316 280 l 1,8,-1
 161 280 l 2,9,10
 149 280 149 280 140 274 c 128,-1,11
 131 268 131 268 131 260 c 2,12,-1
 131 205 l 2,13,14
 131 193 131 193 125 184 c 128,-1,15
 119 175 119 175 111 175 c 1,16,-1
 111 175 l 1,0,1
-10 455 m 1,17,-1
 -10 500 l 1,18,-1
 306 500 l 1,19,-1
 306 455 l 1,20,-1
 -10 455 l 1,21,-1
 -10 455 l 1,17,-1
196 -5 m 1,22,-1
 156 30 l 1,23,-1
 196 70 l 1,24,-1
 236 30 l 1,25,-1
 196 -5 l 1,26,-1
 196 -5 l 1,22,-1
EndSplineSet
Ligature: 0 0 'half' u0929 u094D
Ligature: 0 0 'half' u0929 u094D
EndChar
StartChar: u092A_u094D.half
Encoding: 65607 -1 200
Width: 265
GlyphClass: 2
Flags: W
Fore
-10 455 m 1,0,-1
 -10 500 l 1,1,-1
 275 500 l 1,2,-1
 275 455 l 1,3,-1
 90 455 l 1,4,-1
 90 295 l 2,5,6
 90 256 90 256 116.5 228 c 128,-1,7
 143 200 143 200 180 200 c 0,8,9
 211 200 211 200 239.5 221.5 c 128,-1,10
 268 243 268 243 285 280 c 1,11,-1
 285 210 l 1,12,13
 267 184 267 184 239 169.5 c 128,-1,14
 211 155 211 155 180 155 c 0,15,16
 122 155 122 155 81 197.5 c 128,-1,17
 40 240 40 240 40 300 c 2,18,-1
 40 455 l 1,19,-1
 -10 455 l 1,20,-1
 -10 455 l 1,0,-1
EndSplineSet
Ligature: 0 0 'half' u092A u094D
EndChar
StartChar: u092B_u094D.half
Encoding: 65608 -1 201
Width: 442
GlyphClass: 2
Flags: W
Fore
-10 455 m 1,0,-1
 -10 500 l 1,1,-1
 452 500 l 1,2,-1
 452 455 l 1,3,-1
 312 455 l 1,4,-1
 312 310 l 1,5,6
 334 336 334 336 359 350.5 c 128,-1,7
 384 365 384 365 407 365 c 0,8,9
 421 365 421 365 435 361 c 128,-1,10
 449 357 449 357 462 350 c 1,11,-1
 462 300 l 1,12,13
 448 310 448 310 434 315 c 128,-1,14
 420 320 420 320 407 320 c 0,15,16
 387 320 387 320 362 300 c 128,-1,17
 337 280 337 280 312 245 c 1,18,-1
 312 0 l 1,19,-1
 262 0 l 1,20,-1
 262 200 l 1,21,22
 244 179 244 179 220.5 167 c 128,-1,23
 197 155 197 155 172 155 c 0,24,25
 118 155 118 155 80 191.5 c 128,-1,26
 42 228 42 228 42 280 c 2,27,-1
 42 455 l 1,28,-1
 -10 455 l 1,29,-1
 -10 455 l 1,0,-1
172 200 m 1,30,31
 193 200 193 200 217 217 c 128,-1,32
 241 234 241 234 262 265 c 1,33,-1
 262 455 l 1,34,-1
 92 455 l 1,35,-1
 92 280 l 2,36,37
 92 247 92 247 115.5 223.5 c 128,-1,38
 139 200 139 200 172 200 c 1,39,-1
 172 200 l 1,30,31
EndSplineSet
Ligature: 0 0 'half' u092B u094D
EndChar
StartChar: u092C_u094D.half
Encoding: 65609 -1 202
Width: 275
GlyphClass: 2
Flags: W
Fore
170 95 m 1,0,1
 112 95 112 95 71 136 c 128,-1,2
 30 177 30 177 30 235 c 0,3,4
 30 297 30 297 74 341 c 128,-1,5
 118 385 118 385 180 385 c 0,6,7
 194 385 194 385 206.5 382.5 c 128,-1,8
 219 380 219 380 230 375 c 1,9,-1
 230 325 l 1,10,11
 223 330 223 330 210 332.5 c 128,-1,12
 197 335 197 335 180 335 c 0,13,14
 162 335 162 335 147 330 c 128,-1,15
 132 325 132 325 120 315 c 1,16,-1
 275 200 l 1,17,-1
 295 225 l 1,18,-1
 295 160 l 1,19,20
 274 129 274 129 240.5 112 c 128,-1,21
 207 95 207 95 170 95 c 1,22,-1
 170 95 l 1,0,1
170 145 m 1,23,24
 192 145 192 145 211.5 153 c 128,-1,25
 231 161 231 161 245 175 c 1,26,-1
 95 285 l 1,27,28
 88 276 88 276 84 263.5 c 128,-1,29
 80 251 80 251 80 235 c 0,30,31
 80 198 80 198 106.5 171.5 c 128,-1,32
 133 145 133 145 170 145 c 1,33,-1
 170 145 l 1,23,24
-10 455 m 1,34,-1
 -10 500 l 1,35,-1
 285 500 l 1,36,-1
 285 455 l 1,37,-1
 -10 455 l 1,38,-1
 -10 455 l 1,34,-1
EndSplineSet
Ligature: 0 0 'half' u092C u094D
EndChar
StartChar: u092D_u094D.half
Encoding: 65610 -1 203
Width: 350
GlyphClass: 2
Flags: W
Fore
240 455 m 1,0,-1
 240 500 l 1,1,-1
 360 500 l 1,2,-1
 360 455 l 1,3,-1
 240 455 l 1,4,-1
 240 455 l 1,0,-1
85 235 m 1,5,6
 85 247 85 247 94 256 c 128,-1,7
 103 265 103 265 115 265 c 2,8,-1
 155 265 l 1,9,-1
 155 410 l 2,10,11
 155 431 155 431 142 445.5 c 128,-1,12
 129 460 129 460 110 460 c 256,13,14
 91 460 91 460 78 449.5 c 128,-1,15
 65 439 65 439 65 425 c 0,16,17
 65 408 65 408 76.5 396.5 c 128,-1,18
 88 385 88 385 105 385 c 1,19,-1
 105 335 l 1,20,21
 68 335 68 335 41.5 361.5 c 128,-1,22
 15 388 15 388 15 425 c 0,23,24
 15 460 15 460 43 485 c 128,-1,25
 71 510 71 510 110 510 c 256,26,27
 149 510 149 510 177 480.5 c 128,-1,28
 205 451 205 451 205 410 c 2,29,-1
 205 265 l 1,30,-1
 370 265 l 1,31,-1
 370 220 l 1,32,-1
 205 220 l 1,33,-1
 205 175 l 2,34,35
 205 167 205 167 197.5 161 c 128,-1,36
 190 155 190 155 180 155 c 0,37,38
 164 155 164 155 124.5 188.5 c 128,-1,39
 85 222 85 222 85 235 c 1,40,-1
 85 235 l 1,5,6
EndSplineSet
Ligature: 0 0 'half' u092D u094D
EndChar
StartChar: u092E_u094D.half
Encoding: 65611 -1 204
Width: 300
GlyphClass: 2
Flags: W
Fore
-10 455 m 1,0,-1
 -10 500 l 1,1,-1
 310 500 l 1,2,-1
 310 455 l 1,3,-1
 130 455 l 1,4,-1
 130 280 l 1,5,-1
 320 280 l 1,6,-1
 320 235 l 1,7,-1
 130 235 l 1,8,-1
 130 190 l 2,9,10
 130 182 130 182 124 176 c 128,-1,11
 118 170 118 170 110 170 c 0,12,13
 94 170 94 170 54.5 205.5 c 128,-1,14
 15 241 15 241 15 255 c 0,15,16
 15 265 15 265 22.5 272.5 c 128,-1,17
 30 280 30 280 40 280 c 2,18,-1
 80 280 l 1,19,-1
 80 455 l 1,20,-1
 -10 455 l 1,21,-1
 -10 455 l 1,0,-1
EndSplineSet
Ligature: 0 0 'half' u092E u094D
EndChar
StartChar: u092F_u094D.half
Encoding: 65612 -1 205
Width: 310
GlyphClass: 2
Flags: W
Fore
-10 455 m 1,0,-1
 -10 500 l 1,1,-1
 320 500 l 1,2,-1
 320 455 l 1,3,-1
 150 455 l 1,4,5
 169 436 169 436 179.5 412.5 c 128,-1,6
 190 389 190 389 190 365 c 0,7,8
 190 318 190 318 158.5 283.5 c 128,-1,9
 127 249 127 249 80 245 c 1,10,11
 96 202 96 202 127.5 176 c 128,-1,12
 159 150 159 150 195 150 c 0,13,14
 232 150 232 150 268.5 175.5 c 128,-1,15
 305 201 305 201 330 245 c 1,16,-1
 330 175 l 1,17,18
 300 139 300 139 264.5 119.5 c 128,-1,19
 229 100 229 100 195 100 c 0,20,21
 137 100 137 100 86.5 150 c 128,-1,22
 36 200 36 200 15 280 c 1,23,24
 67 280 67 280 103.5 305 c 128,-1,25
 140 330 140 330 140 365 c 0,26,27
 140 384 140 384 127 407.5 c 128,-1,28
 114 431 114 431 90 455 c 1,29,-1
 -10 455 l 1,30,-1
 -10 455 l 1,0,-1
EndSplineSet
Ligature: 0 0 'half' u092F u094D
EndChar
StartChar: glyph206
Encoding: 65613 -1 206
Width: 200
GlyphClass: 2
Flags: W
Fore
-10 455 m 1,0,-1
 -10 500 l 1,1,-1
 75 500 l 1,2,3
 68 509 68 509 64 520.5 c 128,-1,4
 60 532 60 532 60 545 c 0,5,6
 60 613 60 613 146.5 661.5 c 128,-1,7
 233 710 233 710 355 710 c 0,8,9
 539 710 539 710 684.5 657.5 c 128,-1,10
 830 605 830 605 910 510 c 1,11,-1
 850 510 l 1,12,13
 776 584 776 584 647 624.5 c 128,-1,14
 518 665 518 665 355 665 c 0,15,16
 254 665 254 665 182 630 c 128,-1,17
 110 595 110 595 110 545 c 0,18,19
 110 532 110 532 114 520.5 c 128,-1,20
 118 509 118 509 125 500 c 1,21,-1
 210 500 l 1,22,-1
 210 455 l 1,23,-1
 125 455 l 1,24,-1
 125 0 l 1,25,-1
 75 0 l 1,26,-1
 75 455 l 1,27,-1
 -10 455 l 1,28,-1
 -10 455 l 1,0,-1
EndSplineSet
PairPos: 0 0 'abvm' u0902 dx=0 dy=0 dh=0 dv=0 dx=762 dy=0 dh=0 dv=0
EndChar
StartChar: glyph207
Encoding: 65614 -1 207
Width: 200
GlyphClass: 2
Flags: W
Fore
-10 455 m 1,0,-1
 -10 500 l 1,1,-1
 75 500 l 1,2,3
 68 509 68 509 64 520.5 c 128,-1,4
 60 532 60 532 60 545 c 0,5,6
 60 613 60 613 146.5 661.5 c 128,-1,7
 233 710 233 710 355 710 c 0,8,9
 539 710 539 710 684.5 657.5 c 128,-1,10
 830 605 830 605 910 510 c 1,11,-1
 850 510 l 1,12,13
 761 585 761 585 633 625 c 128,-1,14
 505 665 505 665 355 665 c 0,15,16
 254 665 254 665 182 630 c 128,-1,17
 110 595 110 595 110 545 c 0,18,19
 110 532 110 532 114 520.5 c 128,-1,20
 118 509 118 509 125 500 c 1,21,-1
 210 500 l 1,22,-1
 210 455 l 1,23,-1
 125 455 l 1,24,-1
 125 0 l 1,25,-1
 75 0 l 1,26,-1
 75 455 l 1,27,-1
 -10 455 l 1,28,-1
 -10 455 l 1,0,-1
850 645 m 1,29,-1
 850 715 l 1,30,-1
 925 715 l 1,31,-1
 925 645 l 1,32,-1
 850 645 l 1,33,-1
 850 645 l 1,29,-1
EndSplineSet
EndChar
StartChar: u0932_u094D.half
Encoding: 65615 -1 208
Width: 406
GlyphClass: 2
Flags: W
Fore
221 0 m 1,0,1
 135 31 135 31 83 89 c 128,-1,2
 31 147 31 147 31 210 c 0,3,4
 31 268 31 268 75 309 c 128,-1,5
 119 350 119 350 181 350 c 0,6,7
 212 350 212 350 244.5 334.5 c 128,-1,8
 277 319 277 319 306 290 c 1,9,10
 330 314 330 314 361 327 c 128,-1,11
 392 340 392 340 426 340 c 1,12,-1
 426 290 l 1,13,14
 375 290 375 290 333 254 c 128,-1,15
 291 218 291 218 276 160 c 1,16,-1
 231 180 l 1,17,18
 242 209 242 209 252 228 c 128,-1,19
 262 247 262 247 271 255 c 1,20,21
 253 276 253 276 229.5 288 c 128,-1,22
 206 300 206 300 181 300 c 0,23,24
 140 300 140 300 110.5 273.5 c 128,-1,25
 81 247 81 247 81 210 c 0,26,27
 81 160 81 160 125 113 c 128,-1,28
 169 66 169 66 241 40 c 1,29,-1
 221 0 l 1,30,-1
 221 0 l 1,0,1
-10 455 m 1,31,-1
 -10 500 l 1,32,-1
 416 500 l 1,33,-1
 416 455 l 1,34,-1
 -10 455 l 1,35,-1
 -10 455 l 1,31,-1
EndSplineSet
Ligature: 0 0 'half' u0932 u094D
EndChar
StartChar: u0933_u094D.half
Encoding: 65616 -1 209
Width: 494
GlyphClass: 2
Flags: W
Fore
164 55 m 1,0,1
 110 55 110 55 72 100.5 c 128,-1,2
 34 146 34 146 34 210 c 256,3,4
 34 274 34 274 72 319.5 c 128,-1,5
 110 365 110 365 164 365 c 0,6,7
 200 365 200 365 231.5 339 c 128,-1,8
 263 313 263 313 279 270 c 1,9,10
 295 313 295 313 325 339 c 128,-1,11
 355 365 355 365 389 365 c 0,12,13
 441 365 441 365 477.5 321 c 128,-1,14
 514 277 514 277 514 215 c 0,15,16
 514 149 514 149 477.5 102 c 128,-1,17
 441 55 441 55 389 55 c 0,18,19
 354 55 354 55 322 82.5 c 128,-1,20
 290 110 290 110 274 155 c 1,21,22
 258 110 258 110 227.5 82.5 c 128,-1,23
 197 55 197 55 164 55 c 1,24,-1
 164 55 l 1,0,1
164 105 m 1,25,26
 186 105 186 105 211 135 c 128,-1,27
 236 165 236 165 254 215 c 1,28,29
 238 260 238 260 213 287.5 c 128,-1,30
 188 315 188 315 164 315 c 0,31,32
 131 315 131 315 107.5 284 c 128,-1,33
 84 253 84 253 84 210 c 256,34,35
 84 167 84 167 107.5 136 c 128,-1,36
 131 105 131 105 164 105 c 1,37,-1
 164 105 l 1,25,26
389 105 m 1,38,39
 420 105 420 105 442 137 c 128,-1,40
 464 169 464 169 464 215 c 0,41,42
 464 256 464 256 442 285.5 c 128,-1,43
 420 315 420 315 389 315 c 256,44,45
 358 315 358 315 332.5 285.5 c 128,-1,46
 307 256 307 256 299 210 c 1,47,48
 307 164 307 164 332.5 134.5 c 128,-1,49
 358 105 358 105 389 105 c 1,50,-1
 389 105 l 1,38,39
-10 455 m 1,51,-1
 -10 500 l 1,52,-1
 504 500 l 1,53,-1
 504 455 l 1,54,-1
 -10 455 l 1,55,-1
 -10 455 l 1,51,-1
EndSplineSet
Ligature: 0 0 'half' u0933 u094D
EndChar
StartChar: u0934_u094D.half
Encoding: 65617 -1 210
Width: 493
GlyphClass: 2
Flags: W
Fore
163 55 m 1,0,1
 109 55 109 55 71 100.5 c 128,-1,2
 33 146 33 146 33 210 c 0,3,4
 33 272 33 272 71 316 c 128,-1,5
 109 360 109 360 163 360 c 0,6,7
 200 360 200 360 231.5 335.5 c 128,-1,8
 263 311 263 311 278 270 c 1,9,10
 294 313 294 313 324 339 c 128,-1,11
 354 365 354 365 388 365 c 0,12,13
 440 365 440 365 476.5 321 c 128,-1,14
 513 277 513 277 513 215 c 0,15,16
 513 149 513 149 476.5 102 c 128,-1,17
 440 55 440 55 388 55 c 0,18,19
 353 55 353 55 321 82.5 c 128,-1,20
 289 110 289 110 273 155 c 1,21,22
 257 110 257 110 226.5 82.5 c 128,-1,23
 196 55 196 55 163 55 c 1,24,-1
 163 55 l 1,0,1
163 100 m 1,25,26
 185 100 185 100 209.5 131.5 c 128,-1,27
 234 163 234 163 253 215 c 1,28,29
 236 262 236 262 211 291 c 128,-1,30
 186 320 186 320 163 320 c 0,31,32
 130 320 130 320 106.5 288 c 128,-1,33
 83 256 83 256 83 210 c 256,34,35
 83 164 83 164 106.5 132 c 128,-1,36
 130 100 130 100 163 100 c 1,37,-1
 163 100 l 1,25,26
388 100 m 1,38,39
 419 100 419 100 441 133.5 c 128,-1,40
 463 167 463 167 463 215 c 0,41,42
 463 256 463 256 441 285.5 c 128,-1,43
 419 315 419 315 388 315 c 256,44,45
 357 315 357 315 331.5 285.5 c 128,-1,46
 306 256 306 256 298 210 c 1,47,48
 306 162 306 162 331.5 131 c 128,-1,49
 357 100 357 100 388 100 c 1,50,-1
 388 100 l 1,38,39
-10 455 m 1,51,-1
 -10 500 l 1,52,-1
 503 500 l 1,53,-1
 503 455 l 1,54,-1
 -10 455 l 1,55,-1
 -10 455 l 1,51,-1
273 -20 m 1,56,-1
 233 20 l 1,57,-1
 273 60 l 1,58,-1
 313 20 l 1,59,-1
 273 -20 l 1,60,-1
 273 -20 l 1,56,-1
EndSplineSet
Ligature: 0 0 'half' u0934 u094D
EndChar
StartChar: u0935_u094D.half
Encoding: 65618 -1 211
Width: 260
GlyphClass: 2
Flags: W
Fore
170 110 m 1,0,1
 112 110 112 110 71 151.5 c 128,-1,2
 30 193 30 193 30 251 c 256,3,4
 30 309 30 309 71 349.5 c 128,-1,5
 112 390 112 390 170 390 c 0,6,7
 192 390 192 390 212.5 385 c 128,-1,8
 233 380 233 380 250 370 c 1,9,-1
 230 325 l 1,10,11
 220 332 220 332 204.5 336 c 128,-1,12
 189 340 189 340 170 340 c 0,13,14
 133 340 133 340 106.5 314 c 128,-1,15
 80 288 80 288 80 251 c 0,16,17
 80 211 80 211 106.5 183 c 128,-1,18
 133 155 133 155 170 155 c 0,19,20
 194 155 194 155 223 173.5 c 128,-1,21
 252 192 252 192 280 225 c 1,22,-1
 280 160 l 1,23,24
 256 136 256 136 227.5 123 c 128,-1,25
 199 110 199 110 170 110 c 1,26,-1
 170 110 l 1,0,1
-10 455 m 1,27,-1
 -10 500 l 1,28,-1
 270 500 l 1,29,-1
 270 455 l 1,30,-1
 -10 455 l 1,31,-1
 -10 455 l 1,27,-1
EndSplineSet
Ligature: 0 0 'half' u0935 u094D
EndChar
StartChar: u0936_u094D.half
Encoding: 65619 -1 212
Width: 334
GlyphClass: 2
Flags: W
Fore
252 0 m 1,0,-1
 22 195 l 1,1,-1
 52 230 l 1,2,3
 57 228 57 228 72 218.5 c 128,-1,4
 87 209 87 209 102 200 c 1,5,6
 160 200 160 200 201 238.5 c 128,-1,7
 242 277 242 277 242 332 c 1,8,9
 229 313 229 313 209.5 302.5 c 128,-1,10
 190 292 190 292 167 292 c 0,11,12
 117 292 117 292 82 326.5 c 128,-1,13
 47 361 47 361 47 410 c 0,14,15
 47 458 47 458 82 491.5 c 128,-1,16
 117 525 117 525 167 525 c 0,17,18
 226 525 226 525 259 480.5 c 128,-1,19
 292 436 292 436 292 355 c 0,20,21
 292 276 292 276 243.5 220.5 c 128,-1,22
 195 165 195 165 127 165 c 1,23,-1
 282 40 l 1,24,-1
 252 0 l 1,25,-1
 252 0 l 1,0,-1
167 340 m 1,26,27
 194 340 194 340 213 360.5 c 128,-1,28
 232 381 232 381 232 410 c 0,29,30
 232 437 232 437 213 456 c 128,-1,31
 194 475 194 475 167 475 c 0,32,33
 138 475 138 475 117.5 456 c 128,-1,34
 97 437 97 437 97 410 c 0,35,36
 97 381 97 381 117.5 360.5 c 128,-1,37
 138 340 138 340 167 340 c 1,38,-1
 167 340 l 1,26,27
EndSplineSet
Ligature: 0 0 'half' u0936 u094D
EndChar
StartChar: u0937_u094D.half
Encoding: 65620 -1 213
Width: 277
GlyphClass: 2
Flags: W
Fore
-10 455 m 1,0,-1
 -10 500 l 1,1,-1
 287 500 l 1,2,-1
 287 455 l 1,3,-1
 112 455 l 1,4,-1
 297 265 l 1,5,-1
 297 190 l 1,6,7
 266 168 266 168 237.5 156.5 c 128,-1,8
 209 145 209 145 187 145 c 0,9,10
 127 145 127 145 84.5 184.5 c 128,-1,11
 42 224 42 224 42 280 c 2,12,-1
 42 455 l 1,13,-1
 -10 455 l 1,14,-1
 -10 455 l 1,0,-1
187 190 m 1,15,16
 208 190 208 190 230 199 c 128,-1,17
 252 208 252 208 272 225 c 1,18,-1
 92 410 l 1,19,-1
 92 280 l 2,20,21
 92 243 92 243 120 216.5 c 128,-1,22
 148 190 148 190 187 190 c 1,23,-1
 187 190 l 1,15,16
EndSplineSet
Ligature: 0 0 'half' u0937 u094D
EndChar
